<?xml version="1.0" encoding="UTF-8" standalone="no"?>
<svg
   xmlns:dc="http://purl.org/dc/elements/1.1/"
   xmlns:cc="http://creativecommons.org/ns#"
   xmlns:rdf="http://www.w3.org/1999/02/22-rdf-syntax-ns#"
   xmlns:svg="http://www.w3.org/2000/svg"
   xmlns="http://www.w3.org/2000/svg"
   viewBox="0 0 207.11067 343.11066"
   height="343.11066"
   width="207.11067"
   xml:space="preserve"
   id="svg2"
   version="1.1"><metadata
     id="metadata8"><rdf:RDF><cc:Work
         rdf:about=""><dc:format>image/svg+xml</dc:format><dc:type
           rdf:resource="http://purl.org/dc/dcmitype/StillImage" /></cc:Work></rdf:RDF></metadata><defs
     id="defs6"><clipPath
       id="clipPath18"
       clipPathUnits="userSpaceOnUse"><path
         id="path16"
         d="M 0,257.333 H 155.333 V 0 H 0 Z" /></clipPath></defs><g
     transform="matrix(1.3333333,0,0,-1.3333333,0,343.11067)"
     id="g10"><g
       id="g12"><g
         clip-path="url(#clipPath18)"
         id="g14"><g
           transform="translate(117.8752,246.9727)"
           id="g20"><path
             id="path22"
             style="fill:#231f20;fill-opacity:1;fill-rule:nonzero;stroke:none"
             d="m 0,0 c -0.377,-0.152 -1.043,-0.488 -1.507,-1.188 -0.433,-0.652 -0.57,-1.301 -0.53,-2.126 0.047,-0.966 0.227,-1.935 0.17,-2.892 -0.047,-0.795 -0.231,-1.632 -0.57,-2.348 -0.586,-1.237 -1.836,-1.335 -2.973,-1.201 -2.091,0.248 -4.156,0.708 -6.244,0.997 -1.622,0.225 -3.261,0.325 -4.893,0.479 h -0.264 c -0.85,-0.056 -1.797,-0.021 -2.266,-0.876 -0.5,-0.913 0.101,-1.71 0.596,-2.423 2.016,-2.906 4.874,-4.289 8.352,-4.5 0.292,-0.018 0.587,-0.006 0.88,-0.002 1.932,0.021 2.839,-0.767 2.71,-2.685 -0.096,-1.416 -0.435,-2.832 -0.81,-4.209 -2.962,-10.88 -5.862,-21.778 -8.989,-32.611 -1.329,-4.606 -3.164,-9.065 -4.748,-13.598 -0.714,-2.044 -1.39,-4.102 -2.06,-6.162 -1.423,-4.375 -4.03,-7.755 -8.163,-9.905 -1.48,-0.77 -2.915,-1.628 -4.355,-2.471 -1.405,-0.823 -2.492,-1.95 -3.108,-3.477 -0.723,-1.791 -1.418,-3.593 -2.127,-5.39 -0.504,-1.276 -1.092,-2.459 -2.524,-2.974 -0.598,-0.216 -0.59,-0.749 -0.167,-1.122 0.542,-0.48 1.122,-1.027 1.784,-1.242 5.776,-1.883 11.095,-1.256 15.702,3.428 1.686,1.713 2.346,3.771 1.766,6.21 -0.502,2.112 -0.886,4.281 -0.359,6.442 0.245,1.002 0.686,1.995 1.224,2.879 1.461,2.398 3.016,4.738 4.543,7.095 1.274,1.965 2.491,3.973 3.881,5.853 0.522,0.706 1.416,1.193 2.226,1.615 0.908,0.473 1.52,1.188 1.762,2.088 0.568,2.114 1.127,4.247 1.446,6.409 0.626,4.228 1.058,8.484 1.637,12.72 0.124,0.914 0.47,1.814 0.821,2.677 0.706,1.735 2.063,2.584 3.923,2.571 2.473,-0.019 4.755,0.511 6.769,2.036 2.444,1.85 3.046,4.094 1.757,6.884 -0.258,0.557 -0.533,1.115 -0.873,1.624 -0.441,0.659 -0.236,1.105 0.377,1.433 0.566,0.303 1.155,0.568 1.746,0.819 2.395,1.017 4.847,1.918 7.178,3.066 2.003,0.986 4.104,1.319 6.261,1.574 0.782,0.092 1.55,0.298 2.324,0.457 0.793,0.163 1.426,0.479 1.912,0.935 0.775,0.728 1.012,1.702 1.153,2.271 0.118,0.476 0.157,0.885 0.17,1.172 0.029,0.384 0.058,0.767 0.087,1.151 -4.57,1.349 -9.158,2.641 -13.703,4.068 -3.28,1.029 -6.671,1.778 -9.67,3.585 -1.495,0.9 -1.611,1.28 -0.827,2.87 0.567,1.15 1.165,2.304 1.553,3.518 0.234,0.73 0.394,1.517 0.122,2.418 C 2.734,-0.842 1.739,-0.176 1.336,0.062 0.891,0.041 0.445,0.021 0,0" /></g><g
           transform="translate(117.8145,142.8195)"
           id="g24"><path
             id="path26"
             style="fill:#231f20;fill-opacity:1;fill-rule:nonzero;stroke:none"
             d="m 0,0 c -0.179,1.245 -0.427,1.645 -0.609,1.88 -0.638,0.824 -1.715,1.164 -2.957,1.354 -0.988,0.152 -1.943,0.614 -2.928,0.672 -0.624,0.037 -1.419,-0.252 -1.89,-0.672 -1.75,-1.561 -2.567,-3.7 -3.254,-5.872 -0.222,-0.7 -0.387,-1.473 -0.317,-2.187 0.04,-0.411 0.576,-1.074 0.933,-1.105 2.931,-0.251 5.115,-1.87 7.202,-3.709 0.111,-0.098 0.22,-0.2 0.342,-0.28 0.151,-0.1 0.314,-0.178 0.519,-0.292 0.557,0.7 1.205,1.642 1.779,2.832 0.556,1.153 0.884,2.213 1.085,3.066 C 0.237,-2.45 0.139,-0.967 0,0" /></g><g
           transform="translate(80.1247,108.4611)"
           id="g28"><path
             id="path30"
             style="fill:#231f20;fill-opacity:1;fill-rule:nonzero;stroke:none"
             d="m 0,0 c -0.026,2.917 0.15,4.829 0.38,6.163 0.075,0.436 0.247,1.354 -0.19,2.277 -0.261,0.553 -0.722,1.032 -1.44,1.466 -1.64,0.99 -3.062,2.342 -4.567,3.552 -1.069,0.859 -1.346,0.889 -2.105,-0.288 -2.077,-3.214 -3.621,-6.609 -3.13,-10.592 0.16,-1.298 -0.146,-2.415 -1.126,-3.347 -0.723,-0.687 -0.8,-1.846 -0.273,-2.665 0.518,-0.804 1.485,-1.119 2.475,-0.686 1.293,0.567 2.543,1.231 3.821,1.834 1.402,0.662 1.943,0.489 3.081,-0.566 0.584,-0.542 1.468,-1.313 2.047,-1.188 0.209,0.045 0.363,0.128 0.477,0.24 0.431,0.422 0.268,1.089 0.298,2.071 C -0.239,-1.319 -0.188,-0.724 0,0" /></g><g
           transform="translate(57.7851,140.3703)"
           id="g32"><path
             id="path34"
             style="fill:#231f20;fill-opacity:1;fill-rule:nonzero;stroke:none"
             d="m 0,0 c 2.49,-0.139 4.287,-0.328 5.688,-0.543 0.51,-0.078 1.417,-0.226 2.283,0.244 0.519,0.282 0.945,0.755 1.293,1.45 0.73,1.46 1.446,2.928 2.187,4.382 0.676,1.326 -0.034,2.305 -0.811,3.24 -2.003,2.411 -4.615,3.162 -7.63,2.654 -1.744,-0.294 -3.278,-0.148 -4.328,1.519 -0.115,0.183 -0.503,0.338 -0.717,0.292 C -3.79,12.857 -4.702,11.295 -4.072,9.561 -3.629,8.345 -3.014,7.178 -2.365,6.053 -1.77,5.022 -2.007,4.218 -2.754,3.437 -3.193,2.979 -3.7,2.565 -4.041,2.043 -4.277,1.683 -4.477,1.093 -4.337,0.752 -4.196,0.407 -3.635,0.078 -3.224,0.031 -2.302,-0.075 -1.359,-0.002 -0.425,-0.002 -0.283,-0.001 -0.142,-0.001 0,0" /></g><g
           transform="translate(92.9087,127.9347)"
           id="g36"><path
             id="path38"
             style="fill:#231f20;fill-opacity:1;fill-rule:nonzero;stroke:none"
             d="M 0,0 C 0.532,0 0.833,0.029 1.128,-0.005 3.254,-0.249 3.4,-0.22 4.277,1.736 4.945,3.225 5.778,4.749 5.386,6.448 4.857,8.745 3.968,10.914 2.324,12.675 2.13,12.883 1.708,12.983 1.402,12.965 -0.756,12.836 -2.911,12.672 -5.066,12.498 -5.882,12.433 -6.696,12.325 -7.507,12.21 -7.985,12.142 -8.505,12.12 -8.922,11.91 -10.571,11.08 -10.643,10.425 -9.67,9.216 -8.115,7.288 -6.605,5.26 -5.479,3.068 -4.445,1.053 -2.869,0.363 -0.883,0.065 -0.516,0.01 -0.14,0.01 0,0" /></g><g
           transform="translate(66.9467,136.1127)"
           id="g40"><path
             id="path42"
             style="fill:#231f20;fill-opacity:1;fill-rule:nonzero;stroke:none"
             d="m 0,0 c 0.269,-0.224 0.545,-0.653 0.872,-0.697 3.445,-0.459 6.319,-2.339 9.402,-3.697 1.024,-0.451 2.031,-0.991 3.104,-1.257 0.591,-0.146 1.429,0.01 1.927,0.358 0.697,0.486 0.563,1.354 0.168,2.044 C 14.361,-1.309 13.76,0.747 13.47,2.98 13.133,5.573 11.704,7.431 8.97,8.042 7.919,8.277 6.914,8.747 5.857,8.917 5.274,9.01 4.415,8.913 4.046,8.539 2.436,6.913 1.063,5.109 0.733,2.713 0.617,1.872 0.293,1.059 0,0" /></g><g
           transform="translate(65.1261,122.965)"
           id="g44"><path
             id="path46"
             style="fill:#231f20;fill-opacity:1;fill-rule:nonzero;stroke:none"
             d="m 0,0 c -0.492,0.691 -0.871,1.514 -1.496,2.048 -1.913,1.636 -4.309,2.322 -6.657,3.037 -0.956,0.29 -1.686,-0.278 -2.023,-1.162 -0.412,-1.075 -0.758,-2.183 -1.036,-3.301 -0.615,-2.471 -1.707,-4.669 -3.456,-6.538 -0.295,-0.315 -0.55,-0.723 -0.675,-1.134 -0.358,-1.181 0.353,-2.036 1.531,-1.693 1.575,0.459 3.309,0.575 4.497,2.036 0.634,0.779 2.064,0.541 3.066,-0.29 1.683,-1.396 3.753,-0.918 4.459,1.112 0.573,1.649 0.516,2.503 1.468,5.024 0.09,0.238 0.168,0.432 0.22,0.556 C -0.068,-0.203 -0.034,-0.102 0,0" /></g><g
           transform="translate(121.8211,197.5398)"
           id="g48"><path
             id="path50"
             style="fill:#231f20;fill-opacity:1;fill-rule:nonzero;stroke:none"
             d="M 0,0 C 0.102,0.936 0.127,1.737 0.126,2.36 0.124,3.144 -0.021,3.66 0.024,4.279 0.115,5.545 -0.629,6.191 -1.609,6.699 -2.225,7.018 -2.878,7.597 -3.46,7.537 -3.875,7.493 -4.164,6.55 -4.569,6.058 -6.164,4.117 -7.898,2.322 -10.101,1.048 c -0.152,-0.087 -0.361,-0.154 -0.431,-0.289 -0.231,-0.441 -0.623,-0.953 -0.541,-1.353 0.062,-0.303 0.746,-0.657 1.169,-0.677 2.206,-0.106 4.35,-0.463 6.4,-1.295 0.803,-0.326 1.504,-0.355 2.071,-0.089 0.775,0.364 1.128,1.307 1.204,1.5 C -0.049,-0.694 -0.006,-0.279 0,0" /></g><g
           transform="translate(106.3645,135.2809)"
           id="g52"><path
             id="path54"
             style="fill:#231f20;fill-opacity:1;fill-rule:nonzero;stroke:none"
             d="m 0,0 c -0.696,-0.395 -1.311,-0.652 -1.817,-1.048 -1.287,-1.008 -2.495,-2.117 -3.795,-3.106 -0.736,-0.559 -0.906,-1.205 -0.769,-2.053 0.498,-3.09 2.45,-5.298 4.538,-7.4 0.183,-0.184 0.981,-0.072 1.22,0.171 0.937,0.951 1.838,1.957 2.609,3.044 0.634,0.896 1.325,1.493 2.464,1.446 0.615,-0.026 1.027,0.181 1.272,0.835 0.403,1.078 0.964,2.096 1.378,3.171 0.107,0.278 0.04,0.841 -0.157,0.983 C 5.624,-3.007 4.281,-2.08 2.879,-1.26 2.001,-0.746 1.007,-0.432 0,0" /></g><g
           transform="translate(66.3743,133.3291)"
           id="g56"><path
             id="path58"
             style="fill:#231f20;fill-opacity:1;fill-rule:nonzero;stroke:none"
             d="m 0,0 c -0.1,1.245 -0.122,2.299 -0.297,3.326 -0.078,0.456 -0.366,1.104 -0.725,1.249 -2.529,1.013 -5.073,2.021 -7.9,1.761 -1.116,-0.102 -1.573,-0.47 -1.141,-1.472 0.937,-2.176 -0.164,-3.641 -1.466,-5.096 -0.681,-0.761 -1.5,-1.565 -1.1,-2.632 0.43,-1.147 1.679,-0.869 2.638,-1.063 1.479,-0.299 2.97,-0.568 4.416,-0.986 1.31,-0.378 2.33,-0.065 3.229,0.886 0.358,0.379 0.702,0.782 1.109,1.103 C -0.21,-2.111 0.325,-1.133 0,0" /></g><g
           transform="translate(95.5843,154.6461)"
           id="g60"><path
             id="path62"
             style="fill:#231f20;fill-opacity:1;fill-rule:nonzero;stroke:none"
             d="m 0,0 c 0,-0.224 -0.001,-0.447 0,-0.671 0.009,-1.43 0.39,-1.769 1.682,-1.244 1.783,0.724 3.169,0.147 4.487,-1.033 0.518,-0.464 1.099,-0.885 1.713,-1.211 0.884,-0.47 1.506,-0.222 1.789,0.76 0.234,0.812 0.237,1.688 0.421,2.519 0.252,1.147 0.469,2.321 0.901,3.403 0.485,1.213 0.213,2.554 -0.502,3.639 C 8.713,8.859 6.248,8.737 3.624,8.052 3.196,7.94 2.76,7.464 2.532,7.045 1.33,4.832 -0.123,2.696 0,0" /></g><g
           transform="translate(108.0052,164.609)"
           id="g64"><path
             id="path66"
             style="fill:#231f20;fill-opacity:1;fill-rule:nonzero;stroke:none"
             d="M 0,0 C 0.11,0.048 0.53,0.097 0.688,0.327 1.532,1.546 2.33,2.799 3.105,4.064 3.65,4.954 3.42,5.856 3.007,6.729 2.529,7.74 2.113,8.79 1.53,9.737 1.296,10.117 0.675,10.505 0.253,10.482 -2.277,10.343 -4.802,10.095 -7.325,9.858 -7.765,9.816 -8.218,9.712 -8.621,9.536 -9.652,9.085 -9.874,8.456 -9.308,7.497 -8.173,5.573 -7.004,3.668 -5.829,1.767 -5.265,0.855 -4.461,0.347 -3.346,0.304 -2.303,0.264 -1.264,0.12 0,0" /></g><g
           transform="translate(108.9589,175.3958)"
           id="g68"><path
             id="path70"
             style="fill:#231f20;fill-opacity:1;fill-rule:nonzero;stroke:none"
             d="m 0,0 c 0.344,-0.159 0.684,-0.326 1.032,-0.474 0.173,-0.074 0.343,-0.198 0.541,-0.15 0.262,0.062 0.608,0.136 0.809,0.458 C 2.54,0.087 2.591,0.767 2.59,1.18 2.587,2.776 2.554,4.351 2.504,5.909 2.495,6.167 2.363,6.344 2.249,6.478 2.177,6.563 2.039,6.554 1.923,6.492 1.08,6.045 0.342,6.064 -0.363,6.258 -0.445,6.281 -0.631,6.155 -0.694,6.018 -1.043,5.265 -1.483,4.579 -1.519,3.626 -1.54,3.061 -1.706,2.388 -1.844,1.76 -2.019,0.957 -1.897,0.575 -1.544,0.463 -1.032,0.302 -0.52,0.139 -0.008,-0.024 Z" /></g><g
           transform="translate(119.8695,192.0859)"
           id="g72"><path
             id="path74"
             style="fill:#231f20;fill-opacity:1;fill-rule:nonzero;stroke:none"
             d="m 0,0 c -2.862,0.635 -5.774,1.289 -8.691,1.924 -1.011,0.22 -1.475,-0.132 -1.313,-1.142 0.448,-2.785 0.955,-5.562 1.493,-8.332 0.203,-1.045 0.76,-1.636 1.998,-1.3 1.398,0.378 2.839,0.597 4.257,0.905 1.314,0.285 2.037,1.146 2.291,2.437 0.216,1.096 0.422,2.098 1.531,2.818 1.009,0.655 0.686,1.903 -0.446,2.331 C 0.772,-0.228 0.411,-0.131 0,0" /></g><g
           transform="translate(44.0317,139.5053)"
           id="g76"><path
             id="path78"
             style="fill:#231f20;fill-opacity:1;fill-rule:nonzero;stroke:none"
             d="m 0,0 c 0.16,-2.358 0.242,-4.662 0.493,-6.947 0.262,-2.386 0.334,-2.385 2.695,-2.33 1.343,0.032 2.69,0.036 4.024,0.168 0.45,0.045 1.074,0.339 1.26,0.702 0.845,1.649 1.699,3.318 2.286,5.068 0.581,1.734 0.094,2.555 -1.696,2.84 C 6.609,-0.109 4.117,0.041 1.639,0.248 1.177,0.287 0.697,0.112 0,0" /></g><g
           transform="translate(76.8002,124.3381)"
           id="g80"><path
             id="path82"
             style="fill:#231f20;fill-opacity:1;fill-rule:nonzero;stroke:none"
             d="M 0,0 C 0.131,-0.013 1.427,-0.125 1.91,0.63 2.367,1.344 1.947,2.481 1.453,2.97 0.455,3.957 -0.562,4.927 -1.573,5.901 -2.694,6.98 -3.799,8.078 -4.957,9.116 -5.18,9.315 -5.709,9.449 -5.938,9.323 -7.955,8.215 -9.658,6.738 -10.788,4.702 -11,4.32 -11.083,3.766 -10.997,3.337 c 0.253,-1.278 0.64,-2.529 0.933,-3.799 0.14,-0.604 0.393,-0.813 1.023,-0.618 1.766,0.548 3.541,1.069 5.324,1.558 0.502,0.138 0.953,0.027 1.192,0.014 C -1.444,0.435 -0.575,0.198 0,0" /></g><g
           transform="translate(103.4896,139.5625)"
           id="g84"><path
             id="path86"
             style="fill:#231f20;fill-opacity:1;fill-rule:nonzero;stroke:none"
             d="m 0,0 c 0.107,2.88 0.371,4.358 0.606,5.179 0.214,0.749 0.212,1.092 0.211,1.777 -0.003,1.517 -0.29,1.83 -1.798,1.921 -1.56,0.093 -2.674,1.021 -3.821,1.91 -0.413,0.32 -0.793,0.706 -1.252,0.936 -0.289,0.145 -0.791,0.193 -1.022,0.032 -0.229,-0.159 -0.369,-0.659 -0.312,-0.967 0.084,-0.452 0.283,-0.957 0.597,-1.281 1.034,-1.065 1.103,-2.279 0.576,-3.529 -1.035,-2.459 -0.578,-4.438 1.48,-6.202 0.598,-0.513 0.715,-1.585 1.062,-2.396 0.232,-0.543 0.364,-1.19 0.748,-1.595 0.94,-0.991 2.49,-0.487 2.814,0.846 0.053,0.217 0.122,0.437 0.127,0.658 0.015,0.783 0.006,1.567 0.006,2.351 C 0.014,-0.24 0.007,-0.12 0,0" /></g><g
           transform="translate(110.1456,113.1796)"
           id="g88"><path
             id="path90"
             style="fill:#231f20;fill-opacity:1;fill-rule:nonzero;stroke:none"
             d="M 0,0 C -0.437,1.805 -0.827,3.388 -1.202,4.975 -1.356,5.629 -1.483,6.29 -1.615,6.949 -1.854,8.133 -2.311,8.274 -3.314,7.597 -4.877,6.54 -6.442,5.47 -8.093,4.565 -9.022,4.055 -10.115,3.824 -11.154,3.538 -12.399,3.196 -12.783,2.38 -12.08,1.283 c 0.678,-1.059 1.462,-2.039 1.502,-3.397 0.016,-0.554 0.443,-0.771 0.97,-0.475 1.514,0.849 3.066,0.838 4.76,0.577 1.212,-0.187 2.552,0.054 3.751,0.398 C -0.613,-1.475 -0.353,-0.552 0,0" /></g><g
           transform="translate(117.813,170.3843)"
           id="g92"><path
             id="path94"
             style="fill:#231f20;fill-opacity:1;fill-rule:nonzero;stroke:none"
             d="m 0,0 c 0.118,0.43 0.314,1.061 0.637,1.79 0.915,2.067 1.584,2.155 1.724,3.32 0.114,0.949 -0.065,1.951 -0.569,3.022 -0.474,1.005 -0.238,1.952 0.338,2.84 0.113,0.173 0.212,0.355 0.301,0.54 0.296,0.614 0.557,1.347 -0.178,1.746 C 1.993,13.399 1.205,12.877 0.785,12.529 -0.612,11.371 -1.776,9.958 -3.94,9.843 -4.905,9.792 -5.235,8.838 -4.902,7.6 c 0.431,-1.602 0.968,-3.188 1.287,-4.805 0.218,-1.103 0.096,-2.25 0.21,-3.373 0.084,-0.829 0.229,-1.708 1.477,-1.753 0.337,-0.012 0.629,0.054 0.875,0.197 0.506,0.293 0.679,0.845 0.899,1.537 C -0.075,-0.348 -0.027,-0.138 0,0" /></g><g
           transform="translate(58.3548,99.5763)"
           id="g96"><path
             id="path98"
             style="fill:#231f20;fill-opacity:1;fill-rule:nonzero;stroke:none"
             d="m 0,0 c 0.368,1.527 0.765,2.723 1.06,3.535 0.326,0.896 0.521,1.849 0.967,2.691 0.866,1.633 0.87,2.784 -0.31,4.225 -0.624,0.763 -0.951,1.543 -0.914,2.54 0.021,0.577 -0.125,1.189 -0.325,1.738 -0.318,0.87 -1,1.271 -1.94,1.15 -0.91,-0.118 -1.153,-0.776 -1.32,-1.566 -0.386,-1.819 -0.753,-3.649 -1.281,-5.428 -0.324,-1.088 -1.053,-2.054 -1.385,-3.141 -0.103,-0.337 -0.153,-0.6 -0.168,-0.85 0,0 -0.017,-0.295 0.023,-0.605 0.077,-0.586 1.124,-4.19 3.812,-4.538 C -1.42,-0.295 -0.797,-0.313 0,0" /></g><g
           transform="translate(45.1846,128.5901)"
           id="g100"><path
             id="path102"
             style="fill:#231f20;fill-opacity:1;fill-rule:nonzero;stroke:none"
             d="m 0,0 c 0.354,-2.248 0.749,-4.634 1.101,-7.026 0.299,-2.03 0.519,-4.073 0.853,-6.097 0.051,-0.306 0.502,-0.608 0.836,-0.768 0.098,-0.047 0.641,0.416 0.629,0.624 -0.169,2.849 1.927,4.569 3.239,6.684 0.605,0.975 1.157,1.998 1.6,3.054 0.445,1.061 0.046,1.893 -0.938,2.558 -0.356,0.24 -0.68,0.575 -0.919,0.933 C 5.637,1.103 5.226,1.215 3.875,0.839 2.67,0.504 1.428,0.303 0,0" /></g><g
           transform="translate(107.4517,148.656)"
           id="g104"><path
             id="path106"
             style="fill:#231f20;fill-opacity:1;fill-rule:nonzero;stroke:none"
             d="M 0,0 C 0.773,0.123 1.543,0.319 2.321,0.354 3.496,0.408 4.691,0.461 5.851,0.313 7.509,0.101 8.287,0.703 7.936,2.338 7.45,4.604 6.926,6.843 7.253,9.188 7.323,9.693 7.057,9.984 6.498,9.696 4.796,8.82 3.103,7.926 1.389,7.074 0.255,6.511 -0.346,5.698 -0.427,4.377 -0.492,3.311 -0.864,2.267 -1.065,1.206 -1.222,0.38 -0.947,-0.12 0,0" /></g><g
           transform="translate(44.2408,106.6276)"
           id="g108"><path
             id="path110"
             style="fill:#231f20;fill-opacity:1;fill-rule:nonzero;stroke:none"
             d="m 0,0 c 1.927,-0.966 3.864,-1.984 5.855,-2.88 0.271,-0.122 1.092,0.278 1.192,0.587 0.855,2.652 1.637,5.329 2.365,8.02 C 9.654,6.62 9.071,6.815 8.285,6.676 6.182,6.302 4.076,5.948 1.861,5.567 1.333,3.988 0.711,2.128 0,0" /></g><g
           transform="translate(107.7892,156.9624)"
           id="g112"><path
             id="path114"
             style="fill:#231f20;fill-opacity:1;fill-rule:nonzero;stroke:none"
             d="m 0,0 c 0.864,0.342 1.547,0.591 2.212,0.881 1.502,0.655 3.003,1.315 4.487,2.01 0.317,0.147 0.734,0.4 0.812,0.685 C 8.08,5.648 8.573,7.741 9.089,9.82 6.703,10.449 4.835,10.021 3.719,8.477 2.809,7.218 1.575,6.195 0.658,4.941 0.172,4.276 -0.065,3.359 -0.194,2.523 -0.303,1.81 -0.095,1.048 0,0" /></g><g
           transform="translate(44.3142,141.404)"
           id="g116"><path
             id="path118"
             style="fill:#231f20;fill-opacity:1;fill-rule:nonzero;stroke:none"
             d="M 0,0 C 2.016,0.277 4.029,0.111 5.552,0.895 6.931,1.605 7.804,3.331 8.83,4.663 8.994,4.877 8.894,5.42 8.745,5.728 8.07,7.132 7.334,8.507 6.576,9.977 3.13,7.559 0.509,4.678 0,0" /></g><g
           transform="translate(69.3176,103.0337)"
           id="g120"><path
             id="path122"
             style="fill:#231f20;fill-opacity:1;fill-rule:nonzero;stroke:none"
             d="M 0,0 C -1.319,0.738 -2.247,2.461 -4.319,1.933 -4.707,1.834 -5.213,2.018 -5.615,2.189 -6.48,2.556 -6.923,2.124 -7.126,1.398 -7.584,-0.246 -8.017,-1.9 -8.361,-3.571 c -0.086,-0.418 0.087,-1.005 0.352,-1.355 0.616,-0.814 1.361,-1.531 2.11,-2.348 C -3.896,-4.803 -1.987,-2.45 0,0" /></g><g
           transform="translate(58.8726,155.5016)"
           id="g124"><path
             id="path126"
             style="fill:#231f20;fill-opacity:1;fill-rule:nonzero;stroke:none"
             d="m 0,0 c -0.013,-0.577 0.035,-1.749 0.766,-2.194 0.258,-0.157 0.549,-0.241 1.094,-0.142 1.867,0.339 3.569,0.259 5.301,-0.648 1.061,-0.555 1.717,0.049 1.85,1.267 0.134,1.219 0.378,2.426 0.526,3.643 C 9.582,2.299 9.543,2.558 9.395,2.72 9.136,3.005 8.646,2.949 8.437,2.925 3.354,2.339 1.881,2.339 0.59,0.839 0.433,0.656 0.216,0.378 0,0" /></g><g
           transform="translate(80.5267,122.1256)"
           id="g128"><path
             id="path130"
             style="fill:#231f20;fill-opacity:1;fill-rule:nonzero;stroke:none"
             d="M 0,0 C 2.126,0.095 4.098,0.16 6.065,0.299 6.334,0.318 6.786,0.704 6.795,0.933 6.833,2.003 6.812,3.088 6.662,4.146 6.618,4.45 6.015,4.957 5.763,4.906 3.728,4.495 2.421,5.887 0.901,6.747 0.709,6.856 0.574,7.08 0.376,7.159 -0.137,7.365 -0.671,7.519 -1.196,7.693 -1.268,7.06 -1.369,6.428 -1.395,5.793 -1.403,5.602 -1.247,5.355 -1.092,5.213 0.252,3.975 0.445,2.467 0.006,0.791 -0.038,0.623 0,0.434 0,0" /></g><g
           transform="translate(95.4239,127.0509)"
           id="g132"><path
             id="path134"
             style="fill:#231f20;fill-opacity:1;fill-rule:nonzero;stroke:none"
             d="m 0,0 c 1.617,-2.903 1.426,-5.972 1.62,-9.037 1.212,0.028 2.254,0.181 3.043,1.166 0.312,0.391 0.763,0.741 1.225,0.929 0.929,0.38 1.102,1.045 0.679,1.794 C 5.675,-3.565 4.709,-2.02 3.693,-0.513 3.494,-0.217 2.944,-0.062 2.538,-0.022 1.763,0.054 0.975,0 0,0" /></g><g
           transform="translate(63.7157,109.303)"
           id="g136"><path
             id="path138"
             style="fill:#231f20;fill-opacity:1;fill-rule:nonzero;stroke:none"
             d="M 0,0 C 1.303,1.952 2.364,3.543 3.547,5.317 2.072,5.486 0.874,5.848 -0.31,4.979 -0.688,4.702 -1.288,4.657 -1.792,4.636 -3,4.587 -3.328,4.154 -2.64,3.143 -1.926,2.093 -1.008,1.182 0,0" /></g><g
           transform="translate(67.7981,116.3012)"
           id="g140"><path
             id="path142"
             style="fill:#231f20;fill-opacity:1;fill-rule:nonzero;stroke:none"
             d="M 0,0 C 1.13,2.588 2.188,5.012 3.247,7.437 3.121,7.511 2.995,7.585 2.869,7.659 1.377,5.988 -0.313,4.467 -1.342,2.425 -1.847,1.424 -1.174,0.762 0,0" /></g><g
           transform="translate(78.2463,158.879)"
           id="g144"><path
             id="path146"
             style="fill:#231f20;fill-opacity:1;fill-rule:nonzero;stroke:none"
             d="m 0,0 c -2.991,-0.233 -5.787,-0.45 -8.643,-0.673 -0.017,-1.427 0.517,-1.8 1.399,-1.796 1.7,0.008 3.401,-0.034 5.099,-0.128 C -0.978,-2.662 -0.354,-1.879 0,0" /></g><g
           transform="translate(110.5995,118.4718)"
           id="g148"><path
             id="path150"
             style="fill:#231f20;fill-opacity:1;fill-rule:nonzero;stroke:none"
             d="M 0,0 C 0.251,1.716 0.51,3.431 0.751,5.149 0.864,5.959 0.392,6.104 -0.191,5.796 -1.169,5.28 -1.496,4.323 -1.301,3.322 -1.078,2.176 -0.631,1.074 -0.282,-0.048 -0.188,-0.032 -0.094,-0.016 0,0" /></g><g
           transform="translate(62.1083,95.3424)"
           id="g152"><path
             id="path154"
             style="fill:#231f20;fill-opacity:1;fill-rule:nonzero;stroke:none"
             d="m 0,0 c -1.398,-0.661 -2.796,-1.323 -4.187,-1.981 1.028,-0.518 1.531,-0.513 2.249,0.093 0.704,0.594 1.366,1.215 2.046,1.825 z" /></g><g
           transform="translate(93.0344,109.9808)"
           id="g156"><path
             id="path158"
             style="fill:#231f20;fill-opacity:1;fill-rule:nonzero;stroke:none"
             d="m 0,0 c 0.515,0.133 0.799,0.239 1.093,0.278 2.123,0.284 2.257,0.349 2.588,2.569 0.252,1.689 0.656,3.456 -0.173,5.094 -1.121,2.215 -2.555,4.209 -4.612,5.597 -0.244,0.164 -0.679,0.161 -0.97,0.065 -2.055,-0.672 -4.098,-1.38 -6.138,-2.098 -0.773,-0.272 -1.532,-0.586 -2.287,-0.906 -0.445,-0.189 -0.942,-0.343 -1.29,-0.662 -1.377,-1.261 -1.274,-1.949 -0.011,-2.94 2.015,-1.582 4.014,-3.276 5.684,-5.235 1.535,-1.8 3.243,-2.11 5.244,-1.917 0.37,0.036 0.734,0.13 0.872,0.155" /></g><g
           transform="translate(68.8302,150.892)"
           id="g160"><path
             id="path162"
             style="fill:#231f20;fill-opacity:1;fill-rule:nonzero;stroke:none"
             d="M 0,0 C 0.552,-0.158 1.125,-0.266 1.653,-0.482 2.452,-0.81 3.263,-1.145 3.989,-1.603 5.027,-2.256 5.73,-2.097 6.003,-0.9 6.381,0.757 6.725,2.409 7.668,3.868 7.871,4.182 7.784,4.458 7.323,4.44 5.92,4.384 4.517,4.312 3.113,4.277 2.184,4.253 1.533,3.898 1.07,3.044 0.697,2.355 0.127,1.775 -0.335,1.132 -0.696,0.631 -0.667,0.213 0,0" /></g><g
           transform="translate(85.9536,140.9528)"
           id="g164"><path
             id="path166"
             style="fill:#231f20;fill-opacity:1;fill-rule:nonzero;stroke:none"
             d="M 0,0 C 2.919,0.635 5.654,1.229 8.389,1.824 8.332,1.997 8.275,2.17 8.218,2.343 5.655,2.679 3.03,3.308 0.604,2.942 -0.585,2.763 -0.478,1.66 0,0" /></g><g
           transform="translate(100.859,109.5382)"
           id="g168"><path
             id="path170"
             style="fill:#231f20;fill-opacity:1;fill-rule:nonzero;stroke:none"
             d="M 0,0 C 4.164,0.079 7.005,0.17 7.558,0.279 7.638,0.295 7.979,0.367 8.127,0.204 8.188,0.135 8.208,0.014 8.155,-0.197 8.081,-0.287 7.972,-0.367 7.938,-0.471 7.023,-3.281 7.243,-6.407 5.561,-9.007 5.485,-9.126 5.518,-9.318 5.508,-9.477 5.421,-10.904 5.334,-12.332 5.25,-13.76 4.88,-20.025 4.381,-26.287 4.189,-32.558 c -0.134,-4.358 0.038,-8.737 0.299,-13.093 0.16,-2.681 0.785,-5.332 1.123,-8.007 0.285,-2.247 0.056,-4.45 -1.08,-6.463 -0.2,-0.353 -0.715,-0.828 -1.01,-0.781 -2.689,0.428 -5.281,1.158 -7.369,3.048 -1.47,1.331 -1.881,2.884 -0.92,4.612 0.742,1.334 1.85,2.46 2.737,3.72 0.366,0.52 0.778,1.129 0.833,1.728 0.327,3.599 0.704,7.204 0.772,10.812 0.059,3.127 -0.162,6.272 -0.453,9.39 -0.48,5.136 -1.107,10.258 -1.71,15.381 -0.036,0.305 -0.358,0.753 -0.626,0.821 -0.708,0.178 -1.46,0.184 -2.286,0.268 -0.19,-1.954 -0.374,-3.846 -0.558,-5.737 -0.529,-5.413 -1.057,-10.827 -1.586,-16.24 -0.521,-5.334 -1.064,-10.666 -1.534,-16.005 -0.056,-0.643 0.188,-1.363 0.456,-1.976 0.933,-2.131 2.156,-4.161 2.856,-6.361 0.739,-2.324 -0.472,-4.168 -2.865,-4.594 -1.533,-0.273 -3.175,-0.258 -4.724,-0.045 -2.152,0.297 -3.131,1.956 -3.683,3.899 v 2.386 c 0.629,2.199 1.248,4.369 1.343,6.708 0.275,6.78 0.721,13.553 1.107,20.328 0.278,4.873 0.624,9.743 0.833,14.619 0.127,2.975 0.77,5.991 -0.767,8.878 -0.119,0.222 -0.313,0.632 -0.156,1.005 0.36,0.856 2.136,0.353 3.925,1.109 1.589,0.671 1.801,1.749 2.9,2.651 C -6.742,0.498 -4.505,1.235 0,0" /></g><g
           transform="translate(63.3354,95.2454)"
           id="g172"><path
             id="path174"
             style="fill:#231f20;fill-opacity:1;fill-rule:nonzero;stroke:none"
             d="m 0,0 v -0.239 c -0.678,-0.717 -1.428,-1.381 -2.015,-2.167 -0.694,-0.928 -1.548,-1.891 -1.801,-2.964 -0.672,-2.851 -1.093,-5.764 -1.551,-8.662 -1.124,-7.121 -1.662,-14.254 -0.632,-21.454 0.242,-1.692 0.557,-3.126 2.15,-4.038 0.463,-0.265 0.814,-0.754 1.163,-1.183 1.729,-2.124 1.528,-3.957 -0.935,-5.136 -2.04,-0.977 -4.339,-1.402 -6.506,-2.126 -0.937,-0.313 -1.405,0.148 -1.829,0.848 -1.194,1.971 -1.218,4.141 -0.706,6.236 1.076,4.396 1.601,8.859 1.407,13.342 -0.308,7.101 -0.918,14.188 -1.427,21.28 -0.083,1.152 -0.306,2.294 -0.464,3.44 -0.119,0.009 -0.238,0.017 -0.357,0.026 -1.092,-1.565 -1.589,-3.352 -1.816,-5.248 -0.594,-4.964 -1.205,-9.926 -1.802,-14.89 -0.602,-5.003 -1.221,-10.004 -1.758,-15.014 -0.062,-0.575 0.27,-1.25 0.572,-1.794 0.881,-1.586 2.04,-3.047 2.718,-4.709 0.841,-2.063 -0.088,-3.641 -2.256,-4.121 -1.263,-0.279 -2.597,-0.299 -3.901,-0.319 -2.489,-0.038 -4.524,0.753 -5.457,3.316 v 1.909 c 0.42,1.472 1.054,2.922 1.216,4.422 0.383,3.551 0.541,7.126 0.791,10.691 0.546,7.803 1.09,15.607 1.641,23.41 0.139,1.973 0.072,3.998 0.51,5.905 0.684,2.98 1.297,6.071 3.717,8.307 h 1.193 c 1.392,-0.859 2.824,-1.552 4.521,-1.622 1.933,-0.079 3.21,-1.092 3.959,-2.911 0.94,-2.281 2.058,-2.768 4.39,-2.011 0.82,0.267 1.523,0.276 2.223,-0.258 C -2.037,1.499 -1.015,0.754 0,0" /></g><g
           transform="translate(83.9832,112.4452)"
           id="g176"><path
             id="path178"
             style="fill:#231f20;fill-opacity:1;fill-rule:nonzero;stroke:none"
             d="m 0,0 c -0.789,-2.752 -1.432,-4.994 -2.149,-7.494 1.776,0.35 3.304,0.374 4.357,1.823 0.336,0.463 1.017,0.737 1.595,0.948 1.385,0.506 1.606,1.13 0.431,2.051 C 3.015,-1.718 1.61,-1 0,0" /></g><g
           transform="translate(17.9734,10.3944)"
           id="g180"><path
             id="path182"
             style="fill:#231f20;fill-opacity:1;fill-rule:nonzero;stroke:none"
             d="M 0,0 H -0.543 L -3.49,2.756 V 0.008 H -3.922 V 5.591 H -3.49 V 3.043 l 2.715,2.548 h 0.519 V 5.551 L -3.067,2.916 0,0.032 Z" /></g><g
           transform="translate(20.1712,15.9854)"
           id="g184"><path
             id="path186"
             style="fill:#231f20;fill-opacity:1;fill-rule:nonzero;stroke:none"
             d="M 0,0 3.762,-4.624 V 0 H 4.185 V -5.591 H 4.017 L 0.248,-0.974 V -5.591 H -0.184 V 0 Z" /></g><g
           transform="translate(27.3053,13.1899)"
           id="g188"><path
             id="path190"
             style="fill:#231f20;fill-opacity:1;fill-rule:nonzero;stroke:none"
             d="M 0,0 C 0.008,-1.262 0.807,-2.492 2.396,-2.492 3.994,-2.492 4.8,-1.262 4.8,0 4.8,1.294 4.002,2.484 2.396,2.484 0.791,2.484 -0.008,1.318 0,0 m 5.216,-0.008 c -0.008,-1.469 -0.943,-2.883 -2.82,-2.883 -1.877,0 -2.819,1.421 -2.819,2.899 0,1.501 0.934,2.875 2.819,2.875 1.885,0 2.828,-1.381 2.82,-2.891" /></g><g
           transform="translate(38.1857,15.9854)"
           id="g192"><path
             id="path194"
             style="fill:#231f20;fill-opacity:1;fill-rule:nonzero;stroke:none"
             d="M 0,0 H 0.24 L 1.949,-5.112 3.682,0 H 4.146 L 2.173,-5.607 H 1.709 L 0.823,-2.987 0.12,-0.775 -0.583,-2.971 -1.478,-5.607 H -1.941 L -3.898,0 h 0.455 l 1.726,-5.112 z" /></g><g
           transform="translate(49.858,12.631)"
           id="g196"><path
             id="path198"
             style="fill:#231f20;fill-opacity:1;fill-rule:nonzero;stroke:none"
             d="m 0,0 -2.181,3.346 v 0.008 h 0.504 L 0.216,0.415 2.117,3.354 H 2.62 V 3.346 L 0.431,0 V -2.237 H 0 Z" /></g><g
           transform="translate(54.8835,13.1899)"
           id="g200"><path
             id="path202"
             style="fill:#231f20;fill-opacity:1;fill-rule:nonzero;stroke:none"
             d="M 0,0 C 0.008,-1.262 0.807,-2.492 2.396,-2.492 3.994,-2.492 4.8,-1.262 4.8,0 4.8,1.294 4.002,2.484 2.396,2.484 0.791,2.484 -0.008,1.318 0,0 m 5.216,-0.008 c -0.008,-1.469 -0.943,-2.883 -2.82,-2.883 -1.877,0 -2.819,1.421 -2.819,2.899 0,1.501 0.934,2.875 2.819,2.875 1.885,0 2.828,-1.381 2.82,-2.891" /></g><g
           transform="translate(66.8423,15.9854)"
           id="g204"><path
             id="path206"
             style="fill:#231f20;fill-opacity:1;fill-rule:nonzero;stroke:none"
             d="m 0,0 v -3.474 c 0,-2.924 -4.281,-2.931 -4.281,0 V 0 h 0.423 v -3.474 c 0,-2.405 3.434,-2.397 3.434,0 l 0,3.474 z" /></g><g
           transform="translate(69.8949,12.9182)"
           id="g208"><path
             id="path210"
             style="fill:#231f20;fill-opacity:1;fill-rule:nonzero;stroke:none"
             d="M 0,0 H 1.981 C 2.955,0 3.387,0.551 3.395,1.334 3.403,1.989 2.955,2.668 2.029,2.668 H 0 Z M 4.026,-2.524 H 3.459 L 1.526,-0.407 H 0 v -2.117 h -0.431 v 5.591 h 2.46 c 1.214,0 1.829,-0.87 1.837,-1.741 0.008,-0.91 -0.591,-1.709 -1.813,-1.709 z" /></g><g
           transform="translate(80.1447,15.5862)"
           id="g212"><path
             id="path214"
             style="fill:#231f20;fill-opacity:1;fill-rule:nonzero;stroke:none"
             d="m 0,0 v -2.867 h 2.021 c 1.861,0 1.861,2.867 0,2.867 z m 0,-3.259 v -1.933 h -0.431 v 5.591 h 2.452 c 2.428,0 2.428,-3.658 0,-3.658 z" /></g><g
           transform="translate(86.5602,13.1899)"
           id="g216"><path
             id="path218"
             style="fill:#231f20;fill-opacity:1;fill-rule:nonzero;stroke:none"
             d="M 0,0 C 0.008,-1.262 0.807,-2.492 2.396,-2.492 3.994,-2.492 4.8,-1.262 4.8,0 4.8,1.294 4.002,2.484 2.396,2.484 0.791,2.484 -0.008,1.318 0,0 m 5.216,-0.008 c -0.008,-1.469 -0.943,-2.883 -2.82,-2.883 -1.877,0 -2.819,1.421 -2.819,2.899 0,1.501 0.934,2.875 2.819,2.875 1.885,0 2.828,-1.381 2.82,-2.891" /></g><g
           transform="translate(97.4403,15.9854)"
           id="g220"><path
             id="path222"
             style="fill:#231f20;fill-opacity:1;fill-rule:nonzero;stroke:none"
             d="M 0,0 H 0.24 L 1.949,-5.112 3.682,0 H 4.146 L 2.173,-5.607 H 1.709 L 0.823,-2.987 0.12,-0.775 -0.583,-2.971 -1.478,-5.607 H -1.941 L -3.898,0 h 0.455 l 1.726,-5.112 z" /></g><g
           transform="translate(104.1999,13.4059)"
           id="g224"><path
             id="path226"
             style="fill:#231f20;fill-opacity:1;fill-rule:nonzero;stroke:none"
             d="M 0,0 H 3.275 V -0.392 H 0 V -2.596 H 3.53 V -3.011 H -0.423 V 2.58 H 3.434 V 2.172 H 0 Z" /></g><g
           transform="translate(110.5594,12.9182)"
           id="g228"><path
             id="path230"
             style="fill:#231f20;fill-opacity:1;fill-rule:nonzero;stroke:none"
             d="M 0,0 H 1.981 C 2.955,0 3.387,0.551 3.395,1.334 3.403,1.989 2.955,2.668 2.029,2.668 H 0 Z M 4.026,-2.524 H 3.458 L 1.526,-0.407 H 0 v -2.117 h -0.431 v 5.591 h 2.46 c 1.214,0 1.829,-0.87 1.837,-1.741 0.008,-0.91 -0.591,-1.709 -1.813,-1.709 z" /></g><g
           transform="translate(11.8309,20.4444)"
           id="g232"><path
             id="path234"
             style="fill:#231f20;fill-opacity:1;fill-rule:nonzero;stroke:none"
             d="m 0,0 c 1.879,0 2.087,1.183 2.087,2.922 v 16.283 c 0,1.74 -0.208,2.922 -2.087,2.922 v 0.209 l 7.619,0.696 V 11.968 c 1.427,1.427 3.34,2.679 5.602,2.679 2.366,0 4.383,-1.357 4.383,-4.766 V 2.922 C 17.604,1.183 17.813,0 19.692,0 V -0.208 H 10.333 V 0 c 1.461,0 1.739,1.183 1.739,2.922 v 7.585 c 0,1.705 -0.765,2.401 -1.843,2.401 -1.044,0 -1.914,-0.592 -2.61,-1.253 V 2.922 C 7.619,1.183 7.828,0 9.707,0 V -0.208 H 0 Z" /></g><g
           transform="translate(38.6539,28.4115)"
           id="g236"><path
             id="path238"
             style="fill:#231f20;fill-opacity:1;fill-rule:nonzero;stroke:none"
             d="m 0,0 h 4.697 c 0,1.426 0.035,6.506 -2.192,6.506 C 0.592,6.506 0,2.61 0,0 m -5.671,-0.974 c 0,4.21 3.236,7.654 8.28,7.654 4.453,0 7.307,-2.713 7.48,-6.958 L 0,-0.278 c 0.035,-4.593 1.809,-7.411 4.975,-7.411 2.262,0 3.827,1.462 4.871,2.714 L 10.02,-5.114 C 8.767,-6.645 6.75,-8.558 2.714,-8.558 c -5.532,0 -8.385,3.618 -8.385,7.584" /></g><g
           transform="translate(60.8148,22.3228)"
           id="g240"><path
             id="path242"
             style="fill:#231f20;fill-opacity:1;fill-rule:nonzero;stroke:none"
             d="m 0,0 v 4.975 c -0.522,0.139 -1.148,0.279 -1.67,0.279 -1.809,0 -2.574,-1.253 -2.574,-3.34 0,-1.705 0.522,-3.236 2.017,-3.236 0.731,0 1.497,0.383 2.227,1.322 m -9.915,1.635 c 0,2.958 2.748,4.071 6.123,4.071 1.287,0 2.713,-0.174 3.792,-0.452 v 3.653 c 0,1.983 -0.417,3.688 -2.679,3.688 -1.461,0 -2.366,-0.731 -2.957,-1.531 0.939,-0.452 1.531,-1.461 1.531,-2.47 0,-1.427 -1.149,-2.54 -2.644,-2.54 -1.636,0 -2.505,1.357 -2.505,2.61 0,2.295 2.783,4.105 6.888,4.105 3.654,0 7.898,-1.461 7.898,-5.636 v -7.446 c 0,-0.66 0.348,-0.974 0.904,-0.974 0.871,0 1.67,0.87 2.227,1.705 L 8.837,0.314 C 7.863,-1.078 6.68,-2.435 4.245,-2.435 c -2.158,0 -3.41,1.079 -3.932,2.435 -0.939,-1.287 -2.47,-2.47 -5.114,-2.47 -3.027,0 -5.114,1.531 -5.114,4.105" /></g><g
           transform="translate(80.7841,22.2536)"
           id="g244"><path
             id="path246"
             style="fill:#231f20;fill-opacity:1;fill-rule:nonzero;stroke:none"
             d="m 0,0 v 10.82 c -0.452,0.939 -1.217,1.705 -2.192,1.705 -2.365,0 -2.887,-4.558 -2.887,-7.167 0,-3.653 1.043,-6.298 3.096,-6.298 0.835,0 1.496,0.453 1.983,0.94 m -10.855,5.149 c 0,4.14 2.54,7.689 7.411,7.689 1.635,0 2.714,-0.418 3.444,-0.801 v 5.359 c 0,2.122 -0.904,2.922 -2.783,2.922 v 0.209 l 8.315,0.695 V 1.113 c 0,-1.739 0.209,-2.922 2.087,-2.922 V -2.018 H 0.174 v 1.844 C -0.8,-1.322 -2.296,-2.4 -4.523,-2.4 c -4.035,0 -6.332,3.618 -6.332,7.549" /></g><g
           transform="translate(98.7704,24.6194)"
           id="g248"><path
             id="path250"
             style="fill:#231f20;fill-opacity:1;fill-rule:nonzero;stroke:none"
             d="m 0,0 v 6.506 c 0,1.739 -0.209,3.027 -2.088,3.027 v 0.209 l 7.619,0.695 V -0.627 c 0,-1.704 0.766,-2.4 1.844,-2.4 1.01,0 1.879,0.557 2.61,1.252 v 8.281 c 0,1.739 -0.279,3.027 -1.74,3.027 v 0.209 l 7.272,0.695 V -1.148 c 0,-1.74 0.208,-3.027 2.087,-3.027 v -0.208 h -7.446 v 2.469 C 8.698,-3.445 6.715,-4.766 4.383,-4.766 2.018,-4.766 0,-3.41 0,0" /></g><g
           transform="translate(124.7936,32.691)"
           id="g252"><path
             id="path254"
             style="fill:#231f20;fill-opacity:1;fill-rule:nonzero;stroke:none"
             d="m 0,0 v -9.672 c 0,-2.053 1.183,-2.853 2.227,-2.853 2.33,0 2.852,4.28 2.852,7.098 0,3.965 -1.044,6.367 -3.061,6.367 C 1.113,0.94 0.452,0.487 0,0 m -7.619,-17.918 c 1.878,0 2.087,1.288 2.087,3.027 v 13.326 c 0,1.739 -0.209,3.027 -2.087,3.027 V 1.67 l 7.445,0.696 V 0.139 C 0.8,1.287 2.296,2.4 4.523,2.4 c 4.035,0 6.332,-3.618 6.332,-7.549 0,-4.14 -2.54,-7.689 -7.411,-7.689 -1.636,0 -2.749,0.383 -3.444,0.8 v -3.131 c 0,-1.739 0.626,-2.749 2.435,-2.749 v -0.208 H -7.619 Z" /></g></g></g></g></svg>