<?xml version="1.0" encoding="UTF-8" standalone="no"?>
<svg
   xmlns:dc="http://purl.org/dc/elements/1.1/"
   xmlns:cc="http://creativecommons.org/ns#"
   xmlns:rdf="http://www.w3.org/1999/02/22-rdf-syntax-ns#"
   xmlns:svg="http://www.w3.org/2000/svg"
   xmlns="http://www.w3.org/2000/svg"
   viewBox="0 0 428.57199 404.76132"
   height="404.76132"
   width="428.57199"
   xml:space="preserve"
   id="svg2"
   version="1.1"><metadata
     id="metadata8"><rdf:RDF><cc:Work
         rdf:about=""><dc:format>image/svg+xml</dc:format><dc:type
           rdf:resource="http://purl.org/dc/dcmitype/StillImage" /></cc:Work></rdf:RDF></metadata><defs
     id="defs6"><clipPath
       id="clipPath18"
       clipPathUnits="userSpaceOnUse"><path
         id="path16"
         d="M 0,303.571 H 321.429 V 0 H 0 Z" /></clipPath></defs><g
     transform="matrix(1.3333333,0,0,-1.3333333,0,404.76133)"
     id="g10"><g
       id="g12"><g
         clip-path="url(#clipPath18)"
         id="g14"><g
           transform="translate(188.8061,252.1636)"
           id="g20"><path
             id="path22"
             style="fill:#5e5f5f;fill-opacity:1;fill-rule:nonzero;stroke:none"
             d="m 0,0 c -0.356,-0.144 -0.983,-0.46 -1.421,-1.12 -0.408,-0.615 -0.537,-1.227 -0.499,-2.004 0.044,-0.911 0.213,-1.825 0.16,-2.727 -0.044,-0.75 -0.218,-1.538 -0.538,-2.213 -0.552,-1.167 -1.731,-1.259 -2.802,-1.132 -1.972,0.233 -3.919,0.666 -5.887,0.939 -1.529,0.212 -3.075,0.307 -4.613,0.452 h -0.249 c -0.801,-0.053 -1.694,-0.02 -2.136,-0.826 -0.472,-0.861 0.095,-1.612 0.561,-2.285 1.901,-2.74 4.596,-4.043 7.874,-4.242 0.276,-0.017 0.554,-0.005 0.83,-0.002 1.822,0.02 2.677,-0.723 2.555,-2.531 -0.09,-1.335 -0.41,-2.67 -0.763,-3.968 -2.793,-10.258 -5.528,-20.533 -8.475,-30.746 -1.254,-4.342 -2.983,-8.546 -4.477,-12.82 -0.673,-1.927 -1.31,-3.867 -1.942,-5.809 -1.341,-4.125 -3.799,-7.312 -7.696,-9.338 -1.395,-0.726 -2.748,-1.535 -4.106,-2.331 -1.324,-0.775 -2.349,-1.838 -2.93,-3.277 -0.681,-1.689 -1.337,-3.388 -2.005,-5.082 -0.475,-1.203 -1.029,-2.318 -2.38,-2.804 -0.563,-0.203 -0.556,-0.706 -0.158,-1.058 0.512,-0.452 1.059,-0.967 1.683,-1.171 5.446,-1.775 10.46,-1.184 14.804,3.232 1.589,1.615 2.212,3.555 1.665,5.855 -0.474,1.992 -0.836,4.037 -0.339,6.073 0.231,0.945 0.646,1.882 1.154,2.715 1.377,2.26 2.843,4.467 4.283,6.689 1.201,1.852 2.348,3.746 3.659,5.518 0.492,0.665 1.335,1.125 2.098,1.523 0.857,0.446 1.434,1.119 1.662,1.968 0.536,1.993 1.062,4.005 1.363,6.042 0.59,3.986 0.997,7.999 1.543,11.993 0.118,0.861 0.443,1.71 0.774,2.523 0.666,1.637 1.946,2.437 3.699,2.424 2.331,-0.017 4.483,0.482 6.382,1.92 2.304,1.744 2.872,3.859 1.656,6.49 -0.243,0.525 -0.502,1.051 -0.823,1.531 -0.416,0.621 -0.223,1.042 0.355,1.351 0.534,0.286 1.089,0.535 1.647,0.772 2.258,0.96 4.57,1.809 6.767,2.891 1.888,0.93 3.869,1.244 5.902,1.484 0.738,0.087 1.462,0.281 2.192,0.431 0.748,0.153 1.344,0.451 1.803,0.881 0.73,0.686 0.953,1.605 1.086,2.141 0.112,0.449 0.148,0.835 0.161,1.106 0.027,0.361 0.055,0.723 0.082,1.084 -4.308,1.272 -8.634,2.49 -12.92,3.835 -3.091,0.971 -6.288,1.677 -9.116,3.38 -1.41,0.849 -1.519,1.207 -0.78,2.707 0.535,1.084 1.099,2.171 1.465,3.316 0.22,0.688 0.371,1.43 0.114,2.279 -0.346,1.147 -1.285,1.775 -1.664,2 C 0.84,0.039 0.42,0.02 0,0" /></g><g
           transform="translate(188.7489,153.9694)"
           id="g24"><path
             id="path26"
             style="fill:#5e5f5f;fill-opacity:1;fill-rule:nonzero;stroke:none"
             d="M 0,0 C -0.168,1.173 -0.403,1.551 -0.574,1.772 -1.176,2.549 -2.191,2.869 -3.362,3.049 -4.294,3.192 -5.194,3.628 -6.123,3.683 -6.711,3.718 -7.46,3.445 -7.904,3.049 c -1.65,-1.472 -2.42,-3.489 -3.068,-5.536 -0.209,-0.66 -0.365,-1.389 -0.299,-2.062 0.037,-0.387 0.543,-1.013 0.88,-1.042 2.763,-0.236 4.822,-1.762 6.79,-3.497 0.104,-0.092 0.207,-0.188 0.322,-0.264 0.142,-0.093 0.296,-0.168 0.489,-0.275 0.526,0.66 1.137,1.548 1.678,2.671 0.523,1.086 0.833,2.086 1.023,2.889 C 0.224,-2.31 0.131,-0.911 0,0" /></g><g
           transform="translate(153.2155,121.5767)"
           id="g28"><path
             id="path30"
             style="fill:#5e5f5f;fill-opacity:1;fill-rule:nonzero;stroke:none"
             d="m 0,0 c -0.024,2.75 0.141,4.552 0.358,5.81 0.071,0.412 0.233,1.277 -0.179,2.147 -0.246,0.521 -0.68,0.973 -1.358,1.382 -1.545,0.933 -2.886,2.209 -4.305,3.349 -1.008,0.81 -1.269,0.838 -1.985,-0.271 -1.958,-3.031 -3.413,-6.232 -2.951,-9.987 0.151,-1.223 -0.137,-2.276 -1.061,-3.155 -0.682,-0.648 -0.754,-1.74 -0.257,-2.512 0.488,-0.759 1.399,-1.056 2.332,-0.647 1.22,0.534 2.398,1.16 3.603,1.729 1.322,0.624 1.832,0.461 2.905,-0.534 0.55,-0.51 1.384,-1.237 1.93,-1.12 0.197,0.042 0.342,0.121 0.45,0.226 0.405,0.398 0.253,1.027 0.281,1.952 C -0.226,-1.244 -0.177,-0.683 0,0" /></g><g
           transform="translate(132.154,151.6603)"
           id="g32"><path
             id="path34"
             style="fill:#5e5f5f;fill-opacity:1;fill-rule:nonzero;stroke:none"
             d="m 0,0 c 2.348,-0.131 4.041,-0.309 5.363,-0.512 0.48,-0.073 1.336,-0.213 2.152,0.23 0.489,0.266 0.891,0.712 1.219,1.367 0.688,1.377 1.363,2.76 2.062,4.132 0.637,1.249 -0.032,2.173 -0.764,3.054 -1.889,2.273 -4.352,2.981 -7.195,2.502 -1.643,-0.277 -3.09,-0.139 -4.079,1.432 -0.109,0.173 -0.474,0.319 -0.677,0.275 C -3.573,12.121 -4.433,10.649 -3.839,9.014 -3.421,7.867 -2.842,6.767 -2.23,5.707 -1.669,4.735 -1.892,3.976 -2.597,3.24 -3.01,2.809 -3.488,2.418 -3.81,1.926 -4.032,1.587 -4.221,1.031 -4.089,0.709 c 0.133,-0.325 0.662,-0.635 1.049,-0.68 0.87,-0.1 1.759,-0.031 2.639,-0.031 z" /></g><g
           transform="translate(165.2681,139.9361)"
           id="g36"><path
             id="path38"
             style="fill:#5e5f5f;fill-opacity:1;fill-rule:nonzero;stroke:none"
             d="m 0,0 c 0.501,0 0.786,0.027 1.063,-0.004 2.005,-0.23 2.143,-0.203 2.97,1.641 0.629,1.403 1.415,2.84 1.045,4.442 -0.499,2.165 -1.337,4.21 -2.887,5.871 -0.183,0.196 -0.581,0.29 -0.869,0.273 -2.034,-0.122 -4.067,-0.276 -6.098,-0.44 -0.77,-0.062 -1.537,-0.163 -2.302,-0.272 -0.451,-0.063 -0.94,-0.085 -1.333,-0.283 -1.555,-0.782 -1.624,-1.4 -0.705,-2.539 1.465,-1.818 2.889,-3.73 3.95,-5.797 C -4.19,0.993 -2.705,0.342 -0.833,0.061 -0.486,0.009 -0.132,0.009 0,0" /></g><g
           transform="translate(140.7914,147.6463)"
           id="g40"><path
             id="path42"
             style="fill:#5e5f5f;fill-opacity:1;fill-rule:nonzero;stroke:none"
             d="m 0,0 c 0.254,-0.212 0.514,-0.616 0.822,-0.657 3.248,-0.433 5.957,-2.206 8.864,-3.486 0.965,-0.425 1.915,-0.934 2.927,-1.184 0.556,-0.138 1.346,0.009 1.816,0.337 0.658,0.458 0.531,1.277 0.158,1.927 -1.048,1.829 -1.614,3.767 -1.888,5.872 C 12.381,5.254 11.035,7.006 8.457,7.582 7.466,7.804 6.519,8.247 5.522,8.406 4.973,8.494 4.162,8.403 3.814,8.051 2.296,6.517 1.003,4.817 0.691,2.558 0.582,1.765 0.277,0.998 0,0" /></g><g
           transform="translate(139.075,135.2508)"
           id="g44"><path
             id="path46"
             style="fill:#5e5f5f;fill-opacity:1;fill-rule:nonzero;stroke:none"
             d="M 0,0 C -0.464,0.651 -0.821,1.427 -1.411,1.931 -3.214,3.473 -5.473,4.12 -7.687,4.794 -8.588,5.068 -9.276,4.532 -9.594,3.699 -9.982,2.685 -10.308,1.64 -10.571,0.586 c -0.579,-2.329 -1.609,-4.401 -3.258,-6.163 -0.278,-0.298 -0.518,-0.682 -0.636,-1.069 -0.338,-1.114 0.333,-1.92 1.443,-1.597 1.485,0.433 3.12,0.542 4.24,1.92 0.597,0.734 1.946,0.51 2.89,-0.273 1.587,-1.317 3.539,-0.866 4.204,1.048 0.54,1.554 0.487,2.36 1.384,4.736 0.085,0.225 0.159,0.407 0.208,0.525 z" /></g><g
           transform="translate(192.5263,205.5589)"
           id="g48"><path
             id="path50"
             style="fill:#5e5f5f;fill-opacity:1;fill-rule:nonzero;stroke:none"
             d="M 0,0 C 0.096,0.882 0.12,1.638 0.118,2.225 0.116,2.964 -0.02,3.45 0.022,4.034 0.109,5.228 -0.593,5.837 -1.517,6.316 -2.098,6.617 -2.714,7.163 -3.262,7.105 -3.653,7.065 -3.926,6.176 -4.307,5.711 -5.812,3.881 -7.446,2.189 -9.523,0.988 -9.666,0.906 -9.863,0.843 -9.93,0.716 -10.147,0.3 -10.517,-0.183 -10.439,-0.56 c 0.058,-0.286 0.703,-0.619 1.101,-0.638 2.08,-0.1 4.102,-0.437 6.034,-1.221 0.757,-0.308 1.419,-0.335 1.953,-0.084 0.731,0.344 1.064,1.232 1.135,1.414 0.17,0.435 0.21,0.826 0.216,1.089" /></g><g
           transform="translate(177.954,146.862)"
           id="g52"><path
             id="path54"
             style="fill:#5e5f5f;fill-opacity:1;fill-rule:nonzero;stroke:none"
             d="m 0,0 c -0.656,-0.372 -1.236,-0.615 -1.713,-0.988 -1.213,-0.95 -2.352,-1.996 -3.578,-2.928 -0.694,-0.527 -0.854,-1.137 -0.725,-1.936 0.469,-2.914 2.309,-4.995 4.279,-6.976 0.172,-0.174 0.924,-0.068 1.15,0.161 0.883,0.896 1.733,1.844 2.459,2.87 0.598,0.844 1.25,1.407 2.323,1.363 0.58,-0.024 0.969,0.171 1.2,0.787 0.38,1.016 0.908,1.976 1.299,2.989 0.101,0.263 0.037,0.794 -0.148,0.927 -1.244,0.896 -2.51,1.77 -3.832,2.543 C 1.887,-0.704 0.949,-0.407 0,0" /></g><g
           transform="translate(140.2518,145.0219)"
           id="g56"><path
             id="path58"
             style="fill:#5e5f5f;fill-opacity:1;fill-rule:nonzero;stroke:none"
             d="M 0,0 C -0.095,1.174 -0.115,2.167 -0.28,3.136 -0.353,3.566 -0.625,4.177 -0.964,4.313 -3.348,5.268 -5.746,6.219 -8.411,5.974 -9.464,5.877 -9.894,5.53 -9.487,4.585 c 0.883,-2.051 -0.155,-3.432 -1.382,-4.804 -0.643,-0.718 -1.414,-1.475 -1.037,-2.481 0.405,-1.082 1.583,-0.819 2.487,-1.002 1.394,-0.282 2.799,-0.536 4.163,-0.93 1.235,-0.356 2.197,-0.061 3.044,0.836 0.338,0.357 0.662,0.736 1.045,1.039 C -0.198,-1.99 0.306,-1.068 0,0" /></g><g
           transform="translate(167.7906,165.1193)"
           id="g60"><path
             id="path62"
             style="fill:#5e5f5f;fill-opacity:1;fill-rule:nonzero;stroke:none"
             d="m 0,0 c 0,-0.211 -0.001,-0.422 0,-0.633 0.008,-1.348 0.367,-1.668 1.586,-1.173 1.681,0.683 2.988,0.139 4.23,-0.973 0.489,-0.438 1.036,-0.835 1.615,-1.142 0.833,-0.444 1.42,-0.209 1.686,0.716 0.221,0.766 0.224,1.592 0.397,2.376 0.239,1.081 0.443,2.188 0.851,3.208 0.457,1.143 0.2,2.407 -0.474,3.43 -1.676,2.544 -4,2.428 -6.474,1.782 C 3.013,7.486 2.602,7.037 2.387,6.641 1.253,4.556 -0.116,2.542 0,0" /></g><g
           transform="translate(179.5009,174.5122)"
           id="g64"><path
             id="path66"
             style="fill:#5e5f5f;fill-opacity:1;fill-rule:nonzero;stroke:none"
             d="M 0,0 C 0.103,0.046 0.499,0.092 0.649,0.308 1.445,1.458 2.197,2.639 2.927,3.832 3.441,4.67 3.224,5.521 2.835,6.344 2.385,7.297 1.992,8.287 1.442,9.18 1.222,9.538 0.637,9.904 0.238,9.882 -2.147,9.751 -4.527,9.517 -6.906,9.294 -7.321,9.255 -7.748,9.156 -8.128,8.99 -9.1,8.565 -9.309,7.972 -8.776,7.068 -7.705,5.254 -6.603,3.458 -5.495,1.666 -4.964,0.806 -4.206,0.327 -3.155,0.287 -2.171,0.249 -1.191,0.113 0,0" /></g><g
           transform="translate(180.4,184.6818)"
           id="g68"><path
             id="path70"
             style="fill:#5e5f5f;fill-opacity:1;fill-rule:nonzero;stroke:none"
             d="m 0,0 c 0.324,-0.15 0.645,-0.307 0.973,-0.447 0.163,-0.07 0.323,-0.186 0.51,-0.142 0.247,0.059 0.573,0.129 0.763,0.432 0.149,0.239 0.197,0.88 0.196,1.27 C 2.439,2.617 2.408,4.102 2.36,5.571 2.353,5.814 2.227,5.981 2.12,6.108 2.053,6.187 1.922,6.179 1.813,6.12 1.018,5.699 0.322,5.717 -0.342,5.9 -0.42,5.922 -0.595,5.803 -0.655,5.674 -0.984,4.964 -1.398,4.317 -1.432,3.419 -1.452,2.886 -1.609,2.251 -1.738,1.659 -1.904,0.902 -1.789,0.542 -1.456,0.437 -0.973,0.285 -0.49,0.131 -0.008,-0.023 Z" /></g><g
           transform="translate(190.6863,200.4171)"
           id="g72"><path
             id="path74"
             style="fill:#5e5f5f;fill-opacity:1;fill-rule:nonzero;stroke:none"
             d="m 0,0 c -2.698,0.599 -5.444,1.215 -8.193,1.814 -0.954,0.208 -1.391,-0.125 -1.238,-1.077 0.422,-2.626 0.9,-5.244 1.407,-7.855 0.191,-0.985 0.716,-1.542 1.884,-1.226 1.318,0.357 2.676,0.563 4.013,0.853 1.239,0.269 1.92,1.081 2.16,2.298 0.204,1.033 0.398,1.978 1.444,2.657 0.95,0.618 0.646,1.794 -0.421,2.197 C 0.728,-0.215 0.387,-0.123 0,0" /></g><g
           transform="translate(119.1875,150.8448)"
           id="g76"><path
             id="path78"
             style="fill:#5e5f5f;fill-opacity:1;fill-rule:nonzero;stroke:none"
             d="m 0,0 c 0.151,-2.223 0.229,-4.395 0.465,-6.55 0.247,-2.249 0.315,-2.248 2.541,-2.196 1.266,0.029 2.536,0.034 3.794,0.158 0.424,0.042 1.012,0.32 1.187,0.662 0.797,1.555 1.602,3.128 2.155,4.778 0.549,1.635 0.089,2.409 -1.599,2.677 C 6.231,-0.103 3.882,0.038 1.545,0.234 1.109,0.271 0.657,0.106 0,0" /></g><g
           transform="translate(150.0812,136.5453)"
           id="g80"><path
             id="path82"
             style="fill:#5e5f5f;fill-opacity:1;fill-rule:nonzero;stroke:none"
             d="M 0,0 C 0.124,-0.012 1.346,-0.118 1.801,0.594 2.231,1.267 1.836,2.339 1.37,2.8 0.429,3.731 -0.53,4.645 -1.483,5.563 -2.54,6.581 -3.582,7.615 -4.673,8.594 -4.883,8.782 -5.382,8.908 -5.598,8.79 -7.5,7.745 -9.105,6.352 -10.171,4.433 c -0.2,-0.36 -0.278,-0.882 -0.197,-1.287 0.239,-1.204 0.603,-2.384 0.88,-3.582 0.132,-0.569 0.37,-0.766 0.964,-0.582 1.665,0.516 3.339,1.008 5.02,1.469 0.473,0.13 0.898,0.025 1.123,0.013 C -1.362,0.41 -0.542,0.186 0,0" /></g><g
           transform="translate(175.2436,150.8987)"
           id="g84"><path
             id="path86"
             style="fill:#5e5f5f;fill-opacity:1;fill-rule:nonzero;stroke:none"
             d="m 0,0 c 0.101,2.715 0.35,4.108 0.571,4.882 0.202,0.707 0.2,1.03 0.199,1.676 -0.003,1.43 -0.273,1.726 -1.695,1.811 -1.471,0.088 -2.521,0.963 -3.602,1.8 -0.39,0.302 -0.748,0.666 -1.18,0.883 -0.273,0.137 -0.747,0.182 -0.964,0.031 -0.216,-0.151 -0.348,-0.622 -0.294,-0.912 0.079,-0.427 0.267,-0.902 0.563,-1.208 0.974,-1.004 1.039,-2.149 0.543,-3.327 -0.977,-2.318 -0.545,-4.184 1.395,-5.847 0.564,-0.484 0.674,-1.494 1.001,-2.259 0.219,-0.512 0.343,-1.122 0.705,-1.504 0.887,-0.934 2.348,-0.459 2.653,0.797 0.05,0.205 0.116,0.413 0.12,0.621 C 0.029,-1.818 0.02,-1.079 0.02,-0.34 0.014,-0.226 0.007,-0.113 0,0" /></g><g
           transform="translate(181.5188,126.0252)"
           id="g88"><path
             id="path90"
             style="fill:#5e5f5f;fill-opacity:1;fill-rule:nonzero;stroke:none"
             d="M 0,0 C -0.412,1.702 -0.779,3.194 -1.133,4.69 -1.278,5.307 -1.398,5.93 -1.523,6.551 -1.748,7.668 -2.179,7.8 -3.124,7.162 -4.598,6.166 -6.073,5.157 -7.63,4.304 -8.506,3.823 -9.536,3.605 -10.516,3.336 -11.69,3.013 -12.052,2.244 -11.389,1.209 c 0.639,-0.998 1.379,-1.922 1.416,-3.202 0.016,-0.523 0.418,-0.727 0.915,-0.448 1.427,0.8 2.89,0.79 4.488,0.544 1.142,-0.176 2.406,0.051 3.536,0.375 C -0.578,-1.39 -0.333,-0.521 0,0" /></g><g
           transform="translate(188.7475,179.9571)"
           id="g92"><path
             id="path94"
             style="fill:#5e5f5f;fill-opacity:1;fill-rule:nonzero;stroke:none"
             d="M 0,0 C 0.111,0.406 0.296,1.001 0.6,1.687 1.463,3.636 2.094,3.72 2.226,4.818 2.333,5.713 2.164,6.657 1.689,7.666 c -0.446,0.948 -0.224,1.841 0.32,2.678 0.106,0.163 0.199,0.335 0.283,0.51 0.279,0.579 0.525,1.269 -0.168,1.645 C 1.879,12.632 1.136,12.14 0.74,11.812 -0.577,10.72 -1.675,9.388 -3.715,9.28 -4.625,9.232 -4.936,8.332 -4.622,7.165 c 0.407,-1.51 0.913,-3.005 1.214,-4.53 0.205,-1.04 0.09,-2.121 0.198,-3.18 0.079,-0.781 0.215,-1.61 1.392,-1.652 0.318,-0.011 0.593,0.05 0.825,0.185 0.477,0.277 0.64,0.797 0.848,1.449 C -0.07,-0.328 -0.026,-0.13 0,0" /></g><g
           transform="translate(132.6911,113.2002)"
           id="g96"><path
             id="path98"
             style="fill:#5e5f5f;fill-opacity:1;fill-rule:nonzero;stroke:none"
             d="m 0,0 c 0.347,1.439 0.721,2.567 0.999,3.333 0.308,0.844 0.491,1.743 0.912,2.536 0.816,1.54 0.82,2.625 -0.292,3.984 -0.588,0.719 -0.896,1.454 -0.862,2.395 0.02,0.544 -0.118,1.12 -0.307,1.638 -0.299,0.82 -0.942,1.199 -1.828,1.084 C -2.236,14.859 -2.466,14.239 -2.623,13.495 -2.986,11.779 -3.333,10.054 -3.831,8.376 -4.136,7.351 -4.824,6.44 -5.136,5.416 -5.233,5.098 -5.281,4.849 -5.295,4.614 c 0,0 -0.016,-0.278 0.022,-0.57 0.072,-0.553 1.059,-3.951 3.594,-4.278 C -1.339,-0.278 -0.751,-0.295 0,0" /></g><g
           transform="translate(120.2745,140.5541)"
           id="g100"><path
             id="path102"
             style="fill:#5e5f5f;fill-opacity:1;fill-rule:nonzero;stroke:none"
             d="m 0,0 c 0.334,-2.12 0.706,-4.369 1.038,-6.624 0.282,-1.914 0.489,-3.84 0.804,-5.748 0.048,-0.289 0.473,-0.573 0.789,-0.724 0.092,-0.044 0.604,0.392 0.592,0.588 -0.159,2.686 1.818,4.307 3.054,6.302 0.57,0.919 1.091,1.883 1.509,2.879 0.419,1.001 0.043,1.785 -0.884,2.411 C 6.566,-0.689 6.26,-0.373 6.034,-0.036 5.315,1.039 4.927,1.146 3.653,0.791 2.517,0.475 1.346,0.286 0,0" /></g><g
           transform="translate(178.979,159.472)"
           id="g104"><path
             id="path106"
             style="fill:#5e5f5f;fill-opacity:1;fill-rule:nonzero;stroke:none"
             d="M 0,0 C 0.729,0.116 1.455,0.3 2.188,0.334 3.296,0.384 4.422,0.434 5.516,0.295 7.08,0.095 7.813,0.663 7.482,2.204 7.024,4.34 6.529,6.451 6.838,8.662 6.904,9.138 6.653,9.413 6.126,9.141 4.521,8.316 2.926,7.472 1.31,6.67 0.24,6.138 -0.326,5.372 -0.402,4.126 -0.464,3.122 -0.815,2.137 -1.004,1.137 -1.152,0.358 -0.893,-0.114 0,0" /></g><g
           transform="translate(119.3846,119.8481)"
           id="g108"><path
             id="path110"
             style="fill:#5e5f5f;fill-opacity:1;fill-rule:nonzero;stroke:none"
             d="M 0,0 C 1.817,-0.911 3.643,-1.87 5.52,-2.715 5.776,-2.83 6.549,-2.453 6.643,-2.162 7.45,0.338 8.187,2.863 8.874,5.399 9.102,6.241 8.552,6.425 7.811,6.294 5.829,5.941 3.843,5.608 1.754,5.249 1.257,3.76 0.671,2.006 0,0" /></g><g
           transform="translate(179.2972,167.3031)"
           id="g112"><path
             id="path114"
             style="fill:#5e5f5f;fill-opacity:1;fill-rule:nonzero;stroke:none"
             d="M 0,0 C 0.814,0.323 1.458,0.557 2.085,0.83 3.502,1.448 4.916,2.071 6.316,2.725 6.614,2.865 7.008,3.103 7.081,3.371 7.617,5.325 8.083,7.298 8.569,9.258 6.32,9.852 4.558,9.448 3.506,7.992 2.648,6.805 1.485,5.84 0.62,4.658 0.162,4.031 -0.062,3.167 -0.183,2.378 -0.286,1.706 -0.09,0.988 0,0" /></g><g
           transform="translate(119.4538,152.6349)"
           id="g116"><path
             id="path118"
             style="fill:#5e5f5f;fill-opacity:1;fill-rule:nonzero;stroke:none"
             d="M 0,0 C 1.901,0.262 3.798,0.105 5.235,0.844 6.535,1.513 7.357,3.141 8.324,4.396 8.48,4.598 8.385,5.11 8.245,5.401 7.609,6.724 6.915,8.02 6.2,9.406 2.951,7.127 0.48,4.41 0,0" /></g><g
           transform="translate(143.0266,116.4598)"
           id="g120"><path
             id="path122"
             style="fill:#5e5f5f;fill-opacity:1;fill-rule:nonzero;stroke:none"
             d="M 0,0 C -1.244,0.696 -2.118,2.32 -4.072,1.822 -4.438,1.729 -4.914,1.903 -5.293,2.063 -6.11,2.409 -6.527,2.002 -6.718,1.318 -7.15,-0.232 -7.559,-1.791 -7.882,-3.367 -7.963,-3.76 -7.801,-4.314 -7.551,-4.644 -6.97,-5.411 -6.267,-6.087 -5.562,-6.857 -3.673,-4.528 -1.873,-2.31 0,0" /></g><g
           transform="translate(133.1793,165.9259)"
           id="g124"><path
             id="path126"
             style="fill:#5e5f5f;fill-opacity:1;fill-rule:nonzero;stroke:none"
             d="m 0,0 c -0.013,-0.544 0.033,-1.649 0.722,-2.069 0.244,-0.148 0.518,-0.227 1.032,-0.133 1.76,0.319 3.365,0.243 4.998,-0.611 1,-0.524 1.618,0.046 1.743,1.195 0.126,1.149 0.357,2.286 0.496,3.434 C 9.034,2.167 8.997,2.412 8.858,2.565 8.614,2.833 8.151,2.781 7.954,2.758 3.162,2.205 1.774,2.206 0.557,0.791 0.408,0.618 0.203,0.356 0,0" /></g><g
           transform="translate(153.5944,134.4595)"
           id="g128"><path
             id="path130"
             style="fill:#5e5f5f;fill-opacity:1;fill-rule:nonzero;stroke:none"
             d="M 0,0 C 2.004,0.09 3.864,0.15 5.718,0.282 5.972,0.3 6.398,0.664 6.406,0.88 6.442,1.889 6.423,2.911 6.28,3.908 6.239,4.196 5.671,4.673 5.433,4.625 3.515,4.238 2.283,5.55 0.85,6.361 0.669,6.463 0.541,6.675 0.354,6.75 -0.129,6.943 -0.632,7.088 -1.128,7.253 -1.196,6.656 -1.291,6.06 -1.316,5.462 -1.323,5.281 -1.175,5.048 -1.03,4.915 0.238,3.748 0.42,2.326 0.006,0.745 -0.036,0.588 0,0.41 0,0" /></g><g
           transform="translate(167.6393,139.103)"
           id="g132"><path
             id="path134"
             style="fill:#5e5f5f;fill-opacity:1;fill-rule:nonzero;stroke:none"
             d="m 0,0 c 1.525,-2.737 1.344,-5.63 1.527,-8.52 1.143,0.026 2.125,0.171 2.869,1.1 0.295,0.368 0.72,0.698 1.155,0.875 0.876,0.358 1.039,0.985 0.641,1.692 -0.842,1.492 -1.753,2.949 -2.71,4.37 C 3.294,-0.205 2.776,-0.058 2.393,-0.021 1.662,0.051 0.919,0 0,0" /></g><g
           transform="translate(137.7453,122.3704)"
           id="g136"><path
             id="path138"
             style="fill:#5e5f5f;fill-opacity:1;fill-rule:nonzero;stroke:none"
             d="M 0,0 C 1.228,1.84 2.229,3.34 3.344,5.012 1.954,5.172 0.824,5.513 -0.292,4.694 -0.648,4.433 -1.214,4.391 -1.689,4.371 -2.828,4.324 -3.137,3.917 -2.489,2.963 -1.816,1.973 -0.951,1.115 0,0" /></g><g
           transform="translate(141.5942,128.9683)"
           id="g140"><path
             id="path142"
             style="fill:#5e5f5f;fill-opacity:1;fill-rule:nonzero;stroke:none"
             d="M 0,0 C 1.065,2.44 2.063,4.726 3.061,7.011 2.943,7.081 2.824,7.151 2.705,7.221 1.298,5.645 -0.295,4.211 -1.265,2.286 -1.741,1.342 -1.107,0.718 0,0" /></g><g
           transform="translate(151.4445,169.11)"
           id="g144"><path
             id="path146"
             style="fill:#5e5f5f;fill-opacity:1;fill-rule:nonzero;stroke:none"
             d="m 0,0 c -2.819,-0.219 -5.455,-0.425 -8.149,-0.634 -0.016,-1.346 0.488,-1.698 1.32,-1.694 1.602,0.008 3.206,-0.032 4.807,-0.121 C -0.922,-2.51 -0.334,-1.772 0,0" /></g><g
           transform="translate(181.9467,131.0146)"
           id="g148"><path
             id="path150"
             style="fill:#5e5f5f;fill-opacity:1;fill-rule:nonzero;stroke:none"
             d="M 0,0 C 0.237,1.618 0.481,3.235 0.708,4.854 0.815,5.618 0.37,5.755 -0.18,5.465 -1.102,4.978 -1.411,4.075 -1.227,3.132 -1.016,2.052 -0.595,1.012 -0.266,-0.045 -0.177,-0.03 -0.089,-0.015 0,0" /></g><g
           transform="translate(136.2298,109.2086)"
           id="g152"><path
             id="path154"
             style="fill:#5e5f5f;fill-opacity:1;fill-rule:nonzero;stroke:none"
             d="m 0,0 c -1.318,-0.623 -2.636,-1.247 -3.947,-1.867 0.969,-0.489 1.443,-0.484 2.12,0.087 0.664,0.56 1.288,1.146 1.929,1.72 z" /></g><g
           transform="translate(165.3866,123.0095)"
           id="g156"><path
             id="path158"
             style="fill:#5e5f5f;fill-opacity:1;fill-rule:nonzero;stroke:none"
             d="m 0,0 c 0.485,0.126 0.753,0.225 1.03,0.262 2.002,0.268 2.128,0.33 2.441,2.422 0.237,1.592 0.618,3.258 -0.164,4.802 -1.056,2.088 -2.409,3.969 -4.348,5.278 -0.229,0.154 -0.64,0.151 -0.915,0.061 -1.937,-0.634 -3.863,-1.301 -5.786,-1.978 -0.729,-0.256 -1.445,-0.552 -2.157,-0.855 -0.419,-0.178 -0.887,-0.323 -1.216,-0.623 -1.297,-1.189 -1.2,-1.838 -0.01,-2.773 1.9,-1.491 3.784,-3.088 5.359,-4.935 1.447,-1.696 3.057,-1.989 4.944,-1.807 C -0.473,-0.113 -0.13,-0.024 0,0" /></g><g
           transform="translate(142.5672,161.58)"
           id="g160"><path
             id="path162"
             style="fill:#5e5f5f;fill-opacity:1;fill-rule:nonzero;stroke:none"
             d="M 0,0 C 0.521,-0.149 1.061,-0.25 1.559,-0.455 2.312,-0.764 3.076,-1.079 3.761,-1.511 4.739,-2.127 5.403,-1.977 5.66,-0.849 6.016,0.714 6.34,2.271 7.229,3.647 7.421,3.943 7.339,4.203 6.904,4.186 5.581,4.133 4.259,4.066 2.935,4.032 2.059,4.009 1.445,3.675 1.009,2.87 0.657,2.22 0.119,1.674 -0.316,1.067 -0.656,0.595 -0.629,0.201 0,0" /></g><g
           transform="translate(158.7108,152.2095)"
           id="g164"><path
             id="path166"
             style="fill:#5e5f5f;fill-opacity:1;fill-rule:nonzero;stroke:none"
             d="M 0,0 C 2.752,0.598 5.33,1.159 7.909,1.72 7.855,1.883 7.801,2.046 7.748,2.209 5.332,2.526 2.856,3.119 0.569,2.774 -0.552,2.605 -0.451,1.565 0,0" /></g><g
           transform="translate(172.7635,122.5922)"
           id="g168"><path
             id="path170"
             style="fill:#5e5f5f;fill-opacity:1;fill-rule:nonzero;stroke:none"
             d="M 0,0 C 3.926,0.075 6.604,0.16 7.126,0.263 7.201,0.278 7.523,0.346 7.662,0.192 7.72,0.128 7.738,0.013 7.688,-0.185 7.618,-0.271 7.516,-0.346 7.484,-0.444 6.621,-3.093 6.828,-6.04 5.243,-8.492 5.171,-8.604 5.202,-8.785 5.193,-8.935 c -0.082,-1.346 -0.164,-2.691 -0.244,-4.038 -0.348,-5.907 -0.819,-11.81 -1,-17.722 -0.126,-4.109 0.036,-8.237 0.282,-12.344 0.151,-2.528 0.74,-5.027 1.059,-7.549 0.269,-2.118 0.053,-4.196 -1.018,-6.093 -0.188,-0.333 -0.674,-0.781 -0.953,-0.737 -2.534,0.404 -4.978,1.092 -6.947,2.874 -1.386,1.255 -1.773,2.719 -0.867,4.348 0.699,1.258 1.744,2.32 2.58,3.507 0.346,0.491 0.734,1.065 0.785,1.63 0.308,3.392 0.665,6.791 0.729,10.193 0.055,2.948 -0.153,5.913 -0.428,8.853 -0.452,4.842 -1.043,9.671 -1.612,14.501 -0.034,0.287 -0.337,0.71 -0.59,0.773 -0.668,0.169 -1.376,0.174 -2.155,0.253 -0.18,-1.842 -0.353,-3.626 -0.527,-5.409 -0.498,-5.103 -0.996,-10.207 -1.495,-15.31 -0.491,-5.029 -1.003,-10.056 -1.446,-15.089 -0.053,-0.607 0.177,-1.285 0.43,-1.863 0.88,-2.009 2.033,-3.924 2.693,-5.998 0.696,-2.19 -0.446,-3.929 -2.701,-4.331 -1.446,-0.257 -2.994,-0.243 -4.454,-0.042 -2.029,0.28 -2.952,1.844 -3.472,3.675 v 2.25 c 0.593,2.073 1.176,4.119 1.266,6.325 0.259,6.391 0.679,12.777 1.044,19.164 0.262,4.594 0.588,9.186 0.784,13.783 0.12,2.805 0.727,5.649 -0.723,8.37 -0.111,0.21 -0.294,0.596 -0.147,0.947 0.34,0.807 2.014,0.333 3.701,1.046 1.498,0.633 1.698,1.649 2.734,2.499 C -6.356,0.469 -4.247,1.164 0,0" /></g><g
           transform="translate(137.3868,109.1172)"
           id="g172"><path
             id="path174"
             style="fill:#5e5f5f;fill-opacity:1;fill-rule:nonzero;stroke:none"
             d="m 0,0 v -0.225 c -0.639,-0.677 -1.347,-1.302 -1.9,-2.043 -0.654,-0.875 -1.46,-1.783 -1.698,-2.795 -0.633,-2.688 -1.031,-5.434 -1.462,-8.166 -1.06,-6.714 -1.567,-13.439 -0.596,-20.226 0.229,-1.596 0.526,-2.948 2.027,-3.808 0.437,-0.249 0.767,-0.71 1.097,-1.115 1.629,-2.002 1.44,-3.731 -0.882,-4.842 -1.923,-0.921 -4.091,-1.322 -6.134,-2.004 -0.883,-0.295 -1.324,0.139 -1.724,0.799 -1.126,1.858 -1.148,3.904 -0.665,5.879 1.014,4.145 1.509,8.353 1.326,12.579 -0.291,6.694 -0.866,13.376 -1.346,20.062 -0.078,1.086 -0.288,2.163 -0.437,3.244 -0.112,0.008 -0.224,0.016 -0.336,0.024 -1.03,-1.475 -1.498,-3.16 -1.712,-4.948 -0.561,-4.68 -1.136,-9.358 -1.699,-14.037 -0.568,-4.717 -1.152,-9.433 -1.658,-14.156 -0.058,-0.542 0.254,-1.178 0.539,-1.691 0.831,-1.495 1.924,-2.873 2.563,-4.44 0.792,-1.945 -0.083,-3.432 -2.127,-3.885 -1.191,-0.263 -2.448,-0.282 -3.678,-0.301 -2.346,-0.036 -4.265,0.71 -5.144,3.126 v 1.8 c 0.395,1.388 0.993,2.755 1.146,4.17 0.361,3.347 0.51,6.718 0.745,10.079 0.515,7.357 1.028,14.714 1.548,22.07 0.131,1.861 0.067,3.77 0.48,5.568 0.646,2.809 1.223,5.723 3.505,7.831 h 1.124 c 1.313,-0.81 2.663,-1.463 4.262,-1.529 1.824,-0.074 3.027,-1.029 3.734,-2.744 0.886,-2.151 1.939,-2.61 4.138,-1.896 0.773,0.251 1.436,0.259 2.096,-0.244 C -1.921,1.413 -0.957,0.711 0,0" /></g><g
           transform="translate(156.8532,125.3329)"
           id="g176"><path
             id="path178"
             style="fill:#5e5f5f;fill-opacity:1;fill-rule:nonzero;stroke:none"
             d="m 0,0 c -0.744,-2.594 -1.35,-4.708 -2.026,-7.065 1.675,0.33 3.115,0.353 4.107,1.719 0.317,0.436 0.959,0.695 1.504,0.894 1.306,0.477 1.514,1.065 0.407,1.932 C 2.842,-1.619 1.518,-0.942 0,0" /></g><g
           transform="translate(30.8227,136.6418)"
           id="g180"><path
             id="path182"
             style="fill:#5e5f5f;fill-opacity:1;fill-rule:nonzero;stroke:none"
             d="m 0,0 c 0.314,-2.269 1.512,-2.577 3.617,-2.287 l 20.322,2.804 c 2.105,0.29 3.135,0.905 2.821,3.176 l 0.252,0.035 2.015,-8.381 -13.675,-1.889 c 1.82,-1.377 3.913,-3.491 4.302,-6.31 0.382,-2.776 -0.933,-5.36 -4.973,-5.918 l -8.625,-1.189 c -2.104,-0.292 -3.177,-0.909 -2.863,-3.182 l -0.252,-0.034 -1.504,10.897 0.252,0.034 c 0.261,-1.892 1.473,-2.283 3.577,-1.992 l 9.215,1.27 c 2.188,0.302 3.022,1.405 2.808,2.962 -0.21,1.514 -1.304,2.607 -2.358,3.403 L 4.412,-8.051 C 2.308,-8.343 1.236,-8.962 1.549,-11.234 l -0.251,-0.035 -1.55,11.233 z" /></g><g
           transform="translate(48.1547,103.4574)"
           id="g184"><path
             id="path186"
             style="fill:#5e5f5f;fill-opacity:1;fill-rule:nonzero;stroke:none"
             d="m 0,0 2.69,-6.058 c 1.808,0.85 6.998,3.296 5.808,5.975 C 7.498,2.169 3.14,1.301 0,0 M -3.575,5.014 C 1.201,7.135 6.455,5.145 8.783,-0.097 10.819,-4.679 9.433,-9.198 4.709,-11.435 L -0.328,-0.1 c -5.125,-2.276 -7.485,-5.649 -5.898,-9.221 1.19,-2.677 3.825,-3.692 5.806,-4.067 l -0.052,-0.302 c -2.356,0.485 -5.63,1.683 -7.578,6.071 -2.588,5.823 0.087,10.683 4.475,12.633" /></g><g
           transform="translate(58.5222,72.2727)"
           id="g188"><path
             id="path190"
             style="fill:#5e5f5f;fill-opacity:1;fill-rule:nonzero;stroke:none"
             d="M 0,0 4.482,3.579 C 4.171,4.311 3.78,5.138 3.25,5.8 1.818,7.593 -0.018,7.65 -2.143,5.952 -3.903,4.549 -4.734,2.798 -3.541,1.303 -2.773,0.34 -1.545,-0.038 0,0 M -6.054,10.441 C -3.298,12.643 -0.162,10.959 2.33,7.838 3.337,6.576 4.224,5.059 4.748,3.79 l 3.419,2.729 c 1.992,1.59 3.214,3.329 1.439,5.554 C 8.414,13.568 6.967,13.88 5.719,13.808 6.043,12.653 5.57,11.407 4.674,10.69 3.446,9.71 1.655,9.91 0.648,11.172 c -1.14,1.428 -0.554,3.146 0.575,4.046 2.09,1.671 5.798,0.5 8.768,-3.22 2.623,-3.287 4.231,-8.09 0.414,-11.137 L 3.2,-4.893 c -0.764,-0.61 -0.711,-1.22 -0.314,-1.718 0.743,-0.93 2.408,-0.904 3.51,-0.786 l 0.033,-0.246 c -1.991,-0.231 -4.187,-0.136 -5.91,2.022 -1.483,1.86 -1.449,3.791 -0.432,5.31 -1.944,-0.085 -4.213,0.441 -6.202,2.931 -2.252,2.821 -2.328,5.913 0.061,7.821" /></g><g
           transform="translate(80.1681,52.0959)"
           id="g192"><path
             id="path194"
             style="fill:#5e5f5f;fill-opacity:1;fill-rule:nonzero;stroke:none"
             d="M 0,0 7.442,9.864 C 7.922,11.205 7.748,12.88 6.527,13.801 4.086,15.642 0.169,12.213 -1.978,9.364 -4.586,5.908 -5.6,2.309 -3.293,0.57 -2.243,-0.225 -1.089,-0.244 0,0 m -6.98,12.819 c 3.095,4.102 8.211,5.455 12.721,2.053 1.593,-1.202 2.413,-2.513 2.724,-3.652 l 4.424,5.865 c 1.484,1.968 1.062,3.242 -0.769,4.625 l 0.155,0.204 7.834,-4.848 L 5.147,-2.765 C 3.869,-4.463 3.551,-5.659 5.382,-7.04 L 5.229,-7.244 -1.45,-2.205 -0.044,-0.34 C -1.921,-0.785 -4.172,-0.736 -6.342,0.9 -10.207,3.816 -9.87,8.987 -6.98,12.819" /></g><g
           transform="translate(108.0361,39.6431)"
           id="g196"><path
             id="path198"
             style="fill:#5e5f5f;fill-opacity:1;fill-rule:nonzero;stroke:none"
             d="m 0,0 2.408,7.881 c 0.619,2.029 0.533,3.345 -1.66,4.015 l 0.074,0.242 8.411,-1.68 -3.869,-12.672 c -0.646,-2.112 -0.01,-3.372 1.494,-3.832 1.422,-0.434 2.872,0.1 4.091,0.75 l 2.952,9.667 C 14.522,6.4 14.394,7.727 12.566,8.284 L 12.64,8.529 20.768,6.934 16.589,-6.753 c -0.621,-2.031 -0.534,-3.344 1.659,-4.015 l -0.073,-0.242 -8.043,2.456 0.904,2.964 C 8.945,-6.772 6.097,-7.81 3.294,-6.955 0.654,-6.148 -1.19,-3.897 0,0" /></g><g
           transform="translate(142.8097,41.6601)"
           id="g200"><path
             id="path202"
             style="fill:#5e5f5f;fill-opacity:1;fill-rule:nonzero;stroke:none"
             d="m 0,0 -0.733,-11.278 c -0.159,-2.416 1.288,-3.743 2.9,-3.849 3.051,-0.198 4.383,4.57 4.625,8.3 C 7.091,-2.25 5.992,1.142 3.109,1.331 1.753,1.417 0.731,0.76 0,0 m -9.918,-20.939 c 2.289,-0.149 2.835,1.051 2.973,3.17 l 1.089,16.744 c 0.138,2.119 -0.249,3.379 -2.537,3.528 l 0.017,0.255 8.449,0.301 -0.184,-2.796 c 1.283,1.363 3.194,2.644 5.908,2.468 4.834,-0.316 7.434,-4.827 7.119,-9.66 -0.328,-5.045 -3.78,-9.034 -9.503,-8.662 -2.077,0.136 -3.482,0.781 -4.329,1.515 L -1.198,-18.4 c -0.136,-2.119 0.647,-3.149 2.894,-3.296 L 1.68,-21.95 -9.935,-21.193 Z" /></g><g
           transform="translate(36.218,148.9509)"
           id="g204"><path
             id="path206"
             style="fill:none;stroke:#5e5f5f;stroke-width:3;stroke-linecap:butt;stroke-linejoin:miter;stroke-miterlimit:10;stroke-dasharray:none;stroke-opacity:1"
             d="m 0,0 c -0.143,2.476 -0.216,4.971 -0.216,7.482 0,70.377 57.051,127.429 127.428,127.429 70.377,0 127.428,-57.052 127.428,-127.429 0,-66.653 -51.175,-121.354 -116.377,-126.955" /></g></g></g></g></svg>