<?xml version="1.0" encoding="UTF-8" standalone="no"?>
<svg
   xmlns:dc="http://purl.org/dc/elements/1.1/"
   xmlns:cc="http://creativecommons.org/ns#"
   xmlns:rdf="http://www.w3.org/1999/02/22-rdf-syntax-ns#"
   xmlns:svg="http://www.w3.org/2000/svg"
   xmlns="http://www.w3.org/2000/svg"
   viewBox="0 0 428.57199 404.76132"
   height="404.76132"
   width="428.57199"
   xml:space="preserve"
   id="svg2"
   version="1.1"><metadata
     id="metadata8"><rdf:RDF><cc:Work
         rdf:about=""><dc:format>image/svg+xml</dc:format><dc:type
           rdf:resource="http://purl.org/dc/dcmitype/StillImage" /></cc:Work></rdf:RDF></metadata><defs
     id="defs6"><clipPath
       id="clipPath18"
       clipPathUnits="userSpaceOnUse"><path
         id="path16"
         d="M 0,303.571 H 321.429 V 0 H 0 Z" /></clipPath></defs><g
     transform="matrix(1.3333333,0,0,-1.3333333,0,404.76133)"
     id="g10"><g
       id="g12"><g
         clip-path="url(#clipPath18)"
         id="g14"><g
           transform="translate(176.0173,243.0666)"
           id="g20"><path
             id="path22"
             style="fill:#5e5f5f;fill-opacity:1;fill-rule:nonzero;stroke:none"
             d="m 0,0 c -0.31,-0.125 -0.859,-0.402 -1.241,-0.978 -0.356,-0.537 -0.469,-1.072 -0.436,-1.751 0.038,-0.795 0.186,-1.593 0.14,-2.381 -0.039,-0.655 -0.191,-1.344 -0.47,-1.933 -0.482,-1.019 -1.512,-1.1 -2.448,-0.989 -1.721,0.204 -3.422,0.583 -5.14,0.821 -1.336,0.185 -2.686,0.268 -4.029,0.395 l -0.218,-0.001 c -0.7,-0.046 -1.48,-0.017 -1.866,-0.721 -0.412,-0.752 0.084,-1.408 0.491,-1.995 1.66,-2.393 4.013,-3.532 6.877,-3.706 0.241,-0.014 0.483,-0.004 0.724,-10e-4 1.592,0.018 2.338,-0.632 2.232,-2.211 -0.079,-1.166 -0.358,-2.332 -0.667,-3.465 -2.439,-8.959 -4.827,-17.932 -7.402,-26.852 -1.094,-3.792 -2.605,-7.464 -3.909,-11.197 -0.588,-1.683 -1.145,-3.377 -1.696,-5.073 -1.172,-3.602 -3.318,-6.386 -6.721,-8.156 -1.219,-0.634 -2.401,-1.34 -3.587,-2.035 -1.156,-0.677 -2.051,-1.605 -2.558,-2.863 -0.595,-1.474 -1.168,-2.958 -1.752,-4.437 -0.415,-1.051 -0.899,-2.025 -2.078,-2.45 -0.492,-0.177 -0.486,-0.616 -0.138,-0.923 0.447,-0.395 0.924,-0.845 1.469,-1.023 4.757,-1.55 9.136,-1.034 12.93,2.823 1.387,1.41 1.931,3.105 1.454,5.113 -0.414,1.739 -0.73,3.525 -0.296,5.304 0.201,0.825 0.564,1.643 1.008,2.371 1.202,1.974 2.483,3.901 3.741,5.842 1.048,1.618 2.05,3.272 3.195,4.819 0.43,0.581 1.165,0.983 1.832,1.33 0.749,0.39 1.253,0.978 1.452,1.719 0.468,1.741 0.927,3.497 1.19,5.277 0.515,3.481 0.871,6.986 1.348,10.474 0.102,0.752 0.387,1.493 0.676,2.204 0.581,1.429 1.699,2.128 3.23,2.117 2.036,-0.015 3.915,0.421 5.574,1.676 2.012,1.524 2.508,3.371 1.446,5.668 -0.212,0.459 -0.438,0.919 -0.719,1.337 -0.363,0.543 -0.194,0.911 0.311,1.181 0.466,0.249 0.951,0.467 1.438,0.674 1.972,0.838 3.991,1.579 5.91,2.524 1.649,0.812 3.379,1.087 5.155,1.296 0.644,0.076 1.277,0.246 1.914,0.377 0.653,0.134 1.174,0.394 1.574,0.77 0.638,0.599 0.833,1.401 0.949,1.869 0.097,0.392 0.13,0.729 0.14,0.966 0.024,0.316 0.048,0.631 0.072,0.947 -3.763,1.111 -7.54,2.175 -11.283,3.35 -2.7,0.847 -5.492,1.464 -7.962,2.951 -1.231,0.742 -1.327,1.055 -0.681,2.364 0.466,0.947 0.959,1.897 1.279,2.897 0.192,0.6 0.324,1.249 0.1,1.99 C 2.251,-0.693 1.432,-0.145 1.1,0.051 0.733,0.034 0.367,0.017 0,0" /></g><g
           transform="translate(175.9673,157.3081)"
           id="g24"><path
             id="path26"
             style="fill:#5e5f5f;fill-opacity:1;fill-rule:nonzero;stroke:none"
             d="m 0,0 c -0.147,1.025 -0.352,1.354 -0.502,1.548 -0.525,0.678 -1.412,0.958 -2.434,1.115 -0.814,0.125 -1.6,0.506 -2.411,0.554 -0.514,0.03 -1.168,-0.209 -1.556,-0.554 -1.441,-1.285 -2.114,-3.047 -2.68,-4.835 -0.182,-0.576 -0.318,-1.213 -0.261,-1.801 0.033,-0.338 0.474,-0.885 0.769,-0.91 2.413,-0.206 4.211,-1.539 5.93,-3.054 0.091,-0.08 0.181,-0.164 0.281,-0.231 0.124,-0.081 0.259,-0.146 0.428,-0.24 0.458,0.576 0.992,1.352 1.464,2.333 0.458,0.949 0.729,1.822 0.894,2.523 C 0.195,-2.017 0.114,-0.796 0,0" /></g><g
           transform="translate(144.934,129.0178)"
           id="g28"><path
             id="path30"
             style="fill:#5e5f5f;fill-opacity:1;fill-rule:nonzero;stroke:none"
             d="m 0,0 c -0.021,2.402 0.124,3.976 0.313,5.074 0.062,0.36 0.203,1.116 -0.156,1.876 -0.215,0.454 -0.595,0.849 -1.186,1.206 -1.35,0.815 -2.521,1.929 -3.76,2.925 -0.881,0.708 -1.109,0.732 -1.734,-0.237 -1.71,-2.647 -2.981,-5.442 -2.577,-8.721 0.132,-1.069 -0.12,-1.989 -0.927,-2.756 -0.596,-0.566 -0.659,-1.52 -0.225,-2.194 0.426,-0.663 1.222,-0.922 2.038,-0.565 1.064,0.466 2.094,1.013 3.146,1.51 1.155,0.545 1.6,0.403 2.537,-0.466 0.481,-0.446 1.209,-1.081 1.685,-0.979 0.172,0.037 0.3,0.106 0.393,0.198 0.355,0.347 0.221,0.897 0.246,1.705 C -0.197,-1.086 -0.154,-0.596 0,0" /></g><g
           transform="translate(126.5398,155.2915)"
           id="g32"><path
             id="path34"
             style="fill:#5e5f5f;fill-opacity:1;fill-rule:nonzero;stroke:none"
             d="m 0,0 c 2.05,-0.114 3.53,-0.27 4.683,-0.447 0.42,-0.064 1.167,-0.186 1.88,0.201 0.428,0.232 0.779,0.621 1.065,1.193 C 8.229,2.15 8.818,3.358 9.429,4.556 9.985,5.647 9.401,6.454 8.761,7.224 7.112,9.209 4.961,9.827 2.478,9.409 1.042,9.167 -0.221,9.287 -1.085,10.66 -1.18,10.81 -1.499,10.938 -1.676,10.9 -3.12,10.586 -3.872,9.3 -3.353,7.873 -2.988,6.871 -2.482,5.91 -1.948,4.984 -1.458,4.135 -1.652,3.473 -2.268,2.83 -2.629,2.453 -3.046,2.112 -3.328,1.682 -3.522,1.386 -3.686,0.9 -3.571,0.619 -3.455,0.335 -2.993,0.064 -2.655,0.026 -1.895,-0.062 -1.119,-0.002 -0.35,-0.002 -0.233,-0.001 -0.117,-0.001 0,0" /></g><g
           transform="translate(155.4602,145.0521)"
           id="g36"><path
             id="path38"
             style="fill:#5e5f5f;fill-opacity:1;fill-rule:nonzero;stroke:none"
             d="M 0,0 C 0.438,0 0.686,0.024 0.928,-0.004 2.68,-0.205 2.8,-0.181 3.522,1.43 4.071,2.655 4.758,3.91 4.435,5.309 3.999,7.2 3.267,8.986 1.914,10.436 1.754,10.608 1.406,10.69 1.154,10.675 -0.622,10.569 -2.397,10.434 -4.171,10.291 -4.843,10.237 -5.513,10.148 -6.181,10.054 -6.575,9.998 -7.003,9.979 -7.346,9.806 -8.704,9.123 -8.764,8.584 -7.962,7.589 -6.682,6 -5.438,4.331 -4.511,2.526 -3.66,0.867 -2.362,0.299 -0.727,0.053 -0.424,0.008 -0.115,0.008 0,0" /></g><g
           transform="translate(134.0833,151.7858)"
           id="g40"><path
             id="path42"
             style="fill:#5e5f5f;fill-opacity:1;fill-rule:nonzero;stroke:none"
             d="m 0,0 c 0.222,-0.185 0.449,-0.538 0.718,-0.574 2.837,-0.378 5.203,-1.926 7.741,-3.044 0.843,-0.371 1.673,-0.816 2.557,-1.035 0.486,-0.12 1.176,0.009 1.586,0.295 0.574,0.4 0.463,1.115 0.138,1.683 -0.915,1.597 -1.41,3.29 -1.649,5.129 C 10.813,4.588 9.637,6.118 7.386,6.622 6.52,6.815 5.693,7.202 4.823,7.342 4.343,7.419 3.635,7.339 3.331,7.031 2.006,5.692 0.876,4.207 0.603,2.234 0.508,1.541 0.241,0.872 0,0" /></g><g
           transform="translate(132.5843,140.9601)"
           id="g44"><path
             id="path46"
             style="fill:#5e5f5f;fill-opacity:1;fill-rule:nonzero;stroke:none"
             d="M 0,0 C -0.405,0.569 -0.717,1.246 -1.232,1.686 -2.807,3.033 -4.78,3.598 -6.713,4.187 -7.5,4.426 -8.101,3.958 -8.379,3.231 -8.718,2.345 -9.003,1.433 -9.232,0.512 c -0.506,-2.035 -1.405,-3.844 -2.845,-5.383 -0.244,-0.26 -0.453,-0.596 -0.556,-0.934 -0.295,-0.972 0.291,-1.677 1.26,-1.394 1.297,0.378 2.725,0.474 3.704,1.677 0.521,0.641 1.699,0.445 2.523,-0.239 1.386,-1.15 3.091,-0.756 3.672,0.915 0.472,1.358 0.425,2.061 1.209,4.137 0.074,0.196 0.139,0.355 0.181,0.458 C -0.056,-0.167 -0.028,-0.084 0,0" /></g><g
           transform="translate(179.2663,202.3641)"
           id="g48"><path
             id="path50"
             style="fill:#5e5f5f;fill-opacity:1;fill-rule:nonzero;stroke:none"
             d="M 0,0 C 0.084,0.771 0.105,1.43 0.103,1.943 0.102,2.589 -0.017,3.013 0.02,3.523 0.095,4.565 -0.518,5.098 -1.325,5.516 -1.832,5.779 -2.37,6.256 -2.849,6.206 -3.191,6.17 -3.428,5.393 -3.762,4.988 -5.076,3.39 -6.503,1.912 -8.317,0.863 -8.442,0.791 -8.614,0.736 -8.672,0.625 -8.862,0.262 -9.185,-0.16 -9.117,-0.49 c 0.051,-0.249 0.614,-0.54 0.962,-0.557 1.816,-0.087 3.582,-0.381 5.27,-1.066 0.661,-0.269 1.239,-0.292 1.705,-0.073 0.638,0.3 0.929,1.076 0.991,1.235 C -0.04,-0.571 -0.005,-0.23 0,0" /></g><g
           transform="translate(166.5395,151.1009)"
           id="g52"><path
             id="path54"
             style="fill:#5e5f5f;fill-opacity:1;fill-rule:nonzero;stroke:none"
             d="m 0,0 c -0.573,-0.325 -1.079,-0.537 -1.496,-0.863 -1.06,-0.83 -2.054,-1.743 -3.125,-2.557 -0.606,-0.461 -0.746,-0.993 -0.633,-1.691 0.41,-2.544 2.017,-4.362 3.737,-6.093 0.15,-0.151 0.807,-0.059 1.004,0.141 0.771,0.783 1.514,1.611 2.148,2.507 0.522,0.737 1.092,1.229 2.029,1.19 0.506,-0.021 0.846,0.149 1.047,0.687 0.333,0.888 0.794,1.727 1.135,2.611 0.088,0.229 0.033,0.693 -0.129,0.81 -1.086,0.782 -2.192,1.545 -3.346,2.22 C 1.648,-0.615 0.829,-0.355 0,0" /></g><g
           transform="translate(133.612,149.4938)"
           id="g56"><path
             id="path58"
             style="fill:#5e5f5f;fill-opacity:1;fill-rule:nonzero;stroke:none"
             d="M 0,0 C -0.083,1.025 -0.101,1.893 -0.245,2.739 -0.308,3.114 -0.546,3.648 -0.842,3.767 -2.924,4.601 -5.018,5.431 -7.346,5.217 -8.265,5.133 -8.641,4.83 -8.286,4.005 -7.514,2.213 -8.421,1.007 -9.493,-0.191 c -0.561,-0.627 -1.235,-1.289 -0.906,-2.167 0.354,-0.945 1.383,-0.715 2.173,-0.875 1.217,-0.247 2.445,-0.468 3.636,-0.812 1.078,-0.312 1.918,-0.054 2.659,0.729 0.295,0.312 0.578,0.644 0.912,0.909 C -0.173,-1.738 0.267,-0.933 0,0" /></g><g
           transform="translate(157.6632,167.0459)"
           id="g60"><path
             id="path62"
             style="fill:#5e5f5f;fill-opacity:1;fill-rule:nonzero;stroke:none"
             d="m 0,0 c 0,-0.184 -0.001,-0.368 0,-0.553 0.007,-1.177 0.321,-1.456 1.385,-1.024 1.468,0.596 2.609,0.121 3.694,-0.85 0.427,-0.383 0.906,-0.729 1.411,-0.998 0.728,-0.387 1.24,-0.182 1.473,0.626 0.192,0.669 0.195,1.39 0.346,2.075 C 8.517,0.22 8.696,1.187 9.052,2.078 9.451,3.076 9.227,4.18 8.638,5.074 7.174,7.295 5.145,7.194 2.984,6.63 2.631,6.538 2.272,6.145 2.085,5.8 1.095,3.979 -0.102,2.22 0,0" /></g><g
           transform="translate(167.8905,175.2493)"
           id="g64"><path
             id="path66"
             style="fill:#5e5f5f;fill-opacity:1;fill-rule:nonzero;stroke:none"
             d="M 0,0 C 0.09,0.04 0.436,0.08 0.567,0.269 1.262,1.273 1.919,2.305 2.557,3.346 3.005,4.079 2.816,4.821 2.476,5.541 2.083,6.373 1.74,7.238 1.26,8.017 1.067,8.33 0.556,8.65 0.208,8.631 -1.875,8.516 -3.954,8.312 -6.032,8.117 -6.394,8.083 -6.767,7.997 -7.099,7.852 -7.947,7.48 -8.13,6.962 -7.664,6.173 -6.729,4.589 -5.767,3.02 -4.799,1.455 -4.335,0.704 -3.673,0.286 -2.755,0.251 -1.896,0.218 -1.04,0.099 0,0" /></g><g
           transform="translate(168.6757,184.131)"
           id="g68"><path
             id="path70"
             style="fill:#5e5f5f;fill-opacity:1;fill-rule:nonzero;stroke:none"
             d="m 0,0 c 0.283,-0.131 0.564,-0.268 0.849,-0.391 0.143,-0.061 0.283,-0.162 0.446,-0.123 0.216,0.052 0.501,0.112 0.666,0.377 C 2.092,0.072 2.133,0.631 2.133,0.972 2.13,2.286 2.103,3.583 2.062,4.866 2.055,5.078 1.945,5.224 1.852,5.334 1.793,5.404 1.679,5.396 1.583,5.345 0.889,4.978 0.281,4.993 -0.299,5.153 -0.367,5.172 -0.52,5.068 -0.572,4.955 -0.859,4.335 -1.221,3.77 -1.25,2.986 -1.268,2.52 -1.405,1.966 -1.518,1.449 -1.663,0.788 -1.562,0.473 -1.271,0.382 -0.849,0.249 -0.428,0.114 -0.007,-0.02 Z" /></g><g
           transform="translate(177.6594,197.8735)"
           id="g72"><path
             id="path74"
             style="fill:#5e5f5f;fill-opacity:1;fill-rule:nonzero;stroke:none"
             d="m 0,0 c -2.356,0.523 -4.754,1.061 -7.156,1.584 -0.832,0.182 -1.215,-0.109 -1.081,-0.94 0.369,-2.294 0.786,-4.58 1.229,-6.86 0.167,-0.861 0.626,-1.348 1.646,-1.071 1.151,0.312 2.337,0.491 3.504,0.745 1.082,0.235 1.678,0.944 1.887,2.007 0.178,0.902 0.348,1.727 1.261,2.32 0.83,0.54 0.564,1.567 -0.368,1.919 C 0.636,-0.187 0.338,-0.108 0,0" /></g><g
           transform="translate(115.2154,154.5792)"
           id="g76"><path
             id="path78"
             style="fill:#5e5f5f;fill-opacity:1;fill-rule:nonzero;stroke:none"
             d="m 0,0 c 0.132,-1.941 0.2,-3.839 0.406,-5.72 0.216,-1.965 0.275,-1.964 2.219,-1.919 1.106,0.026 2.215,0.03 3.313,0.139 0.371,0.037 0.885,0.279 1.038,0.578 0.695,1.358 1.398,2.732 1.882,4.172 0.479,1.429 0.078,2.105 -1.397,2.339 C 5.442,-0.09 3.39,0.034 1.349,0.204 0.969,0.236 0.574,0.093 0,0" /></g><g
           transform="translate(142.1966,142.0907)"
           id="g80"><path
             id="path82"
             style="fill:#5e5f5f;fill-opacity:1;fill-rule:nonzero;stroke:none"
             d="M 0,0 C 0.108,-0.011 1.175,-0.103 1.573,0.519 1.949,1.107 1.604,2.043 1.197,2.445 0.375,3.258 -0.463,4.057 -1.295,4.859 -2.218,5.747 -3.128,6.651 -4.082,7.506 -4.265,7.67 -4.701,7.78 -4.889,7.676 -6.55,6.764 -7.952,5.548 -8.883,3.871 -9.057,3.557 -9.125,3.101 -9.055,2.748 c 0.208,-1.052 0.527,-2.082 0.769,-3.129 0.114,-0.497 0.323,-0.669 0.842,-0.508 1.454,0.451 2.915,0.88 4.383,1.283 0.414,0.113 0.785,0.022 0.982,0.011 C -1.189,0.358 -0.473,0.163 0,0" /></g><g
           transform="translate(164.1723,154.6263)"
           id="g84"><path
             id="path86"
             style="fill:#5e5f5f;fill-opacity:1;fill-rule:nonzero;stroke:none"
             d="M 0,0 C 0.088,2.372 0.306,3.588 0.499,4.264 0.675,4.881 0.674,5.163 0.672,5.728 0.67,6.977 0.434,7.235 -0.808,7.309 -2.092,7.386 -3.009,8.15 -3.954,8.882 -4.294,9.145 -4.607,9.463 -4.985,9.652 -5.223,9.772 -5.636,9.812 -5.826,9.679 -6.015,9.548 -6.13,9.136 -6.083,8.883 -6.014,8.51 -5.85,8.095 -5.591,7.828 -4.741,6.951 -4.684,5.951 -5.117,4.922 -5.97,2.898 -5.593,1.268 -3.899,-0.184 c 0.493,-0.423 0.589,-1.305 0.875,-1.973 0.191,-0.447 0.299,-0.981 0.615,-1.313 0.775,-0.816 2.051,-0.401 2.318,0.696 0.043,0.179 0.1,0.36 0.104,0.542 0.012,0.645 0.005,1.29 0.005,1.935 C 0.012,-0.198 0.006,-0.099 0,0" /></g><g
           transform="translate(169.6528,132.9029)"
           id="g88"><path
             id="path90"
             style="fill:#5e5f5f;fill-opacity:1;fill-rule:nonzero;stroke:none"
             d="M 0,0 C -0.36,1.486 -0.681,2.79 -0.989,4.096 -1.117,4.635 -1.221,5.179 -1.33,5.721 -1.526,6.697 -1.903,6.812 -2.729,6.255 -4.016,5.385 -5.304,4.504 -6.663,3.759 -7.429,3.339 -8.329,3.149 -9.184,2.914 -10.209,2.632 -10.525,1.96 -9.947,1.056 c 0.559,-0.871 1.205,-1.679 1.237,-2.796 0.014,-0.457 0.365,-0.635 0.799,-0.392 1.246,0.699 2.524,0.69 3.92,0.475 0.997,-0.153 2.101,0.045 3.088,0.328 C -0.504,-1.214 -0.291,-0.455 0,0" /></g><g
           transform="translate(175.9661,180.0046)"
           id="g92"><path
             id="path94"
             style="fill:#5e5f5f;fill-opacity:1;fill-rule:nonzero;stroke:none"
             d="M 0,0 C 0.097,0.354 0.259,0.874 0.524,1.474 1.278,3.176 1.828,3.249 1.944,4.208 2.038,4.989 1.89,5.814 1.475,6.695 1.086,7.523 1.279,8.303 1.754,9.034 1.847,9.177 1.928,9.327 2.002,9.479 2.246,9.985 2.46,10.588 1.855,10.916 1.641,11.033 0.992,10.603 0.647,10.316 -0.504,9.363 -1.463,8.199 -3.244,8.105 -4.039,8.063 -4.311,7.277 -4.036,6.258 c 0.355,-1.319 0.797,-2.625 1.059,-3.957 0.18,-0.908 0.08,-1.852 0.174,-2.777 0.069,-0.682 0.188,-1.406 1.215,-1.443 0.278,-0.01 0.518,0.044 0.721,0.162 0.417,0.241 0.559,0.696 0.74,1.266 C -0.061,-0.286 -0.023,-0.114 0,0" /></g><g
           transform="translate(127.0088,121.7021)"
           id="g96"><path
             id="path98"
             style="fill:#5e5f5f;fill-opacity:1;fill-rule:nonzero;stroke:none"
             d="M 0,0 C 0.303,1.257 0.63,2.242 0.873,2.911 1.141,3.648 1.302,4.433 1.669,5.126 2.382,6.471 2.385,7.419 1.414,8.605 0.9,9.233 0.631,9.875 0.661,10.697 0.679,11.172 0.558,11.675 0.393,12.127 0.132,12.844 -0.43,13.175 -1.204,13.074 -1.953,12.977 -2.153,12.436 -2.291,11.786 -2.608,10.288 -2.91,8.781 -3.346,7.315 -3.612,6.42 -4.213,5.624 -4.486,4.73 -4.57,4.452 -4.612,4.235 -4.624,4.03 c 0,0 -0.014,-0.243 0.019,-0.498 C -4.542,3.049 -3.68,0.081 -1.467,-0.205 -1.169,-0.243 -0.656,-0.258 0,0" /></g><g
           transform="translate(116.1647,145.5918)"
           id="g100"><path
             id="path102"
             style="fill:#5e5f5f;fill-opacity:1;fill-rule:nonzero;stroke:none"
             d="m 0,0 c 0.292,-1.851 0.616,-3.816 0.906,-5.785 0.247,-1.672 0.428,-3.353 0.703,-5.02 0.042,-0.252 0.413,-0.501 0.688,-0.633 0.081,-0.038 0.528,0.343 0.518,0.514 -0.139,2.346 1.587,3.762 2.667,5.504 C 5.98,-4.617 6.435,-3.776 6.8,-2.905 7.166,-2.032 6.838,-1.347 6.028,-0.8 5.734,-0.602 5.468,-0.326 5.27,-0.031 4.642,0.908 4.303,1.001 3.19,0.691 2.198,0.415 1.176,0.25 0,0" /></g><g
           transform="translate(167.4347,162.1138)"
           id="g104"><path
             id="path106"
             style="fill:#5e5f5f;fill-opacity:1;fill-rule:nonzero;stroke:none"
             d="M 0,0 C 0.637,0.101 1.271,0.262 1.911,0.292 2.878,0.336 3.862,0.379 4.818,0.257 6.183,0.083 6.823,0.579 6.534,1.925 6.135,3.791 5.703,5.634 5.972,7.565 6.03,7.981 5.811,8.221 5.35,7.984 3.949,7.263 2.555,6.526 1.144,5.825 0.21,5.361 -0.285,4.691 -0.352,3.604 -0.405,2.726 -0.712,1.866 -0.877,0.993 -1.006,0.313 -0.78,-0.099 0,0" /></g><g
           transform="translate(115.3876,127.5081)"
           id="g108"><path
             id="path110"
             style="fill:#5e5f5f;fill-opacity:1;fill-rule:nonzero;stroke:none"
             d="M 0,0 C 1.587,-0.795 3.181,-1.634 4.821,-2.371 5.044,-2.472 5.72,-2.143 5.802,-1.888 6.507,0.295 7.15,2.5 7.75,4.715 7.949,5.45 7.469,5.612 6.822,5.497 5.091,5.189 3.356,4.898 1.532,4.584 1.098,3.284 0.586,1.752 0,0" /></g><g
           transform="translate(167.7126,168.9532)"
           id="g112"><path
             id="path114"
             style="fill:#5e5f5f;fill-opacity:1;fill-rule:nonzero;stroke:none"
             d="M 0,0 C 0.711,0.282 1.274,0.486 1.821,0.725 3.058,1.264 4.294,1.809 5.516,2.38 5.777,2.502 6.12,2.71 6.185,2.944 6.653,4.65 7.059,6.374 7.483,8.085 5.52,8.604 3.981,8.251 3.062,6.98 2.313,5.944 1.297,5.101 0.542,4.068 0.141,3.52 -0.054,2.766 -0.159,2.077 -0.249,1.49 -0.079,0.863 0,0" /></g><g
           transform="translate(115.448,156.1426)"
           id="g116"><path
             id="path118"
             style="fill:#5e5f5f;fill-opacity:1;fill-rule:nonzero;stroke:none"
             d="M 0,0 C 1.66,0.228 3.317,0.091 4.572,0.737 5.707,1.322 6.425,2.743 7.27,3.839 7.406,4.015 7.323,4.462 7.201,4.717 6.645,5.873 6.039,7.004 5.415,8.215 2.577,6.224 0.419,3.852 0,0" /></g><g
           transform="translate(136.0355,124.5489)"
           id="g120"><path
             id="path122"
             style="fill:#5e5f5f;fill-opacity:1;fill-rule:nonzero;stroke:none"
             d="m 0,0 c -1.086,0.608 -1.85,2.026 -3.556,1.592 -0.32,-0.082 -0.736,0.07 -1.067,0.21 -0.713,0.302 -1.078,-0.053 -1.244,-0.651 -0.378,-1.353 -0.734,-2.716 -1.017,-4.091 -0.071,-0.344 0.071,-0.828 0.289,-1.116 0.508,-0.67 1.121,-1.26 1.738,-1.933 C -3.208,-3.955 -1.636,-2.017 0,0" /></g><g
           transform="translate(127.4352,167.7504)"
           id="g124"><path
             id="path126"
             style="fill:#5e5f5f;fill-opacity:1;fill-rule:nonzero;stroke:none"
             d="M 0,0 C -0.011,-0.475 0.029,-1.44 0.631,-1.807 0.843,-1.936 1.083,-2.005 1.532,-1.923 3.069,-1.644 4.47,-1.71 5.897,-2.457 6.77,-2.914 7.31,-2.416 7.42,-1.413 7.53,-0.41 7.731,0.584 7.853,1.586 7.89,1.893 7.858,2.106 7.736,2.24 7.523,2.474 7.119,2.428 6.947,2.409 2.762,1.926 1.549,1.926 0.486,0.691 0.356,0.54 0.178,0.311 0,0" /></g><g
           transform="translate(145.2649,140.269)"
           id="g128"><path
             id="path130"
             style="fill:#5e5f5f;fill-opacity:1;fill-rule:nonzero;stroke:none"
             d="M 0,0 C 1.751,0.078 3.375,0.131 4.994,0.246 5.215,0.262 5.588,0.58 5.595,0.768 5.626,1.65 5.609,2.542 5.485,3.413 5.449,3.664 4.953,4.081 4.745,4.039 3.069,3.701 1.994,4.847 0.742,5.555 0.584,5.645 0.473,5.83 0.31,5.895 -0.113,6.064 -0.552,6.191 -0.985,6.334 -1.044,5.813 -1.127,5.293 -1.149,4.77 -1.155,4.612 -1.027,4.409 -0.899,4.292 0.208,3.273 0.367,2.032 0.005,0.651 -0.031,0.513 0,0.358 0,0" /></g><g
           transform="translate(157.5311,144.3244)"
           id="g132"><path
             id="path134"
             style="fill:#5e5f5f;fill-opacity:1;fill-rule:nonzero;stroke:none"
             d="m 0,0 c 1.332,-2.391 1.174,-4.917 1.334,-7.441 0.998,0.023 1.856,0.149 2.505,0.96 0.258,0.322 0.629,0.61 1.009,0.765 0.765,0.313 0.907,0.86 0.559,1.477 -0.735,1.304 -1.53,2.576 -2.366,3.817 C 2.877,-0.179 2.424,-0.051 2.09,-0.018 1.452,0.044 0.803,0 0,0" /></g><g
           transform="translate(131.4229,129.711)"
           id="g136"><path
             id="path138"
             style="fill:#5e5f5f;fill-opacity:1;fill-rule:nonzero;stroke:none"
             d="M 0,0 C 1.072,1.607 1.946,2.917 2.921,4.378 1.706,4.517 0.719,4.815 -0.255,4.1 -0.566,3.871 -1.061,3.835 -1.476,3.818 -2.47,3.777 -2.74,3.421 -2.174,2.588 -1.586,1.723 -0.83,0.973 0,0" /></g><g
           transform="translate(134.7844,135.4733)"
           id="g140"><path
             id="path142"
             style="fill:#5e5f5f;fill-opacity:1;fill-rule:nonzero;stroke:none"
             d="M 0,0 C 0.93,2.131 1.802,4.127 2.674,6.124 2.57,6.184 2.466,6.245 2.363,6.306 1.133,4.93 -0.258,3.678 -1.105,1.996 -1.521,1.172 -0.967,0.628 0,0" /></g><g
           transform="translate(143.3873,170.5313)"
           id="g144"><path
             id="path146"
             style="fill:#5e5f5f;fill-opacity:1;fill-rule:nonzero;stroke:none"
             d="m 0,0 c -2.462,-0.192 -4.765,-0.371 -7.117,-0.554 -0.014,-1.175 0.426,-1.482 1.152,-1.479 1.4,0.007 2.801,-0.028 4.199,-0.106 C -0.805,-2.192 -0.291,-1.547 0,0" /></g><g
           transform="translate(170.0266,137.2604)"
           id="g148"><path
             id="path150"
             style="fill:#5e5f5f;fill-opacity:1;fill-rule:nonzero;stroke:none"
             d="M 0,0 C 0.207,1.413 0.42,2.825 0.618,4.239 0.712,4.907 0.323,5.026 -0.157,4.773 -0.962,4.347 -1.232,3.559 -1.071,2.735 -0.887,1.792 -0.52,0.884 -0.232,-0.039 -0.155,-0.026 -0.077,-0.013 0,0" /></g><g
           transform="translate(130.0994,118.216)"
           id="g152"><path
             id="path154"
             style="fill:#5e5f5f;fill-opacity:1;fill-rule:nonzero;stroke:none"
             d="m 0,0 c -1.151,-0.544 -2.302,-1.089 -3.447,-1.631 0.846,-0.427 1.26,-0.423 1.852,0.077 0.579,0.489 1.124,1 1.684,1.502 z" /></g><g
           transform="translate(155.5636,130.2691)"
           id="g156"><path
             id="path158"
             style="fill:#5e5f5f;fill-opacity:1;fill-rule:nonzero;stroke:none"
             d="M 0,0 C 0.424,0.11 0.658,0.196 0.9,0.229 2.648,0.462 2.758,0.517 3.031,2.344 3.239,3.735 3.571,5.19 2.888,6.538 1.966,8.362 0.785,10.004 -0.909,11.147 -1.11,11.282 -1.468,11.28 -1.708,11.201 -3.4,10.647 -5.082,10.064 -6.762,9.473 -7.398,9.249 -8.023,8.991 -8.645,8.727 -9.011,8.571 -9.42,8.445 -9.707,8.182 -10.84,7.144 -10.756,6.577 -9.716,5.761 c 1.659,-1.303 3.305,-2.697 4.68,-4.31 1.264,-1.482 2.67,-1.738 4.318,-1.579 C -0.413,-0.098 -0.113,-0.021 0,0" /></g><g
           transform="translate(135.6342,163.9549)"
           id="g160"><path
             id="path162"
             style="fill:#5e5f5f;fill-opacity:1;fill-rule:nonzero;stroke:none"
             d="M 0,0 C 0.455,-0.13 0.927,-0.219 1.361,-0.397 2.019,-0.667 2.687,-0.943 3.285,-1.32 4.139,-1.858 4.718,-1.726 4.943,-0.741 5.254,0.624 5.537,1.984 6.314,3.185 6.481,3.444 6.409,3.671 6.03,3.656 4.874,3.61 3.719,3.551 2.563,3.521 1.798,3.502 1.262,3.209 0.881,2.506 0.574,1.939 0.104,1.462 -0.276,0.932 -0.573,0.52 -0.55,0.175 0,0" /></g><g
           transform="translate(149.7334,155.7711)"
           id="g164"><path
             id="path166"
             style="fill:#5e5f5f;fill-opacity:1;fill-rule:nonzero;stroke:none"
             d="M 0,0 C 2.403,0.523 4.655,1.012 6.907,1.502 6.86,1.644 6.813,1.787 6.767,1.929 4.657,2.206 2.495,2.724 0.497,2.423 -0.482,2.275 -0.394,1.367 0,0" /></g><g
           transform="translate(162.0063,129.9047)"
           id="g168"><path
             id="path170"
             style="fill:#5e5f5f;fill-opacity:1;fill-rule:nonzero;stroke:none"
             d="M 0,0 C 3.428,0.065 5.767,0.14 6.223,0.23 6.289,0.243 6.57,0.303 6.691,0.168 6.742,0.111 6.758,0.012 6.715,-0.162 6.654,-0.237 6.564,-0.302 6.536,-0.387 5.783,-2.701 5.964,-5.275 4.579,-7.417 4.516,-7.514 4.543,-7.673 4.535,-7.803 4.463,-8.979 4.392,-10.154 4.323,-11.33 4.019,-16.489 3.607,-21.644 3.449,-26.808 c -0.11,-3.588 0.032,-7.193 0.246,-10.78 0.132,-2.208 0.647,-4.391 0.925,-6.593 0.235,-1.85 0.046,-3.665 -0.889,-5.322 -0.165,-0.291 -0.589,-0.682 -0.832,-0.643 -2.214,0.352 -4.348,0.953 -6.068,2.51 -1.21,1.095 -1.548,2.375 -0.757,3.797 0.611,1.098 1.523,2.026 2.254,3.063 0.301,0.428 0.641,0.93 0.685,1.423 0.27,2.963 0.58,5.931 0.636,8.902 0.049,2.575 -0.133,5.164 -0.373,7.732 -0.395,4.229 -0.911,8.446 -1.408,12.665 -0.029,0.251 -0.294,0.62 -0.515,0.675 -0.583,0.147 -1.202,0.152 -1.883,0.221 -0.156,-1.609 -0.307,-3.166 -0.459,-4.724 -0.435,-4.457 -0.871,-8.914 -1.306,-13.371 -0.429,-4.392 -0.876,-8.783 -1.263,-13.178 -0.046,-0.53 0.155,-1.123 0.376,-1.627 0.768,-1.755 1.775,-3.427 2.351,-5.239 0.608,-1.913 -0.389,-3.431 -2.359,-3.782 -1.262,-0.224 -2.614,-0.213 -3.889,-0.037 -1.772,0.245 -2.578,1.611 -3.033,3.21 v 1.965 c 0.518,1.81 1.027,3.598 1.106,5.524 0.226,5.582 0.593,11.158 0.911,16.737 0.229,4.012 0.514,8.022 0.686,12.037 0.104,2.45 0.634,4.934 -0.632,7.31 -0.097,0.183 -0.257,0.521 -0.128,0.828 0.297,0.704 1.759,0.29 3.232,0.913 1.309,0.552 1.483,1.44 2.388,2.183 C -5.551,0.41 -3.709,1.017 0,0" /></g><g
           transform="translate(131.1099,118.1361)"
           id="g172"><path
             id="path174"
             style="fill:#5e5f5f;fill-opacity:1;fill-rule:nonzero;stroke:none"
             d="m 0,0 v -0.196 c -0.558,-0.591 -1.176,-1.138 -1.659,-1.785 -0.572,-0.764 -1.275,-1.557 -1.483,-2.441 -0.554,-2.347 -0.9,-4.745 -1.277,-7.132 -0.926,-5.863 -1.369,-11.736 -0.52,-17.664 0.199,-1.394 0.458,-2.575 1.77,-3.326 0.381,-0.218 0.67,-0.62 0.958,-0.974 1.423,-1.748 1.257,-3.258 -0.771,-4.229 -1.679,-0.804 -3.573,-1.154 -5.356,-1.75 -0.772,-0.258 -1.157,0.122 -1.506,0.698 -0.984,1.623 -1.003,3.41 -0.581,5.135 0.885,3.619 1.318,7.294 1.158,10.985 -0.254,5.847 -0.756,11.683 -1.175,17.522 -0.069,0.948 -0.252,1.889 -0.383,2.833 -0.097,0.007 -0.195,0.014 -0.293,0.021 -0.899,-1.288 -1.308,-2.76 -1.495,-4.321 -0.49,-4.087 -0.992,-8.173 -1.484,-12.26 -0.496,-4.12 -1.006,-8.238 -1.448,-12.363 -0.051,-0.473 0.222,-1.029 0.471,-1.477 0.726,-1.306 1.68,-2.509 2.238,-3.877 0.692,-1.699 -0.072,-2.998 -1.858,-3.393 -1.039,-0.23 -2.138,-0.247 -3.211,-0.263 -2.05,-0.032 -3.725,0.62 -4.493,2.73 v 1.572 c 0.345,1.212 0.867,2.406 1.001,3.641 0.315,2.924 0.445,5.868 0.651,8.803 0.449,6.425 0.897,12.85 1.351,19.275 0.115,1.625 0.059,3.293 0.42,4.863 0.563,2.453 1.068,4.998 3.06,6.839 h 0.983 c 1.146,-0.707 2.325,-1.277 3.722,-1.335 1.592,-0.065 2.643,-0.899 3.261,-2.397 0.773,-1.878 1.693,-2.279 3.614,-1.656 0.675,0.22 1.254,0.227 1.83,-0.212 C -1.677,1.234 -0.836,0.621 0,0" /></g><g
           transform="translate(148.111,132.2982)"
           id="g176"><path
             id="path178"
             style="fill:#5e5f5f;fill-opacity:1;fill-rule:nonzero;stroke:none"
             d="m 0,0 c -0.65,-2.266 -1.179,-4.112 -1.77,-6.171 1.463,0.289 2.721,0.309 3.588,1.502 0.276,0.381 0.837,0.607 1.313,0.78 1.141,0.417 1.322,0.931 0.355,1.689 C 2.482,-1.414 1.326,-0.823 0,0" /></g><g
           transform="translate(79.935,268.1927)"
           id="g180"><path
             id="path182"
             style="fill:#5e5f5f;fill-opacity:1;fill-rule:nonzero;stroke:none"
             d="m 0,0 -2.62,-13.08 13.836,-3.41 0.124,-0.198 -4.072,-2.543 -12.077,3.041 4.761,-7.615 -3.295,-2.058 -10.752,17.189 3.296,2.06 4.546,-7.267 2.096,11.42 4.095,2.558 z" /></g><g
           transform="translate(99.9666,277.2096)"
           id="g184"><path
             id="path186"
             style="fill:#5e5f5f;fill-opacity:1;fill-rule:nonzero;stroke:none"
             d="m 0,0 3.61,1.436 7.507,-18.87 -2.243,-0.891 0.01,-0.029 -15.132,8.732 5.055,-12.704 -3.612,-1.436 -7.497,18.842 2.928,1.163 14.033,-7.953 z" /></g><g
           transform="translate(117.7617,271.8543)"
           id="g188"><path
             id="path190"
             style="fill:#5e5f5f;fill-opacity:1;fill-rule:nonzero;stroke:none"
             d="m 0,0 c 0.686,-3.26 3.122,-6.439 7.903,-5.566 4.779,0.874 5.93,4.733 5.389,8.022 C 12.735,5.829 10.136,9.243 5.357,8.372 0.576,7.498 -0.702,3.349 0,0 m 17.047,3.2 c 0.886,-5.168 -1.389,-10.912 -8.515,-12.213 -7.128,-1.303 -11.35,3.14 -12.308,8.384 -0.959,5.244 1.497,11.14 8.507,12.42 6.982,1.275 11.422,-3.363 12.316,-8.591" /></g><g
           transform="translate(162.6198,264.9042)"
           id="g192"><path
             id="path194"
             style="fill:#5e5f5f;fill-opacity:1;fill-rule:nonzero;stroke:none"
             d="m 0,0 -3.296,0.154 -2.263,6.488 -1.879,6.5 -2.449,-6.356 -2.791,-6.194 -3.296,0.154 -6.619,20.615 4.354,-0.201 4.174,-14.846 5.679,14.384 2.53,-0.117 4.47,-14.858 5.385,14.397 4.353,-0.202 z" /></g><g
           transform="translate(194.6898,269.4869)"
           id="g196"><path
             id="path198"
             style="fill:#5e5f5f;fill-opacity:1;fill-rule:nonzero;stroke:none"
             d="M 0,0 7.972,6.043 12.381,4.47 12.323,4.307 0.644,-3.982 l -2.815,-7.887 -3.66,1.307 2.813,7.887 -3.515,13.716 0.059,0.163 4.352,-1.556 z" /></g><g
           transform="translate(211.1995,260.3427)"
           id="g200"><path
             id="path202"
             style="fill:#5e5f5f;fill-opacity:1;fill-rule:nonzero;stroke:none"
             d="m 0,0 c -1.627,-2.908 -1.879,-6.904 2.295,-9.39 4.178,-2.484 7.583,-0.331 9.337,2.502 C 13.43,-3.98 13.714,0.299 9.538,2.785 5.362,5.269 1.671,2.983 0,0 m 14.952,-8.796 c -2.731,-4.475 -8.223,-7.309 -14.446,-3.605 -6.227,3.704 -6.491,9.827 -3.768,14.408 2.726,4.581 8.453,7.409 14.577,3.766 6.1,-3.63 6.397,-10.045 3.637,-14.569" /></g><g
           transform="translate(251.8975,242.9066)"
           id="g204"><path
             id="path206"
             style="fill:#5e5f5f;fill-opacity:1;fill-rule:nonzero;stroke:none"
             d="m 0,0 -7.795,-8.614 c -4.022,-4.446 -8.858,-4.216 -12.702,-0.742 -3.668,3.318 -4.809,8.332 -0.707,12.866 l 7.794,8.613 2.862,-2.586 -7.795,-8.616 c -2.451,-2.705 -2.178,-5.566 0.201,-7.717 2.382,-2.154 5.152,-1.809 7.486,0.767 l 7.795,8.616 z" /></g><g
           transform="translate(257.9317,230.5481)"
           id="g208"><path
             id="path210"
             style="fill:#5e5f5f;fill-opacity:1;fill-rule:nonzero;stroke:none"
             d="m 0,0 -5.175,-3.918 3.571,-4.721 c 1.494,-1.973 3.427,-1.838 4.721,-0.859 1.292,0.98 1.929,2.827 0.454,4.777 z m -4.659,-21.552 -2.79,3.686 1.783,8.884 -2.258,2.983 -5.405,-4.091 -2.344,3.097 L 0.52,5.27 C 2.491,2.663 4.439,0.037 6.413,-2.571 9.321,-6.462 8.326,-10.43 5.53,-12.546 c -2.217,-1.679 -5.24,-2.342 -8.226,0.31 l -1.754,-9.161 z" /></g><g
           transform="translate(269.4751,198.3826)"
           id="g212"><path
             id="path214"
             style="fill:#5e5f5f;fill-opacity:1;fill-rule:nonzero;stroke:none"
             d="m 0,0 2.24,-5.384 c 1.911,-4.596 8.536,-1.81 6.635,2.758 L 6.634,2.76 Z m -0.997,-6.729 -2.24,5.385 -5.511,-2.293 -1.494,3.589 18.727,7.788 c 1.244,-2.993 2.516,-5.972 3.758,-8.962 3.871,-9.301 -9.358,-14.835 -13.24,-5.507" /></g><g
           transform="translate(277.6592,177.0604)"
           id="g216"><path
             id="path218"
             style="fill:#5e5f5f;fill-opacity:1;fill-rule:nonzero;stroke:none"
             d="m 0,0 c -3.25,-0.736 -6.39,-3.221 -5.444,-7.988 0.946,-4.766 4.825,-5.857 8.105,-5.265 3.364,0.61 6.736,3.26 5.79,8.027 C 7.507,-0.458 3.338,0.755 0,0 m 3.462,-16.998 c -5.154,-0.965 -10.935,1.22 -12.345,8.326 -1.41,7.107 2.967,11.4 8.197,12.44 5.228,1.039 11.161,-1.325 12.549,-8.317 1.379,-6.961 -3.191,-11.473 -8.401,-12.449" /></g><g
           transform="translate(271.1582,132.1245)"
           id="g220"><path
             id="path222"
             style="fill:#5e5f5f;fill-opacity:1;fill-rule:nonzero;stroke:none"
             d="M 0,0 0.14,3.294 6.614,5.589 13.105,7.498 6.74,9.915 0.532,12.677 0.67,15.97 21.25,22.689 21.068,18.334 6.246,14.089 20.656,8.481 20.55,5.953 5.714,1.413 20.136,-3.902 19.952,-8.257 Z" /></g><g
           transform="translate(265.2955,105.7881)"
           id="g224"><path
             id="path226"
             style="fill:#5e5f5f;fill-opacity:1;fill-rule:nonzero;stroke:none"
             d="m 0,0 4.104,14.881 c 6.509,-1.792 13.044,-3.59 19.552,-5.383 L 19.552,-5.384 15.978,-4.399 19.054,6.761 14.558,8 11.589,-2.765 8.154,-1.818 11.123,8.946 6.71,10.161 3.632,-0.999 Z" /></g><g
           transform="translate(276.9662,90.2579)"
           id="g228"><path
             id="path230"
             style="fill:#5e5f5f;fill-opacity:1;fill-rule:nonzero;stroke:none"
             d="m 0,0 -5.85,2.804 -2.562,-5.338 c -1.07,-2.231 -0.066,-3.887 1.396,-4.588 1.464,-0.701 3.397,-0.42 4.456,1.784 z m -21.289,-5.735 2.002,4.169 8.711,2.489 1.617,3.372 -6.11,2.929 1.682,3.508 L 4.922,1.955 C 3.506,-0.994 2.065,-3.93 0.652,-6.878 c -2.13,-4.37 -6.112,-5.302 -9.271,-3.787 -2.507,1.203 -4.48,3.584 -3.49,7.456 l -8.945,-2.64 z" /></g><g
           transform="translate(29.2787,136.9211)"
           id="g232"><path
             id="path234"
             style="fill:#5e5f5f;fill-opacity:1;fill-rule:nonzero;stroke:none"
             d="m 0,0 c 0.321,-2.321 1.547,-2.636 3.7,-2.339 l 20.789,2.868 c 2.152,0.297 3.206,0.926 2.885,3.249 l 0.258,0.036 2.061,-8.573 -13.989,-1.933 c 1.862,-1.409 4.003,-3.571 4.401,-6.455 0.391,-2.839 -0.955,-5.483 -5.087,-6.054 l -8.823,-1.216 c -2.152,-0.299 -3.249,-0.93 -2.929,-3.255 l -0.258,-0.035 -1.538,11.147 0.257,0.035 c 0.268,-1.936 1.508,-2.335 3.66,-2.038 l 9.426,1.299 c 2.239,0.31 3.092,1.438 2.872,3.031 -0.214,1.549 -1.333,2.666 -2.411,3.481 L 4.514,-8.235 C 2.361,-8.534 1.264,-9.167 1.585,-11.492 l -0.257,-0.035 -1.586,11.49 z" /></g><g
           transform="translate(47.0084,102.9752)"
           id="g236"><path
             id="path238"
             style="fill:#5e5f5f;fill-opacity:1;fill-rule:nonzero;stroke:none"
             d="m 0,0 2.752,-6.197 c 1.849,0.87 7.159,3.372 5.941,6.112 C 7.671,2.219 3.212,1.331 0,0 M -3.657,5.129 C 1.229,7.298 6.603,5.263 8.985,-0.099 11.067,-4.786 9.65,-9.409 4.817,-11.697 l -5.152,11.594 c -5.243,-2.328 -7.657,-5.777 -6.034,-9.432 1.217,-2.739 3.913,-3.776 5.939,-4.16 l -0.053,-0.309 c -2.409,0.496 -5.759,1.722 -7.752,6.211 -2.647,5.956 0.09,10.928 4.578,12.922" /></g><g
           transform="translate(57.6138,71.0749)"
           id="g240"><path
             id="path242"
             style="fill:#5e5f5f;fill-opacity:1;fill-rule:nonzero;stroke:none"
             d="M 0,0 4.584,3.662 C 4.266,4.409 3.867,5.256 3.325,5.933 1.86,7.767 -0.019,7.825 -2.192,6.089 -3.992,4.653 -4.843,2.862 -3.623,1.333 -2.837,0.348 -1.581,-0.039 0,0 m -6.192,10.681 c 2.819,2.252 6.027,0.53 8.575,-2.663 C 3.414,6.727 4.321,5.175 4.857,3.877 l 3.498,2.792 c 2.037,1.627 3.287,3.405 1.472,5.681 -1.22,1.529 -2.7,1.849 -3.977,1.775 0.332,-1.181 -0.152,-2.456 -1.068,-3.19 -1.257,-1.002 -3.089,-0.797 -4.119,0.493 -1.166,1.461 -0.567,3.218 0.588,4.139 2.138,1.71 5.932,0.511 8.969,-3.293 C 12.904,8.911 14.548,3.997 10.643,0.88 L 3.273,-5.005 C 2.492,-5.629 2.546,-6.253 2.953,-6.763 3.712,-7.714 5.415,-7.687 6.543,-7.567 L 6.576,-7.818 C 4.54,-8.055 2.293,-7.958 0.531,-5.75 c -1.518,1.903 -1.482,3.878 -0.442,5.432 -1.989,-0.087 -4.31,0.451 -6.344,2.998 -2.304,2.886 -2.382,6.049 0.063,8.001" /></g><g
           transform="translate(79.7564,50.4351)"
           id="g244"><path
             id="path246"
             style="fill:#5e5f5f;fill-opacity:1;fill-rule:nonzero;stroke:none"
             d="M 0,0 7.613,10.09 C 8.104,11.462 7.926,13.175 6.677,14.118 4.18,16.001 0.173,12.493 -2.023,9.579 -4.691,6.043 -5.728,2.362 -3.369,0.583 -2.294,-0.23 -1.114,-0.249 0,0 m -7.14,13.113 c 3.166,4.196 8.4,5.58 13.012,2.101 1.631,-1.231 2.47,-2.571 2.787,-3.736 l 4.526,5.999 c 1.518,2.014 1.086,3.317 -0.787,4.731 l 0.158,0.209 8.014,-4.96 L 5.265,-2.829 C 3.958,-4.565 3.632,-5.788 5.506,-7.201 l -0.157,-0.209 -6.832,5.154 1.438,1.908 c -1.92,-0.455 -4.223,-0.405 -6.443,1.269 -3.953,2.983 -3.608,8.273 -0.652,12.192" /></g><g
           transform="translate(108.2639,37.6966)"
           id="g248"><path
             id="path250"
             style="fill:#5e5f5f;fill-opacity:1;fill-rule:nonzero;stroke:none"
             d="m 0,0 2.463,8.062 c 0.634,2.076 0.545,3.421 -1.698,4.107 L 0.841,12.417 9.445,10.698 5.487,-2.265 c -0.66,-2.16 -0.01,-3.449 1.528,-3.92 1.455,-0.443 2.938,0.103 4.185,0.768 l 3.02,9.888 c 0.635,2.076 0.504,3.434 -1.366,4.003 L 12.93,8.725 21.244,7.093 16.969,-6.908 c -0.634,-2.077 -0.546,-3.421 1.698,-4.107 l -0.075,-0.247 -8.228,2.512 0.926,3.032 C 9.15,-6.927 6.237,-7.99 3.37,-7.115 0.669,-6.289 -1.217,-3.987 0,0" /></g><g
           transform="translate(143.8364,39.7599)"
           id="g252"><path
             id="path254"
             style="fill:#5e5f5f;fill-opacity:1;fill-rule:nonzero;stroke:none"
             d="m 0,0 -0.751,-11.536 c -0.161,-2.472 1.319,-3.83 2.967,-3.938 3.122,-0.203 4.484,4.675 4.732,8.49 C 7.253,-2.302 6.129,1.169 3.18,1.361 1.793,1.45 0.747,0.778 0,0 m -10.147,-21.42 c 2.342,-0.152 2.901,1.075 3.042,3.243 l 1.114,17.129 C -5.85,1.119 -6.246,2.408 -8.586,2.56 l 0.016,0.262 8.643,0.307 -0.186,-2.86 c 1.311,1.395 3.267,2.705 6.043,2.524 4.943,-0.323 7.604,-4.938 7.282,-9.881 -0.336,-5.161 -3.866,-9.241 -9.721,-8.861 -2.125,0.139 -3.563,0.799 -4.428,1.55 l -0.288,-4.423 c -0.141,-2.168 0.661,-3.222 2.959,-3.372 l -0.016,-0.26 -11.881,0.775 z" /></g><g
           transform="translate(37.9312,149.5846)"
           id="g256"><path
             id="path258"
             style="fill:none;stroke:#5e5f5f;stroke-width:4;stroke-linecap:butt;stroke-linejoin:miter;stroke-miterlimit:10;stroke-dasharray:none;stroke-opacity:1"
             d="M 0,0 C -3.174,34.055 7.684,66.183 27.825,90.66" /></g><g
           transform="translate(254.1609,73.0969)"
           id="g260"><path
             id="path262"
             style="fill:none;stroke:#5e5f5f;stroke-width:4;stroke-linecap:butt;stroke-linejoin:miter;stroke-miterlimit:10;stroke-dasharray:none;stroke-opacity:1"
             d="M 0,0 C -20.802,-24.895 -51.149,-41.539 -85.415,-44.309" /></g></g></g></g></svg>