<?xml version="1.0" encoding="UTF-8" standalone="no"?>
<svg
   xmlns:dc="http://purl.org/dc/elements/1.1/"
   xmlns:cc="http://creativecommons.org/ns#"
   xmlns:rdf="http://www.w3.org/1999/02/22-rdf-syntax-ns#"
   xmlns:svg="http://www.w3.org/2000/svg"
   xmlns="http://www.w3.org/2000/svg"
   viewBox="0 0 428.57199 404.76132"
   height="404.76132"
   width="428.57199"
   xml:space="preserve"
   id="svg2"
   version="1.1"><metadata
     id="metadata8"><rdf:RDF><cc:Work
         rdf:about=""><dc:format>image/svg+xml</dc:format><dc:type
           rdf:resource="http://purl.org/dc/dcmitype/StillImage" /></cc:Work></rdf:RDF></metadata><defs
     id="defs6"><clipPath
       id="clipPath18"
       clipPathUnits="userSpaceOnUse"><path
         id="path16"
         d="M 0,303.571 H 321.429 V 0 H 0 Z" /></clipPath></defs><g
     transform="matrix(1.3333333,0,0,-1.3333333,0,404.76133)"
     id="g10"><g
       id="g12"><g
         clip-path="url(#clipPath18)"
         id="g14"><g
           transform="translate(253.5325,79.7122)"
           id="g20"><path
             id="path22"
             style="fill:none;stroke:#ff6d2e;stroke-width:4;stroke-linecap:butt;stroke-linejoin:miter;stroke-miterlimit:10;stroke-dasharray:none;stroke-opacity:1"
             d="m 0,0 c -21.625,-29.567 -56.578,-48.771 -96.015,-48.771 -65.654,0 -118.878,53.223 -118.878,118.877 0,24.621 7.485,47.493 20.303,66.466" /></g><g
           transform="translate(81.9974,251.3661)"
           id="g24"><path
             id="path26"
             style="fill:#ff6d2e;fill-opacity:1;fill-rule:nonzero;stroke:none"
             d="m 0,0 -1.356,-11.867 12.561,-2.209 0.123,-0.168 -3.431,-2.525 -10.967,1.986 4.802,-6.525 -2.778,-2.043 -10.843,14.731 2.779,2.044 4.585,-6.23 1.013,10.35 3.449,2.54 z" /></g><g
           transform="translate(99.0969,260.7446)"
           id="g28"><path
             id="path30"
             style="fill:#ff6d2e;fill-opacity:1;fill-rule:nonzero;stroke:none"
             d="m 0,0 3.095,1.523 8.091,-16.441 -1.924,-0.946 0.012,-0.024 -14.09,6.846 5.447,-11.07 -3.095,-1.522 -8.078,16.418 2.51,1.234 13.053,-6.222 z" /></g><g
           transform="translate(115.2571,257.1252)"
           id="g32"><path
             id="path34"
             style="fill:#ff6d2e;fill-opacity:1;fill-rule:nonzero;stroke:none"
             d="m 0,0 c 0.853,-2.883 3.253,-5.57 7.421,-4.451 4.167,1.118 4.892,4.67 4.16,7.587 C 10.834,6.13 8.272,9.014 4.106,7.896 -0.061,6.778 -0.876,2.958 0,0 M 14.85,4.068 C 16.028,-0.516 14.452,-5.838 8.241,-7.506 2.028,-9.174 -2.05,-5.478 -3.298,-0.832 -4.545,3.814 -2.82,9.286 3.289,10.926 9.376,12.56 13.661,8.702 14.85,4.068" /></g><g
           transform="translate(155.5293,254.1023)"
           id="g36"><path
             id="path38"
             style="fill:#ff6d2e;fill-opacity:1;fill-rule:nonzero;stroke:none"
             d="m 0,0 -2.925,-0.106 -2.481,5.666 -2.142,5.704 -1.697,-5.896 -2.015,-5.777 -2.926,-0.106 -7.379,18.047 3.866,0.139 4.792,-13.037 3.963,13.355 2.248,0.082 5.049,-13.029 3.704,13.346 3.866,0.14 z" /></g><g
           transform="translate(183.5234,260.7225)"
           id="g40"><path
             id="path42"
             style="fill:#ff6d2e;fill-opacity:1;fill-rule:nonzero;stroke:none"
             d="M 0,0 6.621,6.07 10.642,5.014 10.603,4.862 0.858,-3.523 -1.064,-10.829 -4.4,-9.952 -2.479,-2.646 -6.589,9.381 -6.55,9.532 -2.58,8.489 Z" /></g><g
           transform="translate(198.8413,253.865)"
           id="g44"><path
             id="path46"
             style="fill:#ff6d2e;fill-opacity:1;fill-rule:nonzero;stroke:none"
             d="m 0,0 c -1.229,-2.743 -1.161,-6.34 2.724,-8.207 3.887,-1.867 6.749,0.352 8.097,3.039 1.385,2.757 1.322,6.612 -2.563,8.478 C 4.37,5.176 1.263,2.814 0,0 m 13.907,-6.591 c -2.094,-4.241 -6.757,-7.248 -12.551,-4.465 -5.794,2.781 -6.478,8.241 -4.395,12.575 2.083,4.334 6.953,7.356 12.653,4.619 5.677,-2.727 6.41,-8.442 4.293,-12.729" /></g><g
           transform="translate(236.2888,241.8439)"
           id="g48"><path
             id="path50"
             style="fill:#ff6d2e;fill-opacity:1;fill-rule:nonzero;stroke:none"
             d="m 0,0 -6.282,-8.392 c -3.24,-4.332 -7.559,-4.562 -11.241,-1.805 -3.517,2.631 -4.913,7.006 -1.608,11.421 l 6.282,8.392 2.741,-2.051 -6.282,-8.392 c -1.974,-2.637 -1.514,-5.167 0.766,-6.875 2.282,-1.705 4.722,-1.149 6.6,1.362 l 6.281,8.391 z" /></g><g
           transform="translate(242.6443,231.4011)"
           id="g52"><path
             id="path54"
             style="fill:#ff6d2e;fill-opacity:1;fill-rule:nonzero;stroke:none"
             d="m 0,0 -4.298,-3.974 3.565,-3.859 c 1.489,-1.613 3.204,-1.31 4.277,-0.316 1.078,0.994 1.494,2.697 0.023,4.291 z m -2.416,-19.605 -2.786,3.013 0.871,8.069 -2.253,2.437 -4.492,-4.152 -2.343,2.534 L 0.039,4.734 C 2.008,2.603 3.958,0.455 5.928,-1.677 8.835,-4.861 8.268,-8.483 5.945,-10.63 4.104,-12.333 1.46,-13.21 -1.419,-11.135 l -0.825,-8.31 z" /></g><g
           transform="translate(255.631,203.9957)"
           id="g56"><path
             id="path58"
             style="fill:#ff6d2e;fill-opacity:1;fill-rule:nonzero;stroke:none"
             d="m 0,0 2.493,-4.535 c 2.129,-3.872 7.798,-0.724 5.68,3.124 L 5.68,3.125 Z m -0.277,-6.059 -2.495,4.536 -4.72,-2.596 -1.663,3.024 L 6.88,7.724 C 8.266,5.204 9.674,2.695 11.062,0.177 15.369,-7.658 4.041,-13.917 -0.277,-6.059" /></g><g
           transform="translate(264.9304,186.0275)"
           id="g60"><path
             id="path62"
             style="fill:#ff6d2e;fill-opacity:1;fill-rule:nonzero;stroke:none"
             d="m 0,0 c -2.831,-1.001 -5.389,-3.533 -4.058,-7.634 1.33,-4.1 4.907,-4.641 7.785,-3.764 2.947,0.902 5.695,3.605 4.364,7.705 C 6.76,0.408 2.91,1.025 0,0 m 4.822,-14.613 c -4.514,-1.408 -9.905,-0.109 -11.889,6.004 -1.982,6.113 1.498,10.372 6.07,11.855 4.572,1.483 10.119,0.042 12.069,-5.972 1.944,-5.989 -1.686,-10.462 -6.25,-11.887" /></g><g
           transform="translate(263.986,145.6967)"
           id="g64"><path
             id="path66"
             style="fill:#ff6d2e;fill-opacity:1;fill-rule:nonzero;stroke:none"
             d="m 0,0 -0.255,2.918 5.532,2.767 5.588,2.43 -5.976,1.394 -5.871,1.717 -0.253,2.917 17.644,8.286 0.338,-3.856 L 3.97,13.128 17.51,9.849 17.705,7.61 4.952,1.904 18.466,-1.115 18.803,-4.97 Z" /></g><g
           transform="translate(262.0563,121.7941)"
           id="g68"><path
             id="path70"
             style="fill:#ff6d2e;fill-opacity:1;fill-rule:nonzero;stroke:none"
             d="M 0,0 1.744,13.582 C 7.781,12.808 13.848,12.03 19.887,11.253 L 18.143,-2.331 14.824,-1.904 16.135,8.283 11.961,8.819 10.7,-1.006 7.511,-0.596 8.772,9.228 4.676,9.755 3.369,-0.432 Z" /></g><g
           transform="translate(274.553,109.5952)"
           id="g72"><path
             id="path74"
             style="fill:#ff6d2e;fill-opacity:1;fill-rule:nonzero;stroke:none"
             d="M 0,0 -5.595,1.72 -7.14,-3.299 c -0.643,-2.099 0.478,-3.427 1.879,-3.856 1.397,-0.431 3.08,0.064 3.718,2.137 z m -18.156,-7.758 1.205,3.923 7.408,3.297 0.975,3.17 -5.843,1.797 1.014,3.298 L 4.109,2.345 C 3.257,-0.427 2.381,-3.191 1.526,-5.964 c -1.291,-4.113 -4.706,-5.44 -7.727,-4.513 -2.397,0.739 -4.483,2.583 -4.135,6.112 l -7.596,-3.461 z" /></g><g
           transform="translate(176.5757,238.3628)"
           id="g76"><path
             id="path78"
             style="fill:#ff6d2e;fill-opacity:1;fill-rule:nonzero;stroke:none"
             d="m 0,0 c -0.341,-0.138 -0.942,-0.441 -1.362,-1.073 -0.391,-0.589 -0.514,-1.176 -0.478,-1.921 0.042,-0.872 0.205,-1.748 0.154,-2.613 -0.043,-0.717 -0.209,-1.473 -0.516,-2.12 -0.529,-1.117 -1.658,-1.206 -2.685,-1.085 -1.889,0.224 -3.755,0.639 -5.64,0.901 -1.465,0.203 -2.946,0.294 -4.42,0.433 h -0.238 c -0.768,-0.051 -1.624,-0.019 -2.048,-0.792 -0.452,-0.825 0.092,-1.545 0.538,-2.189 1.822,-2.625 4.404,-3.874 7.545,-4.065 0.264,-0.016 0.53,-0.005 0.795,-0.002 1.746,0.02 2.565,-0.693 2.448,-2.425 -0.087,-1.279 -0.393,-2.558 -0.731,-3.802 -2.676,-9.828 -5.296,-19.673 -8.121,-29.459 -1.2,-4.16 -2.858,-8.188 -4.289,-12.283 -0.645,-1.847 -1.255,-3.706 -1.86,-5.566 -1.286,-3.952 -3.641,-7.006 -7.374,-8.948 -1.337,-0.695 -2.634,-1.47 -3.935,-2.232 -1.268,-0.743 -2.25,-1.762 -2.807,-3.141 -0.653,-1.618 -1.281,-3.246 -1.922,-4.869 -0.454,-1.153 -0.986,-2.221 -2.28,-2.687 -0.539,-0.194 -0.532,-0.676 -0.151,-1.013 0.49,-0.433 1.014,-0.927 1.612,-1.122 5.218,-1.701 10.023,-1.135 14.185,3.096 1.522,1.548 2.119,3.407 1.595,5.611 -0.454,1.908 -0.801,3.867 -0.324,5.818 0.221,0.906 0.619,1.803 1.105,2.601 1.32,2.166 2.724,4.28 4.104,6.409 1.151,1.775 2.25,3.59 3.506,5.288 0.472,0.637 1.278,1.077 2.01,1.459 0.821,0.427 1.374,1.072 1.593,1.886 0.513,1.91 1.017,3.836 1.306,5.789 0.565,3.819 0.955,7.664 1.478,11.491 0.113,0.825 0.425,1.638 0.742,2.417 0.638,1.568 1.863,2.335 3.544,2.323 2.233,-0.017 4.295,0.462 6.115,1.839 2.207,1.672 2.751,3.698 1.586,6.219 -0.233,0.503 -0.481,1.007 -0.788,1.467 -0.399,0.595 -0.214,0.998 0.34,1.294 0.512,0.274 1.043,0.513 1.578,0.74 2.163,0.919 4.378,1.733 6.484,2.77 1.809,0.891 3.707,1.192 5.655,1.421 0.706,0.084 1.401,0.27 2.1,0.413 0.717,0.148 1.288,0.433 1.727,0.845 0.7,0.657 0.914,1.538 1.041,2.051 0.107,0.43 0.142,0.8 0.154,1.06 0.026,0.346 0.053,0.692 0.079,1.039 -4.128,1.219 -8.273,2.386 -12.379,3.674 -2.962,0.93 -6.026,1.607 -8.735,3.239 -1.351,0.813 -1.455,1.157 -0.747,2.593 0.512,1.039 1.052,2.081 1.403,3.178 0.211,0.659 0.356,1.37 0.11,2.184 C 2.47,-0.76 1.571,-0.159 1.207,0.056 0.805,0.037 0.402,0.019 0,0" /></g><g
           transform="translate(176.5209,144.278)"
           id="g80"><path
             id="path82"
             style="fill:#ff6d2e;fill-opacity:1;fill-rule:nonzero;stroke:none"
             d="M 0,0 C -0.161,1.124 -0.386,1.486 -0.55,1.698 -1.127,2.442 -2.099,2.749 -3.221,2.921 -4.114,3.058 -4.976,3.476 -5.867,3.529 -6.43,3.562 -7.148,3.301 -7.573,2.921 c -1.581,-1.41 -2.319,-3.342 -2.94,-5.304 -0.2,-0.632 -0.349,-1.331 -0.287,-1.976 0.036,-0.371 0.521,-0.97 0.843,-0.998 2.648,-0.226 4.621,-1.689 6.507,-3.351 0.1,-0.088 0.198,-0.18 0.308,-0.253 0.136,-0.089 0.284,-0.16 0.469,-0.263 0.503,0.632 1.089,1.483 1.607,2.559 0.502,1.041 0.799,1.999 0.98,2.769 C 0.214,-2.213 0.125,-0.873 0,0" /></g><g
           transform="translate(142.4746,113.241)"
           id="g84"><path
             id="path86"
             style="fill:#ff6d2e;fill-opacity:1;fill-rule:nonzero;stroke:none"
             d="m 0,0 c -0.023,2.635 0.136,4.362 0.343,5.567 0.068,0.394 0.223,1.224 -0.171,2.057 -0.236,0.499 -0.652,0.932 -1.301,1.324 -1.481,0.894 -2.766,2.116 -4.125,3.209 -0.966,0.776 -1.216,0.803 -1.903,-0.26 -1.875,-2.904 -3.27,-5.971 -2.826,-9.568 0.144,-1.173 -0.132,-2.182 -1.018,-3.024 -0.653,-0.621 -0.722,-1.667 -0.246,-2.407 0.468,-0.727 1.341,-1.011 2.235,-0.619 1.168,0.511 2.298,1.111 3.452,1.656 1.267,0.598 1.755,0.442 2.783,-0.511 0.528,-0.49 1.327,-1.186 1.849,-1.074 0.189,0.041 0.329,0.116 0.431,0.217 0.389,0.381 0.243,0.984 0.27,1.871 C -0.216,-1.192 -0.169,-0.654 0,0" /></g><g
           transform="translate(122.2945,142.0656)"
           id="g88"><path
             id="path90"
             style="fill:#ff6d2e;fill-opacity:1;fill-rule:nonzero;stroke:none"
             d="m 0,0 c 2.249,-0.126 3.872,-0.296 5.138,-0.49 0.461,-0.071 1.28,-0.204 2.062,0.22 0.469,0.254 0.854,0.682 1.168,1.309 0.659,1.32 1.307,2.645 1.976,3.96 0.61,1.197 -0.03,2.082 -0.732,2.926 -1.81,2.178 -4.17,2.856 -6.893,2.397 C 1.144,10.057 -0.242,10.189 -1.19,11.694 -1.295,11.86 -1.645,12 -1.838,11.958 -3.423,11.614 -4.248,10.203 -3.678,8.637 -3.278,7.538 -2.723,6.484 -2.137,5.468 -1.599,4.537 -1.813,3.81 -2.488,3.105 -2.884,2.691 -3.342,2.317 -3.651,1.846 -3.864,1.521 -4.044,0.988 -3.918,0.679 -3.79,0.368 -3.283,0.071 -2.912,0.028 c 0.833,-0.096 1.684,-0.03 2.528,-0.03 C -0.256,-0.001 -0.128,-0.001 0,0" /></g><g
           transform="translate(154.0228,130.8321)"
           id="g92"><path
             id="path94"
             style="fill:#ff6d2e;fill-opacity:1;fill-rule:nonzero;stroke:none"
             d="M 0,0 C 0.48,0 0.753,0.026 1.019,-0.004 2.94,-0.225 3.071,-0.199 3.864,1.569 4.467,2.913 5.22,4.29 4.866,5.825 4.387,7.899 3.584,9.859 2.1,11.45 1.924,11.638 1.543,11.728 1.266,11.712 -0.683,11.595 -2.63,11.447 -4.576,11.29 -5.314,11.231 -6.049,11.133 -6.782,11.03 -7.214,10.969 -7.683,10.948 -8.059,10.759 -9.549,10.009 -9.615,9.417 -8.735,8.325 -7.331,6.583 -5.966,4.752 -4.949,2.771 -4.015,0.951 -2.592,0.328 -0.798,0.058 -0.466,0.009 -0.126,0.009 0,0" /></g><g
           transform="translate(130.5704,138.2196)"
           id="g96"><path
             id="path98"
             style="fill:#ff6d2e;fill-opacity:1;fill-rule:nonzero;stroke:none"
             d="m 0,0 c 0.243,-0.203 0.492,-0.59 0.788,-0.629 3.112,-0.415 5.708,-2.114 8.493,-3.34 0.924,-0.408 1.835,-0.895 2.804,-1.135 0.533,-0.132 1.29,0.009 1.74,0.322 0.63,0.44 0.509,1.224 0.152,1.847 -1.004,1.752 -1.547,3.61 -1.809,5.627 C 11.863,5.034 10.573,6.712 8.103,7.265 7.153,7.477 6.246,7.902 5.291,8.055 4.764,8.139 3.988,8.051 3.654,7.714 2.2,6.244 0.961,4.615 0.662,2.451 0.557,1.691 0.265,0.956 0,0" /></g><g
           transform="translate(128.9259,126.3428)"
           id="g100"><path
             id="path102"
             style="fill:#ff6d2e;fill-opacity:1;fill-rule:nonzero;stroke:none"
             d="M 0,0 C -0.444,0.624 -0.787,1.367 -1.352,1.85 -3.08,3.328 -5.244,3.948 -7.365,4.593 -8.228,4.856 -8.888,4.343 -9.193,3.544 -9.564,2.572 -9.877,1.572 -10.128,0.562 c -0.555,-2.232 -1.542,-4.218 -3.122,-5.906 -0.267,-0.285 -0.497,-0.653 -0.609,-1.024 -0.324,-1.067 0.318,-1.84 1.382,-1.53 1.423,0.414 2.989,0.52 4.063,1.84 0.572,0.703 1.864,0.488 2.769,-0.262 1.52,-1.262 3.39,-0.83 4.028,1.004 0.518,1.489 0.466,2.261 1.326,4.538 0.081,0.216 0.152,0.39 0.199,0.503 C -0.061,-0.184 -0.031,-0.092 0,0" /></g><g
           transform="translate(180.1402,193.7085)"
           id="g104"><path
             id="path106"
             style="fill:#ff6d2e;fill-opacity:1;fill-rule:nonzero;stroke:none"
             d="M 0,0 C 0.092,0.845 0.115,1.569 0.114,2.132 0.112,2.84 -0.019,3.306 0.021,3.865 0.104,5.009 -0.568,5.593 -1.454,6.052 -2.01,6.34 -2.6,6.863 -3.126,6.808 -3.5,6.769 -3.761,5.917 -4.127,5.472 -5.568,3.719 -7.134,2.097 -9.125,0.947 -9.262,0.868 -9.45,0.808 -9.514,0.686 c -0.209,-0.399 -0.563,-0.861 -0.488,-1.223 0.056,-0.273 0.674,-0.593 1.055,-0.611 1.993,-0.096 3.93,-0.418 5.782,-1.17 0.725,-0.295 1.359,-0.321 1.871,-0.08 0.7,0.329 1.019,1.18 1.087,1.355 C -0.044,-0.627 -0.006,-0.252 0,0" /></g><g
           transform="translate(166.1778,137.4681)"
           id="g108"><path
             id="path110"
             style="fill:#ff6d2e;fill-opacity:1;fill-rule:nonzero;stroke:none"
             d="m 0,0 c -0.629,-0.357 -1.184,-0.589 -1.641,-0.947 -1.163,-0.91 -2.254,-1.912 -3.429,-2.805 -0.665,-0.505 -0.818,-1.089 -0.694,-1.855 0.449,-2.792 2.213,-4.786 4.1,-6.685 0.165,-0.166 0.885,-0.065 1.101,0.155 0.847,0.859 1.661,1.767 2.357,2.75 0.573,0.809 1.197,1.348 2.226,1.306 0.555,-0.023 0.928,0.164 1.149,0.754 0.364,0.974 0.87,1.894 1.245,2.864 C 6.51,-4.211 6.45,-3.702 6.272,-3.575 5.081,-2.717 3.867,-1.879 2.601,-1.138 1.808,-0.674 0.909,-0.39 0,0" /></g><g
           transform="translate(130.0534,135.705)"
           id="g112"><path
             id="path114"
             style="fill:#ff6d2e;fill-opacity:1;fill-rule:nonzero;stroke:none"
             d="M 0,0 C -0.091,1.125 -0.111,2.077 -0.268,3.005 -0.338,3.417 -0.599,4.002 -0.923,4.132 -3.208,5.048 -5.506,5.958 -8.059,5.724 -9.067,5.631 -9.48,5.299 -9.09,4.394 c 0.846,-1.966 -0.149,-3.29 -1.324,-4.604 -0.616,-0.687 -1.355,-1.413 -0.994,-2.377 0.388,-1.036 1.517,-0.785 2.383,-0.96 1.336,-0.271 2.682,-0.514 3.989,-0.891 1.183,-0.342 2.105,-0.059 2.917,0.8 0.324,0.343 0.634,0.707 1.001,0.997 C -0.189,-1.907 0.293,-1.023 0,0" /></g><g
           transform="translate(156.4397,154.9613)"
           id="g116"><path
             id="path118"
             style="fill:#ff6d2e;fill-opacity:1;fill-rule:nonzero;stroke:none"
             d="m 0,0 c 0,-0.202 -0.001,-0.404 0,-0.606 0.008,-1.292 0.352,-1.599 1.52,-1.124 1.61,0.654 2.862,0.133 4.052,-0.933 0.469,-0.419 0.994,-0.799 1.548,-1.094 0.798,-0.425 1.361,-0.2 1.616,0.686 0.211,0.734 0.215,1.526 0.38,2.276 C 9.344,0.241 9.54,1.302 9.931,2.279 10.369,3.375 10.123,4.586 9.477,5.566 7.871,8.003 5.644,7.892 3.274,7.273 2.887,7.172 2.493,6.742 2.287,6.364 1.201,4.365 -0.111,2.435 0,0" /></g><g
           transform="translate(167.6599,163.9611)"
           id="g120"><path
             id="path122"
             style="fill:#ff6d2e;fill-opacity:1;fill-rule:nonzero;stroke:none"
             d="M 0,0 C 0.099,0.044 0.478,0.088 0.622,0.295 1.384,1.397 2.105,2.528 2.805,3.671 3.297,4.475 3.089,5.29 2.717,6.078 2.285,6.992 1.909,7.941 1.382,8.796 1.171,9.139 0.61,9.49 0.228,9.469 -2.057,9.343 -4.337,9.119 -6.617,8.905 -7.014,8.867 -7.424,8.773 -7.788,8.614 -8.719,8.206 -8.919,7.638 -8.408,6.773 -7.382,5.034 -6.327,3.313 -5.265,1.596 -4.756,0.772 -4.03,0.314 -3.023,0.275 -2.08,0.239 -1.141,0.108 0,0" /></g><g
           transform="translate(168.5214,173.7051)"
           id="g124"><path
             id="path126"
             style="fill:#ff6d2e;fill-opacity:1;fill-rule:nonzero;stroke:none"
             d="M 0,0 C 0.31,-0.144 0.618,-0.294 0.932,-0.429 1.088,-0.495 1.242,-0.607 1.421,-0.564 1.658,-0.507 1.97,-0.441 2.152,-0.15 2.295,0.079 2.341,0.692 2.34,1.066 2.337,2.508 2.307,3.93 2.262,5.338 2.254,5.571 2.134,5.731 2.032,5.852 1.967,5.928 1.842,5.92 1.737,5.864 0.976,5.461 0.309,5.478 -0.328,5.653 -0.402,5.674 -0.57,5.56 -0.627,5.436 -0.942,4.756 -1.34,4.136 -1.372,3.276 -1.391,2.765 -1.541,2.157 -1.665,1.59 -1.824,0.865 -1.714,0.519 -1.395,0.419 -0.932,0.273 -0.47,0.125 -0.008,-0.022 Z" /></g><g
           transform="translate(178.3773,188.7819)"
           id="g128"><path
             id="path130"
             style="fill:#ff6d2e;fill-opacity:1;fill-rule:nonzero;stroke:none"
             d="m 0,0 c -2.585,0.574 -5.216,1.164 -7.85,1.738 -0.914,0.199 -1.333,-0.119 -1.187,-1.032 0.405,-2.516 0.863,-5.024 1.349,-7.526 0.183,-0.944 0.686,-1.478 1.805,-1.175 1.263,0.342 2.564,0.54 3.845,0.818 1.187,0.257 1.84,1.035 2.07,2.202 0.195,0.989 0.381,1.895 1.383,2.545 0.911,0.592 0.619,1.719 -0.404,2.106 C 0.697,-0.206 0.371,-0.118 0,0" /></g><g
           transform="translate(109.8706,141.2842)"
           id="g132"><path
             id="path134"
             style="fill:#ff6d2e;fill-opacity:1;fill-rule:nonzero;stroke:none"
             d="M 0,0 C 0.145,-2.13 0.219,-4.211 0.446,-6.276 0.682,-8.431 0.747,-8.43 2.88,-8.38 c 1.213,0.028 2.43,0.032 3.635,0.152 0.407,0.04 0.97,0.306 1.138,0.634 0.763,1.489 1.535,2.997 2.065,4.577 0.525,1.568 0.085,2.309 -1.532,2.566 C 5.97,-0.099 3.719,0.037 1.48,0.224 1.063,0.259 0.629,0.102 0,0" /></g><g
           transform="translate(139.4714,127.5831)"
           id="g136"><path
             id="path138"
             style="fill:#ff6d2e;fill-opacity:1;fill-rule:nonzero;stroke:none"
             d="M 0,0 C 0.118,-0.012 1.289,-0.113 1.725,0.569 2.138,1.214 1.759,2.242 1.313,2.683 0.411,3.575 -0.507,4.45 -1.421,5.33 -2.434,6.305 -3.432,7.297 -4.478,8.234 -4.679,8.415 -5.157,8.535 -5.364,8.422 -7.186,7.421 -8.724,6.086 -9.745,4.247 -9.937,3.902 -10.011,3.402 -9.934,3.015 -9.705,1.86 -9.356,0.73 -9.091,-0.418 c 0.126,-0.545 0.355,-0.734 0.924,-0.557 1.595,0.494 3.199,0.965 4.809,1.407 0.454,0.124 0.861,0.024 1.077,0.013 C -1.305,0.393 -0.519,0.178 0,0" /></g><g
           transform="translate(163.5808,141.3359)"
           id="g140"><path
             id="path142"
             style="fill:#ff6d2e;fill-opacity:1;fill-rule:nonzero;stroke:none"
             d="m 0,0 c 0.097,2.602 0.335,3.936 0.547,4.678 0.194,0.677 0.192,0.987 0.191,1.606 -0.003,1.37 -0.262,1.653 -1.624,1.735 -1.409,0.084 -2.415,0.922 -3.452,1.725 -0.373,0.289 -0.716,0.638 -1.131,0.846 -0.261,0.13 -0.715,0.174 -0.923,0.029 -0.207,-0.144 -0.333,-0.596 -0.282,-0.874 0.076,-0.409 0.256,-0.864 0.54,-1.157 0.933,-0.963 0.995,-2.059 0.52,-3.188 -0.936,-2.221 -0.522,-4.009 1.337,-5.602 0.54,-0.464 0.645,-1.432 0.959,-2.165 0.21,-0.49 0.329,-1.075 0.676,-1.44 0.849,-0.895 2.249,-0.44 2.542,0.763 0.047,0.197 0.11,0.396 0.114,0.595 0.014,0.707 0.005,1.416 0.005,2.124 C 0.013,-0.217 0.007,-0.108 0,0" /></g><g
           transform="translate(169.5934,117.5033)"
           id="g144"><path
             id="path146"
             style="fill:#ff6d2e;fill-opacity:1;fill-rule:nonzero;stroke:none"
             d="M 0,0 C -0.395,1.631 -0.747,3.061 -1.085,4.494 -1.225,5.085 -1.339,5.682 -1.459,6.277 -1.675,7.347 -2.088,7.474 -2.993,6.862 -4.406,5.908 -5.819,4.942 -7.31,4.124 -8.15,3.663 -9.137,3.454 -10.076,3.196 -11.2,2.887 -11.547,2.15 -10.912,1.159 c 0.612,-0.957 1.321,-1.842 1.357,-3.068 0.014,-0.501 0.4,-0.697 0.876,-0.43 1.367,0.767 2.769,0.757 4.3,0.521 1.094,-0.168 2.305,0.049 3.388,0.36 C -0.553,-1.332 -0.319,-0.499 0,0" /></g><g
           transform="translate(176.5196,169.1781)"
           id="g148"><path
             id="path150"
             style="fill:#ff6d2e;fill-opacity:1;fill-rule:nonzero;stroke:none"
             d="M 0,0 C 0.106,0.389 0.284,0.959 0.575,1.617 1.402,3.484 2.006,3.564 2.133,4.616 2.236,5.473 2.074,6.378 1.619,7.345 1.191,8.254 1.403,9.109 1.925,9.911 2.026,10.067 2.115,10.232 2.196,10.4 2.464,10.954 2.699,11.616 2.035,11.976 1.8,12.104 1.089,11.632 0.709,11.318 -0.553,10.272 -1.605,8.995 -3.559,8.892 -4.431,8.846 -4.729,7.984 -4.428,6.866 c 0.39,-1.447 0.874,-2.88 1.162,-4.341 0.197,-0.997 0.087,-2.033 0.19,-3.047 0.076,-0.749 0.207,-1.543 1.334,-1.583 0.305,-0.011 0.568,0.048 0.791,0.177 0.457,0.265 0.613,0.764 0.812,1.389 C -0.067,-0.314 -0.025,-0.125 0,0" /></g><g
           transform="translate(122.8091,105.2151)"
           id="g152"><path
             id="path154"
             style="fill:#ff6d2e;fill-opacity:1;fill-rule:nonzero;stroke:none"
             d="m 0,0 c 0.332,1.379 0.691,2.46 0.958,3.193 0.294,0.809 0.47,1.67 0.873,2.431 0.782,1.475 0.786,2.515 -0.28,3.817 -0.563,0.689 -0.859,1.393 -0.826,2.294 0.02,0.521 -0.113,1.074 -0.293,1.57 -0.287,0.786 -0.904,1.149 -1.752,1.039 C -2.143,14.237 -2.362,13.643 -2.513,12.93 -2.861,11.286 -3.193,9.633 -3.671,8.026 -3.962,7.043 -4.622,6.17 -4.921,5.189 -5.014,4.884 -5.06,4.646 -5.073,4.421 c 0,0 -0.016,-0.267 0.021,-0.546 0.069,-0.53 1.015,-3.786 3.443,-4.1 C -1.283,-0.267 -0.72,-0.283 0,0" /></g><g
           transform="translate(110.9121,131.4241)"
           id="g156"><path
             id="path158"
             style="fill:#ff6d2e;fill-opacity:1;fill-rule:nonzero;stroke:none"
             d="m 0,0 c 0.32,-2.031 0.676,-4.186 0.994,-6.346 0.271,-1.835 0.469,-3.68 0.771,-5.508 0.046,-0.277 0.453,-0.549 0.756,-0.694 0.088,-0.042 0.578,0.375 0.567,0.564 -0.152,2.573 1.742,4.127 2.926,6.037 0.547,0.881 1.046,1.805 1.446,2.76 0.402,0.958 0.041,1.709 -0.847,2.309 C 6.291,-0.66 5.998,-0.358 5.782,-0.034 5.092,0.996 4.721,1.098 3.5,0.758 2.412,0.455 1.29,0.274 0,0" /></g><g
           transform="translate(167.1599,149.5503)"
           id="g160"><path
             id="path162"
             style="fill:#ff6d2e;fill-opacity:1;fill-rule:nonzero;stroke:none"
             d="M 0,0 C 0.699,0.111 1.394,0.288 2.096,0.32 3.158,0.368 4.237,0.416 5.286,0.282 6.783,0.091 7.486,0.635 7.169,2.112 6.73,4.159 6.256,6.181 6.552,8.299 6.615,8.756 6.375,9.019 5.87,8.759 4.332,7.968 2.803,7.159 1.255,6.39 0.23,5.882 -0.313,5.147 -0.386,3.953 -0.444,2.991 -0.781,2.048 -0.962,1.09 -1.104,0.343 -0.856,-0.109 0,0" /></g><g
           transform="translate(110.0595,111.5847)"
           id="g164"><path
             id="path166"
             style="fill:#ff6d2e;fill-opacity:1;fill-rule:nonzero;stroke:none"
             d="m 0,0 c 1.741,-0.873 3.49,-1.792 5.289,-2.601 0.245,-0.11 0.986,0.25 1.076,0.529 C 7.138,0.324 7.844,2.743 8.502,5.173 8.721,5.98 8.194,6.157 7.484,6.03 5.585,5.692 3.682,5.373 1.681,5.029 1.204,3.603 0.643,1.922 0,0" /></g><g
           transform="translate(167.4647,157.0537)"
           id="g168"><path
             id="path170"
             style="fill:#ff6d2e;fill-opacity:1;fill-rule:nonzero;stroke:none"
             d="M 0,0 C 0.78,0.309 1.397,0.534 1.998,0.795 3.355,1.387 4.711,1.984 6.052,2.611 6.337,2.745 6.715,2.973 6.785,3.23 7.299,5.102 7.745,6.993 8.21,8.87 6.055,9.439 4.367,9.052 3.359,7.658 2.537,6.521 1.423,5.596 0.594,4.463 0.155,3.862 -0.059,3.035 -0.175,2.279 -0.274,1.635 -0.086,0.947 0,0" /></g><g
           transform="translate(110.1258,142.9993)"
           id="g172"><path
             id="path174"
             style="fill:#ff6d2e;fill-opacity:1;fill-rule:nonzero;stroke:none"
             d="M 0,0 C 1.821,0.251 3.639,0.1 5.016,0.809 6.261,1.45 7.049,3.009 7.976,4.212 8.125,4.405 8.034,4.896 7.9,5.175 7.29,6.443 6.625,7.684 5.94,9.013 2.828,6.828 0.46,4.226 0,0" /></g><g
           transform="translate(132.7121,108.3382)"
           id="g176"><path
             id="path178"
             style="fill:#ff6d2e;fill-opacity:1;fill-rule:nonzero;stroke:none"
             d="M 0,0 C -1.192,0.667 -2.03,2.223 -3.901,1.746 -4.252,1.657 -4.709,1.823 -5.072,1.977 -5.854,2.309 -6.254,1.918 -6.437,1.263 c -0.414,-1.485 -0.805,-2.98 -1.115,-4.489 -0.078,-0.377 0.078,-0.908 0.317,-1.223 0.557,-0.736 1.23,-1.384 1.906,-2.121 1.81,2.231 3.534,4.357 5.329,6.57" /></g><g
           transform="translate(123.2769,155.7341)"
           id="g180"><path
             id="path182"
             style="fill:#ff6d2e;fill-opacity:1;fill-rule:nonzero;stroke:none"
             d="M 0,0 C -0.012,-0.522 0.031,-1.58 0.692,-1.982 0.925,-2.124 1.188,-2.2 1.68,-2.11 3.367,-1.804 4.904,-1.877 6.469,-2.695 7.427,-3.197 8.019,-2.651 8.14,-1.551 8.261,-0.45 8.481,0.64 8.615,1.74 8.656,2.077 8.621,2.311 8.487,2.457 8.253,2.715 7.81,2.664 7.621,2.642 3.03,2.113 1.699,2.113 0.533,0.758 0.391,0.592 0.195,0.341 0,0" /></g><g
           transform="translate(142.8376,125.5846)"
           id="g184"><path
             id="path186"
             style="fill:#ff6d2e;fill-opacity:1;fill-rule:nonzero;stroke:none"
             d="M 0,0 C 1.921,0.086 3.702,0.144 5.479,0.27 5.722,0.287 6.13,0.636 6.138,0.843 6.173,1.81 6.154,2.789 6.018,3.745 5.978,4.02 5.434,4.477 5.206,4.431 3.367,4.06 2.187,5.318 0.814,6.095 0.641,6.193 0.519,6.396 0.34,6.467 -0.124,6.653 -0.606,6.792 -1.081,6.949 -1.146,6.377 -1.237,5.807 -1.26,5.233 -1.268,5.06 -1.126,4.837 -0.987,4.709 0.228,3.591 0.402,2.229 0.005,0.714 -0.034,0.563 0,0.392 0,0" /></g><g
           transform="translate(156.2948,130.0337)"
           id="g188"><path
             id="path190"
             style="fill:#ff6d2e;fill-opacity:1;fill-rule:nonzero;stroke:none"
             d="m 0,0 c 1.461,-2.623 1.288,-5.394 1.463,-8.163 1.095,0.025 2.036,0.163 2.749,1.053 0.282,0.353 0.69,0.669 1.106,0.839 0.84,0.343 0.996,0.944 0.614,1.621 C 5.126,-3.22 4.253,-1.824 3.336,-0.463 3.156,-0.196 2.659,-0.056 2.293,-0.02 1.593,0.049 0.881,0 0,0" /></g><g
           transform="translate(127.6518,114.0015)"
           id="g192"><path
             id="path194"
             style="fill:#ff6d2e;fill-opacity:1;fill-rule:nonzero;stroke:none"
             d="M 0,0 C 1.177,1.763 2.135,3.2 3.204,4.803 1.872,4.956 0.789,5.283 -0.28,4.498 -0.621,4.247 -1.164,4.207 -1.619,4.188 -2.71,4.143 -3.006,3.753 -2.385,2.839 -1.74,1.891 -0.911,1.068 0,0" /></g><g
           transform="translate(131.3396,120.3232)"
           id="g196"><path
             id="path198"
             style="fill:#ff6d2e;fill-opacity:1;fill-rule:nonzero;stroke:none"
             d="M 0,0 C 1.021,2.338 1.977,4.528 2.933,6.718 2.819,6.785 2.706,6.852 2.592,6.919 1.244,5.409 -0.283,4.035 -1.213,2.19 -1.668,1.286 -1.061,0.688 0,0" /></g><g
           transform="translate(140.7777,158.785)"
           id="g200"><path
             id="path202"
             style="fill:#ff6d2e;fill-opacity:1;fill-rule:nonzero;stroke:none"
             d="m 0,0 c -2.701,-0.21 -5.227,-0.407 -7.808,-0.608 -0.015,-1.289 0.468,-1.626 1.264,-1.622 1.536,0.007 3.072,-0.031 4.607,-0.116 C -0.883,-2.405 -0.32,-1.698 0,0" /></g><g
           transform="translate(170.0034,122.2839)"
           id="g204"><path
             id="path206"
             style="fill:#ff6d2e;fill-opacity:1;fill-rule:nonzero;stroke:none"
             d="M 0,0 C 0.227,1.55 0.461,3.099 0.678,4.651 0.781,5.383 0.354,5.514 -0.172,5.236 -1.056,4.77 -1.352,3.905 -1.175,3.001 -0.973,1.966 -0.57,0.97 -0.254,-0.043 -0.17,-0.029 -0.085,-0.014 0,0" /></g><g
           transform="translate(126.1998,101.3904)"
           id="g208"><path
             id="path210"
             style="fill:#ff6d2e;fill-opacity:1;fill-rule:nonzero;stroke:none"
             d="m 0,0 c -1.263,-0.597 -2.526,-1.195 -3.782,-1.789 0.929,-0.469 1.383,-0.464 2.032,0.084 0.635,0.536 1.233,1.098 1.848,1.648 z" /></g><g
           transform="translate(154.1363,114.6138)"
           id="g212"><path
             id="path214"
             style="fill:#ff6d2e;fill-opacity:1;fill-rule:nonzero;stroke:none"
             d="M 0,0 C 0.465,0.12 0.722,0.216 0.987,0.251 2.905,0.507 3.026,0.567 3.325,2.572 3.553,4.097 3.918,5.693 3.169,7.173 2.157,9.174 0.861,10.976 -0.998,12.229 -1.217,12.378 -1.61,12.375 -1.874,12.288 -3.73,11.681 -5.576,11.041 -7.418,10.393 -8.116,10.147 -8.802,9.864 -9.484,9.574 -9.886,9.403 -10.335,9.265 -10.649,8.977 -11.893,7.837 -11.8,7.215 -10.66,6.32 -8.839,4.891 -7.034,3.361 -5.525,1.592 -4.139,-0.034 -2.596,-0.315 -0.788,-0.14 -0.453,-0.108 -0.124,-0.023 0,0" /></g><g
           transform="translate(132.2719,151.5702)"
           id="g216"><path
             id="path218"
             style="fill:#ff6d2e;fill-opacity:1;fill-rule:nonzero;stroke:none"
             d="m 0,0 c 0.499,-0.143 1.017,-0.24 1.494,-0.436 0.721,-0.296 1.454,-0.598 2.11,-1.012 0.937,-0.59 1.572,-0.446 1.819,0.635 C 5.764,0.684 6.075,2.176 6.927,3.494 7.11,3.778 7.032,4.027 6.615,4.011 5.348,3.96 4.08,3.896 2.812,3.863 1.973,3.842 1.385,3.521 0.967,2.749 0.63,2.127 0.114,1.604 -0.303,1.023 -0.628,0.57 -0.603,0.192 0,0" /></g><g
           transform="translate(147.7399,142.5918)"
           id="g220"><path
             id="path222"
             style="fill:#ff6d2e;fill-opacity:1;fill-rule:nonzero;stroke:none"
             d="M 0,0 C 2.637,0.573 5.107,1.111 7.578,1.648 7.526,1.804 7.475,1.96 7.423,2.116 5.109,2.42 2.737,2.989 0.545,2.658 -0.529,2.496 -0.432,1.5 0,0" /></g><g
           transform="translate(161.2045,114.214)"
           id="g224"><path
             id="path226"
             style="fill:#ff6d2e;fill-opacity:1;fill-rule:nonzero;stroke:none"
             d="M 0,0 C 3.761,0.072 6.327,0.153 6.828,0.252 6.9,0.266 7.208,0.332 7.341,0.184 7.397,0.122 7.414,0.013 7.366,-0.178 7.3,-0.26 7.201,-0.331 7.171,-0.425 6.344,-2.964 6.543,-5.788 5.024,-8.137 4.954,-8.244 4.984,-8.418 4.976,-8.561 4.897,-9.85 4.818,-11.14 4.742,-12.43 4.409,-18.089 3.958,-23.746 3.784,-29.41 c -0.121,-3.937 0.035,-7.893 0.27,-11.828 0.144,-2.422 0.709,-4.817 1.015,-7.233 0.257,-2.029 0.05,-4.02 -0.976,-5.838 -0.18,-0.319 -0.646,-0.748 -0.913,-0.706 -2.428,0.387 -4.769,1.046 -6.656,2.754 -1.328,1.202 -1.699,2.605 -0.831,4.166 0.67,1.205 1.671,2.222 2.472,3.36 0.331,0.47 0.703,1.02 0.753,1.561 0.295,3.251 0.636,6.507 0.697,9.767 0.053,2.825 -0.146,5.665 -0.409,8.483 -0.433,4.639 -1,9.265 -1.545,13.893 -0.032,0.276 -0.323,0.681 -0.565,0.742 -0.64,0.161 -1.319,0.166 -2.065,0.242 -0.172,-1.765 -0.338,-3.474 -0.505,-5.182 -0.477,-4.89 -0.955,-9.78 -1.432,-14.67 -0.471,-4.819 -0.961,-9.635 -1.385,-14.458 -0.052,-0.581 0.169,-1.231 0.411,-1.785 0.843,-1.925 1.948,-3.759 2.58,-5.747 0.667,-2.098 -0.426,-3.764 -2.588,-4.149 -1.385,-0.246 -2.868,-0.234 -4.267,-0.041 -1.944,0.269 -2.828,1.767 -3.327,3.522 v 2.156 c 0.568,1.986 1.127,3.946 1.213,6.059 0.249,6.125 0.651,12.243 1,18.363 0.251,4.402 0.564,8.801 0.752,13.206 0.115,2.687 0.696,5.412 -0.693,8.019 -0.107,0.201 -0.282,0.572 -0.14,0.908 0.325,0.774 1.929,0.319 3.545,1.002 1.436,0.606 1.627,1.58 2.62,2.395 C -6.09,0.45 -4.07,1.115 0,0" /></g><g
           transform="translate(127.3083,101.3028)"
           id="g228"><path
             id="path230"
             style="fill:#ff6d2e;fill-opacity:1;fill-rule:nonzero;stroke:none"
             d="m 0,0 v -0.216 c -0.613,-0.648 -1.29,-1.247 -1.821,-1.957 -0.626,-0.839 -1.398,-1.708 -1.626,-2.678 -0.607,-2.575 -0.988,-5.206 -1.401,-7.824 -1.015,-6.433 -1.502,-12.877 -0.571,-19.38 0.219,-1.529 0.503,-2.825 1.942,-3.648 0.418,-0.24 0.735,-0.681 1.051,-1.069 1.561,-1.918 1.38,-3.574 -0.845,-4.639 -1.843,-0.883 -3.92,-1.267 -5.877,-1.921 -0.847,-0.282 -1.269,0.134 -1.652,0.766 -1.079,1.781 -1.1,3.741 -0.638,5.633 0.972,3.971 1.447,8.003 1.271,12.052 -0.279,6.415 -0.829,12.817 -1.289,19.223 -0.075,1.041 -0.277,2.072 -0.419,3.108 -0.108,0.008 -0.215,0.016 -0.322,0.023 -0.987,-1.413 -1.436,-3.027 -1.641,-4.74 -0.537,-4.484 -1.088,-8.967 -1.628,-13.451 -0.544,-4.519 -1.103,-9.037 -1.588,-13.563 -0.056,-0.519 0.244,-1.129 0.516,-1.62 0.797,-1.432 1.843,-2.753 2.456,-4.254 0.759,-1.863 -0.079,-3.289 -2.038,-3.722 -1.141,-0.253 -2.346,-0.271 -3.524,-0.289 -2.248,-0.034 -4.086,0.681 -4.929,2.995 v 1.725 c 0.379,1.33 0.952,2.64 1.098,3.995 0.346,3.208 0.489,6.437 0.714,9.657 0.494,7.049 0.985,14.098 1.483,21.147 0.126,1.783 0.065,3.612 0.461,5.335 0.618,2.691 1.171,5.483 3.357,7.503 h 1.078 c 1.258,-0.776 2.551,-1.402 4.084,-1.464 1.747,-0.072 2.9,-0.987 3.577,-2.63 0.849,-2.061 1.858,-2.501 3.965,-1.817 0.74,0.241 1.376,0.249 2.008,-0.233 C -1.84,1.354 -0.917,0.681 0,0" /></g><g
           transform="translate(145.96,116.8399)"
           id="g232"><path
             id="path234"
             style="fill:#ff6d2e;fill-opacity:1;fill-rule:nonzero;stroke:none"
             d="m 0,0 c -0.713,-2.486 -1.294,-4.511 -1.941,-6.77 1.604,0.317 2.984,0.339 3.935,1.648 0.304,0.417 0.919,0.665 1.441,0.856 1.252,0.457 1.451,1.021 0.39,1.852 C 2.723,-1.551 1.455,-0.903 0,0" /></g></g></g></g></svg>