<?xml version="1.0" encoding="UTF-8" standalone="no"?>
<svg
   xmlns:dc="http://purl.org/dc/elements/1.1/"
   xmlns:cc="http://creativecommons.org/ns#"
   xmlns:rdf="http://www.w3.org/1999/02/22-rdf-syntax-ns#"
   xmlns:svg="http://www.w3.org/2000/svg"
   xmlns="http://www.w3.org/2000/svg"
   viewBox="0 0 609.52399 222.22267"
   height="222.22267"
   width="609.52399"
   xml:space="preserve"
   id="svg2"
   version="1.1"><metadata
     id="metadata8"><rdf:RDF><cc:Work
         rdf:about=""><dc:format>image/svg+xml</dc:format><dc:type
           rdf:resource="http://purl.org/dc/dcmitype/StillImage" /></cc:Work></rdf:RDF></metadata><defs
     id="defs6"><clipPath
       id="clipPath18"
       clipPathUnits="userSpaceOnUse"><path
         id="path16"
         d="M 0,166.667 H 457.143 V 0 H 0 Z" /></clipPath></defs><g
     transform="matrix(1.3333333,0,0,-1.3333333,0,222.22267)"
     id="g10"><g
       id="g12"><g
         clip-path="url(#clipPath18)"
         id="g14"><g
           transform="translate(64.4587,144.9549)"
           id="g20"><path
             id="path22"
             style="fill:#ff6d2e;fill-opacity:1;fill-rule:nonzero;stroke:none"
             d="m 0,0 c -0.226,-0.091 -0.626,-0.293 -0.905,-0.713 -0.26,-0.391 -0.342,-0.781 -0.318,-1.276 0.028,-0.58 0.136,-1.162 0.102,-1.736 -0.028,-0.477 -0.138,-0.98 -0.342,-1.409 -0.352,-0.743 -1.102,-0.802 -1.784,-0.721 -1.256,0.148 -2.495,0.424 -3.748,0.598 -0.974,0.135 -1.958,0.195 -2.937,0.288 h -0.158 c -0.511,-0.034 -1.079,-0.013 -1.361,-0.526 -0.3,-0.548 0.061,-1.027 0.358,-1.455 1.21,-1.744 2.926,-2.574 5.013,-2.701 0.176,-0.01 0.352,-0.003 0.528,-10e-4 1.16,0.013 1.705,-0.46 1.627,-1.612 -0.058,-0.849 -0.261,-1.699 -0.486,-2.526 -1.778,-6.53 -3.519,-13.072 -5.396,-19.574 -0.798,-2.765 -1.899,-5.441 -2.85,-8.162 -0.428,-1.228 -0.834,-2.463 -1.236,-3.699 -0.854,-2.626 -2.419,-4.655 -4.9,-5.945 -0.888,-0.462 -1.75,-0.977 -2.614,-1.484 -0.843,-0.493 -1.495,-1.17 -1.865,-2.087 -0.434,-1.075 -0.852,-2.156 -1.277,-3.235 -0.303,-0.766 -0.656,-1.476 -1.515,-1.785 -0.359,-0.129 -0.354,-0.45 -0.101,-0.674 0.326,-0.287 0.674,-0.616 1.071,-0.745 3.468,-1.13 6.66,-0.754 9.426,2.057 1.011,1.029 1.408,2.264 1.06,3.728 -0.302,1.268 -0.533,2.57 -0.216,3.867 0.147,0.601 0.411,1.197 0.735,1.728 0.876,1.439 1.81,2.844 2.727,4.258 0.764,1.18 1.495,2.386 2.329,3.514 0.314,0.423 0.85,0.716 1.336,0.969 0.545,0.284 0.913,0.713 1.058,1.254 0.341,1.269 0.676,2.549 0.868,3.846 0.375,2.538 0.635,5.093 0.982,7.636 0.075,0.548 0.282,1.088 0.493,1.606 0.424,1.042 1.238,1.552 2.355,1.543 1.484,-0.011 2.854,0.307 4.063,1.223 1.467,1.11 1.828,2.457 1.054,4.131 -0.154,0.335 -0.319,0.67 -0.524,0.975 -0.264,0.396 -0.141,0.664 0.227,0.861 0.34,0.181 0.693,0.34 1.048,0.491 1.438,0.611 2.909,1.152 4.308,1.84 1.202,0.592 2.463,0.793 3.758,0.945 0.469,0.056 0.931,0.179 1.396,0.275 0.476,0.097 0.855,0.287 1.147,0.561 0.465,0.437 0.607,1.021 0.692,1.363 0.071,0.286 0.094,0.531 0.102,0.704 0.017,0.23 0.035,0.46 0.052,0.69 -2.743,0.81 -5.496,1.586 -8.225,2.442 -1.968,0.618 -4.004,1.067 -5.804,2.152 -0.898,0.54 -0.967,0.768 -0.497,1.723 0.341,0.69 0.7,1.382 0.933,2.111 0.14,0.438 0.236,0.911 0.073,1.451 -0.221,0.731 -0.818,1.13 -1.06,1.273 C 0.535,0.025 0.267,0.012 0,0" /></g><g
           transform="translate(64.4222,82.4381)"
           id="g24"><path
             id="path26"
             style="fill:#ff6d2e;fill-opacity:1;fill-rule:nonzero;stroke:none"
             d="M 0,0 C -0.107,0.747 -0.257,0.987 -0.366,1.128 -0.749,1.623 -1.395,1.827 -2.14,1.941 -2.734,2.032 -3.307,2.31 -3.898,2.345 -4.272,2.367 -4.75,2.193 -5.032,1.941 -6.083,1.004 -6.573,-0.28 -6.986,-1.583 c -0.133,-0.42 -0.232,-0.885 -0.19,-1.313 0.024,-0.247 0.346,-0.645 0.56,-0.663 1.759,-0.151 3.07,-1.123 4.323,-2.227 0.067,-0.058 0.132,-0.12 0.205,-0.168 0.091,-0.06 0.189,-0.107 0.312,-0.175 0.334,0.42 0.723,0.985 1.068,1.7 0.333,0.692 0.531,1.328 0.651,1.84 C 0.142,-1.471 0.083,-0.58 0,0" /></g><g
           transform="translate(41.7994,61.8148)"
           id="g28"><path
             id="path30"
             style="fill:#ff6d2e;fill-opacity:1;fill-rule:nonzero;stroke:none"
             d="M 0,0 C -0.016,1.751 0.09,2.898 0.228,3.699 0.273,3.961 0.376,4.512 0.114,5.066 -0.043,5.398 -0.319,5.686 -0.75,5.946 -1.734,6.54 -2.588,7.352 -3.491,8.078 -4.133,8.594 -4.299,8.612 -4.755,7.905 -6.002,5.976 -6.928,3.938 -6.634,1.547 -6.538,0.768 -6.721,0.098 -7.31,-0.462 c -0.434,-0.412 -0.48,-1.107 -0.163,-1.599 0.31,-0.483 0.891,-0.672 1.485,-0.412 0.776,0.34 1.526,0.739 2.293,1.101 0.842,0.397 1.167,0.294 1.85,-0.34 0.35,-0.325 0.881,-0.788 1.229,-0.713 0.125,0.027 0.218,0.077 0.286,0.144 0.258,0.253 0.161,0.654 0.179,1.243 C -0.144,-0.792 -0.113,-0.435 0,0" /></g><g
           transform="translate(28.3903,80.968)"
           id="g32"><path
             id="path34"
             style="fill:#ff6d2e;fill-opacity:1;fill-rule:nonzero;stroke:none"
             d="M 0,0 C 1.495,-0.083 2.573,-0.197 3.414,-0.326 3.72,-0.372 4.265,-0.461 4.784,-0.179 5.096,-0.01 5.352,0.274 5.56,0.691 5.999,1.567 6.429,2.448 6.874,3.321 7.279,4.117 6.853,4.705 6.387,5.266 5.184,6.713 3.616,7.164 1.806,6.859 0.76,6.682 -0.161,6.77 -0.791,7.771 -0.86,7.88 -1.093,7.974 -1.222,7.946 -2.275,7.717 -2.823,6.78 -2.444,5.739 -2.178,5.009 -1.809,4.309 -1.42,3.633 -1.063,3.015 -1.205,2.532 -1.653,2.063 -1.917,1.788 -2.221,1.54 -2.426,1.227 -2.567,1.01 -2.687,0.656 -2.603,0.451 c 0.085,-0.207 0.421,-0.404 0.668,-0.432 0.553,-0.064 1.119,-0.02 1.68,-0.02 C -0.17,-0.001 -0.085,0 0,0" /></g><g
           transform="translate(49.4728,73.5036)"
           id="g36"><path
             id="path38"
             style="fill:#ff6d2e;fill-opacity:1;fill-rule:nonzero;stroke:none"
             d="M 0,0 C 0.319,0 0.5,0.017 0.677,-0.003 1.953,-0.149 2.041,-0.132 2.567,1.042 2.968,1.936 3.468,2.851 3.233,3.87 2.915,5.249 2.382,6.551 1.395,7.608 1.279,7.733 1.025,7.793 0.841,7.782 -0.454,7.705 -1.747,7.606 -3.041,7.502 -3.531,7.463 -4.019,7.398 -4.506,7.329 -4.793,7.288 -5.105,7.275 -5.355,7.149 -6.345,6.651 -6.389,6.257 -5.804,5.532 -4.871,4.374 -3.965,3.157 -3.289,1.841 -2.668,0.632 -1.722,0.218 -0.53,0.039 -0.309,0.006 -0.084,0.006 0,0" /></g><g
           transform="translate(33.8894,78.4124)"
           id="g40"><path
             id="path42"
             style="fill:#ff6d2e;fill-opacity:1;fill-rule:nonzero;stroke:none"
             d="m 0,0 c 0.161,-0.135 0.327,-0.392 0.523,-0.418 2.068,-0.276 3.793,-1.405 5.644,-2.219 0.614,-0.271 1.219,-0.595 1.863,-0.755 0.355,-0.087 0.857,0.006 1.156,0.215 0.419,0.292 0.338,0.813 0.101,1.227 C 8.62,-0.786 8.259,0.448 8.085,1.789 7.883,3.345 7.025,4.46 5.384,4.827 4.753,4.968 4.15,5.25 3.516,5.352 3.166,5.408 2.65,5.35 2.428,5.126 1.462,4.149 0.638,3.067 0.44,1.629 0.37,1.124 0.176,0.636 0,0" /></g><g
           transform="translate(32.7966,70.5206)"
           id="g44"><path
             id="path46"
             style="fill:#ff6d2e;fill-opacity:1;fill-rule:nonzero;stroke:none"
             d="M 0,0 C -0.295,0.415 -0.523,0.909 -0.898,1.229 -2.046,2.211 -3.484,2.623 -4.894,3.052 -5.467,3.226 -5.906,2.886 -6.108,2.355 -6.355,1.709 -6.563,1.044 -6.73,0.373 -7.099,-1.11 -7.754,-2.429 -8.804,-3.551 c -0.178,-0.189 -0.331,-0.434 -0.405,-0.68 -0.215,-0.71 0.212,-1.223 0.918,-1.017 0.946,0.275 1.987,0.345 2.7,1.222 0.38,0.468 1.239,0.325 1.84,-0.174 1.01,-0.838 2.253,-0.551 2.676,0.668 0.344,0.989 0.31,1.502 0.881,3.015 0.054,0.143 0.102,0.259 0.133,0.334 C -0.041,-0.122 -0.02,-0.061 0,0" /></g><g
           transform="translate(66.8272,115.2833)"
           id="g48"><path
             id="path50"
             style="fill:#ff6d2e;fill-opacity:1;fill-rule:nonzero;stroke:none"
             d="M 0,0 C 0.061,0.562 0.076,1.043 0.075,1.417 0.074,1.887 -0.013,2.197 0.014,2.568 0.069,3.328 -0.377,3.716 -0.966,4.021 -1.336,4.212 -1.728,4.56 -2.077,4.524 -2.326,4.498 -2.499,3.932 -2.742,3.636 -3.7,2.471 -4.741,1.394 -6.063,0.629 -6.154,0.577 -6.279,0.537 -6.322,0.456 -6.46,0.191 -6.696,-0.117 -6.646,-0.357 c 0.037,-0.182 0.448,-0.394 0.701,-0.406 1.324,-0.063 2.611,-0.278 3.842,-0.777 0.482,-0.196 0.903,-0.213 1.243,-0.053 0.465,0.218 0.677,0.784 0.723,0.9 C -0.029,-0.416 -0.004,-0.167 0,0" /></g><g
           transform="translate(57.5495,77.9131)"
           id="g52"><path
             id="path54"
             style="fill:#ff6d2e;fill-opacity:1;fill-rule:nonzero;stroke:none"
             d="M 0,0 C -0.418,-0.237 -0.787,-0.392 -1.091,-0.629 -1.863,-1.234 -2.588,-1.9 -3.369,-2.493 -3.81,-2.829 -3.912,-3.217 -3.83,-3.726 c 0.299,-1.855 1.47,-3.18 2.724,-4.441 0.11,-0.111 0.588,-0.044 0.732,0.102 0.562,0.571 1.103,1.175 1.566,1.827 0.381,0.538 0.796,0.897 1.479,0.868 0.369,-0.015 0.617,0.109 0.764,0.501 0.242,0.647 0.578,1.259 0.827,1.904 0.064,0.167 0.024,0.505 -0.094,0.59 -0.792,0.57 -1.598,1.126 -2.44,1.619 C 1.201,-0.448 0.604,-0.259 0,0" /></g><g
           transform="translate(33.5458,76.7416)"
           id="g56"><path
             id="path58"
             style="fill:#ff6d2e;fill-opacity:1;fill-rule:nonzero;stroke:none"
             d="M 0,0 C -0.06,0.747 -0.073,1.38 -0.178,1.997 -0.225,2.27 -0.398,2.659 -0.614,2.746 -2.131,3.354 -3.658,3.959 -5.355,3.803 -6.025,3.742 -6.299,3.521 -6.04,2.919 -5.478,1.614 -6.139,0.734 -6.92,-0.139 c -0.409,-0.457 -0.9,-0.94 -0.66,-1.58 0.258,-0.689 1.008,-0.521 1.583,-0.638 0.888,-0.18 1.782,-0.341 2.651,-0.592 0.786,-0.227 1.398,-0.039 1.938,0.532 0.215,0.227 0.421,0.469 0.665,0.662 C -0.126,-1.267 0.195,-0.68 0,0" /></g><g
           transform="translate(51.0788,89.5368)"
           id="g60"><path
             id="path62"
             style="fill:#ff6d2e;fill-opacity:1;fill-rule:nonzero;stroke:none"
             d="m 0,0 c 0,-0.134 -0.001,-0.269 0,-0.403 0.005,-0.858 0.234,-1.062 1.01,-0.747 1.07,0.435 1.902,0.089 2.693,-0.619 0.311,-0.279 0.66,-0.532 1.028,-0.727 0.531,-0.283 0.904,-0.133 1.074,0.456 0.14,0.487 0.142,1.013 0.252,1.512 C 6.209,0.16 6.339,0.865 6.599,1.515 6.89,2.243 6.727,3.047 6.297,3.699 5.23,5.318 3.75,5.244 2.175,4.833 1.918,4.766 1.656,4.48 1.52,4.228 0.798,2.9 -0.074,1.618 0,0" /></g><g
           transform="translate(58.5343,95.517)"
           id="g64"><path
             id="path66"
             style="fill:#ff6d2e;fill-opacity:1;fill-rule:nonzero;stroke:none"
             d="M 0,0 C 0.066,0.029 0.318,0.058 0.413,0.196 0.92,0.928 1.399,1.68 1.864,2.439 2.191,2.973 2.053,3.515 1.805,4.039 1.518,4.646 1.268,5.276 0.918,5.845 0.778,6.073 0.405,6.306 0.152,6.292 -1.367,6.208 -2.882,6.059 -4.397,5.917 -4.661,5.892 -4.933,5.829 -5.175,5.724 -5.794,5.453 -5.927,5.075 -5.587,4.5 -4.905,3.345 -4.204,2.201 -3.499,1.06 -3.16,0.513 -2.678,0.208 -2.008,0.183 -1.382,0.159 -0.758,0.072 0,0" /></g><g
           transform="translate(59.1068,101.9916)"
           id="g68"><path
             id="path70"
             style="fill:#ff6d2e;fill-opacity:1;fill-rule:nonzero;stroke:none"
             d="M 0,0 C 0.206,-0.096 0.411,-0.196 0.619,-0.285 0.723,-0.329 0.825,-0.403 0.944,-0.375 1.102,-0.337 1.309,-0.293 1.43,-0.1 1.525,0.052 1.555,0.46 1.555,0.708 1.553,1.666 1.533,2.612 1.503,3.547 1.498,3.702 1.418,3.808 1.35,3.889 1.307,3.939 1.224,3.934 1.154,3.897 0.648,3.629 0.205,3.64 -0.218,3.757 -0.267,3.77 -0.379,3.695 -0.417,3.612 -0.626,3.16 -0.89,2.748 -0.912,2.177 -0.924,1.837 -1.024,1.433 -1.107,1.056 -1.212,0.575 -1.139,0.345 -0.927,0.278 -0.619,0.181 -0.312,0.083 -0.005,-0.014 Z" /></g><g
           transform="translate(65.6557,112.0097)"
           id="g72"><path
             id="path74"
             style="fill:#ff6d2e;fill-opacity:1;fill-rule:nonzero;stroke:none"
             d="m 0,0 c -1.718,0.381 -3.466,0.774 -5.216,1.155 -0.607,0.132 -0.886,-0.08 -0.789,-0.686 0.269,-1.672 0.573,-3.338 0.896,-5.001 0.122,-0.627 0.456,-0.982 1.2,-0.78 0.839,0.227 1.704,0.358 2.555,0.543 0.789,0.171 1.223,0.688 1.375,1.463 0.13,0.658 0.254,1.259 0.919,1.692 0.605,0.393 0.412,1.141 -0.268,1.398 C 0.463,-0.137 0.247,-0.078 0,0" /></g><g
           transform="translate(20.1349,80.4488)"
           id="g76"><path
             id="path78"
             style="fill:#ff6d2e;fill-opacity:1;fill-rule:nonzero;stroke:none"
             d="m 0,0 c 0.096,-1.415 0.146,-2.798 0.296,-4.17 0.157,-1.432 0.2,-1.432 1.618,-1.398 0.806,0.019 1.614,0.021 2.415,0.101 0.27,0.026 0.645,0.203 0.756,0.421 0.507,0.99 1.02,1.991 1.372,3.042 C 6.806,-0.963 6.514,-0.47 5.439,-0.3 3.967,-0.066 2.471,0.024 0.984,0.149 0.706,0.172 0.418,0.067 0,0" /></g><g
           transform="translate(39.8038,71.3448)"
           id="g80"><path
             id="path82"
             style="fill:#ff6d2e;fill-opacity:1;fill-rule:nonzero;stroke:none"
             d="M 0,0 C 0.079,-0.008 0.857,-0.075 1.146,0.378 1.421,0.807 1.169,1.489 0.872,1.783 0.273,2.375 -0.337,2.957 -0.944,3.542 -1.617,4.19 -2.28,4.848 -2.975,5.472 -3.109,5.591 -3.427,5.671 -3.564,5.596 -4.775,4.931 -5.797,4.044 -6.475,2.822 -6.603,2.593 -6.652,2.261 -6.601,2.003 c 0.152,-0.767 0.384,-1.518 0.56,-2.281 0.084,-0.362 0.236,-0.487 0.614,-0.37 1.06,0.328 2.126,0.641 3.196,0.935 0.301,0.083 0.572,0.016 0.715,0.008 C -0.867,0.261 -0.345,0.119 0,0" /></g><g
           transform="translate(55.8239,80.4831)"
           id="g84"><path
             id="path86"
             style="fill:#ff6d2e;fill-opacity:1;fill-rule:nonzero;stroke:none"
             d="M 0,0 C 0.064,1.729 0.223,2.616 0.364,3.108 0.492,3.558 0.491,3.764 0.49,4.175 0.488,5.086 0.317,5.274 -0.589,5.328 -1.525,5.384 -2.194,5.941 -2.882,6.475 -3.13,6.667 -3.358,6.899 -3.634,7.036 -3.807,7.123 -4.109,7.153 -4.247,7.056 -4.385,6.96 -4.469,6.66 -4.435,6.476 c 0.051,-0.272 0.171,-0.575 0.359,-0.769 0.62,-0.64 0.662,-1.369 0.346,-2.119 -0.622,-1.476 -0.347,-2.664 0.888,-3.722 0.359,-0.309 0.429,-0.952 0.637,-1.439 0.14,-0.326 0.219,-0.714 0.449,-0.957 0.565,-0.595 1.495,-0.292 1.689,0.508 0.032,0.13 0.074,0.262 0.076,0.395 0.01,0.47 0.004,0.94 0.004,1.411 C 0.009,-0.144 0.004,-0.072 0,0" /></g><g
           transform="translate(59.8191,64.647)"
           id="g88"><path
             id="path90"
             style="fill:#ff6d2e;fill-opacity:1;fill-rule:nonzero;stroke:none"
             d="M 0,0 C -0.262,1.083 -0.496,2.034 -0.721,2.986 -0.814,3.379 -0.89,3.775 -0.97,4.171 -1.113,4.882 -1.387,4.966 -1.989,4.56 -2.928,3.926 -3.867,3.284 -4.858,2.74 -5.415,2.434 -6.071,2.295 -6.695,2.124 -7.442,1.918 -7.673,1.429 -7.251,0.77 c 0.407,-0.635 0.878,-1.224 0.902,-2.039 0.009,-0.333 0.266,-0.462 0.582,-0.285 0.908,0.509 1.84,0.503 2.857,0.346 0.727,-0.112 1.532,0.033 2.252,0.239 C -0.368,-0.885 -0.212,-0.332 0,0" /></g><g
           transform="translate(64.4214,98.9836)"
           id="g92"><path
             id="path94"
             style="fill:#ff6d2e;fill-opacity:1;fill-rule:nonzero;stroke:none"
             d="M 0,0 C 0.071,0.258 0.188,0.637 0.382,1.074 0.931,2.315 1.333,2.368 1.417,3.067 1.486,3.637 1.378,4.238 1.076,4.881 0.791,5.485 0.932,6.053 1.279,6.586 1.346,6.69 1.406,6.799 1.459,6.91 1.637,7.279 1.794,7.718 1.352,7.958 1.196,8.043 0.724,7.729 0.471,7.52 -0.368,6.825 -1.066,5.977 -2.365,5.908 -2.944,5.878 -3.142,5.305 -2.942,4.562 -2.683,3.6 -2.361,2.648 -2.17,1.678 c 0.131,-0.662 0.058,-1.351 0.126,-2.025 0.051,-0.497 0.137,-1.025 0.887,-1.052 0.202,-0.007 0.377,0.032 0.525,0.118 0.304,0.176 0.407,0.508 0.54,0.923 C -0.045,-0.209 -0.016,-0.083 0,0" /></g><g
           transform="translate(28.7322,56.4818)"
           id="g96"><path
             id="path98"
             style="fill:#ff6d2e;fill-opacity:1;fill-rule:nonzero;stroke:none"
             d="M 0,0 C 0.221,0.916 0.459,1.634 0.636,2.122 0.832,2.659 0.949,3.231 1.217,3.737 1.736,4.717 1.739,5.408 1.031,6.273 0.656,6.731 0.46,7.199 0.482,7.798 0.495,8.144 0.407,8.511 0.287,8.841 0.096,9.363 -0.313,9.604 -0.877,9.531 -1.424,9.46 -1.57,9.066 -1.67,8.592 -1.901,7.499 -2.122,6.401 -2.439,5.333 -2.633,4.68 -3.071,4.1 -3.27,3.448 -3.332,3.245 -3.362,3.087 -3.371,2.938 c 0,0 -0.01,-0.178 0.014,-0.363 0.046,-0.352 0.674,-2.516 2.288,-2.724 C -0.852,-0.177 -0.478,-0.188 0,0" /></g><g
           transform="translate(20.827,73.897)"
           id="g100"><path
             id="path102"
             style="fill:#ff6d2e;fill-opacity:1;fill-rule:nonzero;stroke:none"
             d="m 0,0 c 0.213,-1.35 0.449,-2.781 0.661,-4.217 0.179,-1.219 0.311,-2.445 0.512,-3.66 0.03,-0.184 0.301,-0.365 0.502,-0.461 0.058,-0.028 0.384,0.25 0.377,0.375 -0.101,1.71 1.157,2.742 1.944,4.012 0.363,0.585 0.695,1.199 0.961,1.833 0.267,0.637 0.028,1.136 -0.563,1.535 C 4.18,-0.439 3.986,-0.238 3.842,-0.023 3.384,0.662 3.137,0.729 2.326,0.504 1.603,0.303 0.857,0.182 0,0" /></g><g
           transform="translate(58.2021,85.9414)"
           id="g104"><path
             id="path106"
             style="fill:#ff6d2e;fill-opacity:1;fill-rule:nonzero;stroke:none"
             d="M 0,0 C 0.464,0.074 0.926,0.191 1.393,0.213 2.098,0.245 2.815,0.277 3.512,0.188 4.507,0.061 4.974,0.422 4.764,1.403 4.472,2.763 4.157,4.107 4.353,5.515 4.396,5.818 4.236,5.993 3.9,5.82 2.879,5.294 1.863,4.757 0.834,4.246 0.153,3.908 -0.208,3.42 -0.256,2.627 -0.295,1.987 -0.519,1.361 -0.639,0.724 -0.734,0.228 -0.569,-0.072 0,0" /></g><g
           transform="translate(20.2604,60.7143)"
           id="g108"><path
             id="path110"
             style="fill:#ff6d2e;fill-opacity:1;fill-rule:nonzero;stroke:none"
             d="M 0,0 C 1.157,-0.58 2.319,-1.191 3.515,-1.729 3.677,-1.802 4.17,-1.562 4.23,-1.377 4.743,0.215 5.212,1.823 5.65,3.437 5.795,3.973 5.445,4.091 4.973,4.007 3.711,3.782 2.447,3.57 1.117,3.342 0.8,2.394 0.427,1.277 0,0" /></g><g
           transform="translate(58.4046,90.9272)"
           id="g112"><path
             id="path114"
             style="fill:#ff6d2e;fill-opacity:1;fill-rule:nonzero;stroke:none"
             d="M 0,0 C 0.518,0.205 0.928,0.355 1.328,0.529 2.229,0.922 3.13,1.318 4.021,1.735 4.211,1.824 4.462,1.975 4.509,2.146 4.85,3.39 5.146,4.646 5.455,5.894 4.024,6.272 2.902,6.015 2.232,5.088 1.686,4.333 0.945,3.718 0.395,2.966 0.103,2.566 -0.039,2.016 -0.116,1.514 -0.182,1.086 -0.057,0.629 0,0" /></g><g
           transform="translate(20.3045,81.5885)"
           id="g116"><path
             id="path118"
             style="fill:#ff6d2e;fill-opacity:1;fill-rule:nonzero;stroke:none"
             d="M 0,0 C 1.21,0.167 2.418,0.067 3.333,0.537 4.16,0.963 4.684,1.999 5.3,2.799 5.399,2.927 5.338,3.253 5.249,3.438 4.844,4.281 4.402,5.106 3.947,5.989 1.879,4.537 0.305,2.808 0,0" /></g><g
           transform="translate(35.3125,58.5571)"
           id="g120"><path
             id="path122"
             style="fill:#ff6d2e;fill-opacity:1;fill-rule:nonzero;stroke:none"
             d="M 0,0 C -0.792,0.443 -1.349,1.477 -2.592,1.16 -2.825,1.101 -3.129,1.212 -3.37,1.314 -3.89,1.534 -4.156,1.275 -4.277,0.839 c -0.275,-0.987 -0.535,-1.98 -0.741,-2.982 -0.052,-0.251 0.052,-0.604 0.211,-0.814 0.37,-0.488 0.817,-0.919 1.266,-1.409 C -2.338,-2.883 -1.193,-1.47 0,0" /></g><g
           transform="translate(29.043,90.0504)"
           id="g124"><path
             id="path126"
             style="fill:#ff6d2e;fill-opacity:1;fill-rule:nonzero;stroke:none"
             d="m 0,0 c -0.008,-0.347 0.021,-1.05 0.46,-1.317 0.155,-0.094 0.329,-0.145 0.657,-0.085 1.12,0.203 2.142,0.155 3.182,-0.389 0.636,-0.333 1.03,0.029 1.11,0.761 0.08,0.731 0.227,1.455 0.316,2.186 C 5.752,1.38 5.728,1.535 5.639,1.633 5.484,1.804 5.189,1.77 5.064,1.756 2.013,1.404 1.129,1.404 0.354,0.504 0.26,0.394 0.129,0.227 0,0" /></g><g
           transform="translate(42.0406,70.0168)"
           id="g128"><path
             id="path130"
             style="fill:#ff6d2e;fill-opacity:1;fill-rule:nonzero;stroke:none"
             d="M 0,0 C 1.276,0.057 2.46,0.096 3.641,0.18 3.802,0.191 4.073,0.423 4.078,0.56 4.101,1.202 4.089,1.853 3.999,2.488 3.972,2.671 3.611,2.975 3.459,2.945 2.238,2.698 1.453,3.533 0.541,4.05 0.426,4.115 0.345,4.25 0.226,4.297 -0.082,4.421 -0.403,4.513 -0.718,4.618 -0.761,4.238 -0.822,3.858 -0.838,3.477 -0.842,3.362 -0.748,3.214 -0.656,3.129 0.151,2.386 0.267,1.481 0.004,0.475 -0.023,0.374 0,0.261 0,0" /></g><g
           transform="translate(50.9825,72.9732)"
           id="g132"><path
             id="path134"
             style="fill:#ff6d2e;fill-opacity:1;fill-rule:nonzero;stroke:none"
             d="m 0,0 c 0.971,-1.743 0.856,-3.584 0.972,-5.424 0.728,0.016 1.353,0.108 1.827,0.7 0.187,0.234 0.458,0.444 0.735,0.557 0.558,0.228 0.662,0.627 0.408,1.077 -0.536,0.95 -1.116,1.878 -1.725,2.782 -0.12,0.178 -0.45,0.271 -0.693,0.295 C 1.058,0.032 0.585,0 0,0" /></g><g
           transform="translate(31.95,62.3202)"
           id="g136"><path
             id="path138"
             style="fill:#ff6d2e;fill-opacity:1;fill-rule:nonzero;stroke:none"
             d="M 0,0 C 0.782,1.172 1.419,2.127 2.129,3.191 1.244,3.293 0.524,3.51 -0.186,2.989 -0.413,2.822 -0.773,2.795 -1.076,2.783 -1.801,2.753 -1.998,2.494 -1.585,1.886 -1.156,1.256 -0.605,0.71 0,0" /></g><g
           transform="translate(34.4005,66.5208)"
           id="g140"><path
             id="path142"
             style="fill:#ff6d2e;fill-opacity:1;fill-rule:nonzero;stroke:none"
             d="M 0,0 C 0.678,1.553 1.314,3.009 1.949,4.464 1.873,4.508 1.798,4.553 1.722,4.597 0.826,3.594 -0.188,2.681 -0.806,1.455 -1.108,0.855 -0.705,0.457 0,0" /></g><g
           transform="translate(40.6719,92.0776)"
           id="g144"><path
             id="path146"
             style="fill:#ff6d2e;fill-opacity:1;fill-rule:nonzero;stroke:none"
             d="m 0,0 c -1.795,-0.14 -3.473,-0.27 -5.188,-0.404 -0.01,-0.856 0.31,-1.08 0.84,-1.078 1.02,0.005 2.041,-0.02 3.061,-0.077 C -0.587,-1.598 -0.212,-1.128 0,0" /></g><g
           transform="translate(60.0915,67.8236)"
           id="g148"><path
             id="path150"
             style="fill:#ff6d2e;fill-opacity:1;fill-rule:nonzero;stroke:none"
             d="M 0,0 C 0.151,1.03 0.306,2.059 0.451,3.09 0.519,3.577 0.235,3.664 -0.114,3.479 -0.702,3.169 -0.898,2.595 -0.781,1.994 -0.647,1.306 -0.379,0.644 -0.169,-0.029 -0.113,-0.019 -0.056,-0.01 0,0" /></g><g
           transform="translate(30.9852,53.9404)"
           id="g152"><path
             id="path154"
             style="fill:#ff6d2e;fill-opacity:1;fill-rule:nonzero;stroke:none"
             d="m 0,0 c -0.839,-0.397 -1.678,-0.794 -2.513,-1.189 0.617,-0.311 0.919,-0.308 1.35,0.056 0.422,0.357 0.82,0.729 1.228,1.095 z" /></g><g
           transform="translate(49.5482,62.727)"
           id="g156"><path
             id="path158"
             style="fill:#ff6d2e;fill-opacity:1;fill-rule:nonzero;stroke:none"
             d="M 0,0 C 0.309,0.08 0.48,0.143 0.656,0.167 1.93,0.337 2.011,0.377 2.21,1.709 2.361,2.722 2.603,3.783 2.106,4.766 1.433,6.096 0.572,7.293 -0.663,8.126 -0.809,8.225 -1.07,8.223 -1.245,8.165 -2.478,7.761 -3.705,7.337 -4.929,6.906 -5.393,6.743 -5.849,6.554 -6.302,6.362 -6.569,6.248 -6.867,6.156 -7.076,5.965 -7.903,5.208 -7.841,4.794 -7.083,4.2 -5.873,3.25 -4.674,2.234 -3.671,1.058 -2.75,-0.023 -1.725,-0.209 -0.523,-0.093 -0.301,-0.072 -0.083,-0.015 0,0" /></g><g
           transform="translate(35.0199,87.2835)"
           id="g160"><path
             id="path162"
             style="fill:#ff6d2e;fill-opacity:1;fill-rule:nonzero;stroke:none"
             d="m 0,0 c 0.332,-0.095 0.675,-0.159 0.992,-0.29 0.48,-0.196 0.967,-0.397 1.403,-0.672 0.622,-0.392 1.045,-0.296 1.208,0.422 0.227,0.995 0.434,1.986 1,2.862 C 4.725,2.51 4.672,2.676 4.396,2.665 3.553,2.632 2.711,2.588 1.869,2.567 1.311,2.553 0.92,2.339 0.642,1.827 0.418,1.414 0.076,1.066 -0.201,0.68 -0.418,0.379 -0.401,0.128 0,0" /></g><g
           transform="translate(45.2981,81.3176)"
           id="g164"><path
             id="path166"
             style="fill:#ff6d2e;fill-opacity:1;fill-rule:nonzero;stroke:none"
             d="M 0,0 C 1.752,0.381 3.394,0.738 5.035,1.095 5.001,1.199 4.967,1.302 4.933,1.406 3.395,1.608 1.819,1.986 0.362,1.766 -0.351,1.658 -0.287,0.997 0,0" /></g><g
           transform="translate(54.2449,62.4613)"
           id="g168"><path
             id="path170"
             style="fill:#ff6d2e;fill-opacity:1;fill-rule:nonzero;stroke:none"
             d="M 0,0 C 2.499,0.048 4.204,0.102 4.537,0.168 4.585,0.177 4.79,0.221 4.878,0.122 4.915,0.081 4.927,0.009 4.895,-0.118 4.85,-0.172 4.785,-0.22 4.765,-0.282 4.216,-1.969 4.347,-3.846 3.338,-5.407 3.292,-5.478 3.312,-5.593 3.306,-5.688 3.254,-6.545 3.202,-7.402 3.151,-8.259 2.929,-12.02 2.63,-15.778 2.514,-19.542 c -0.08,-2.616 0.023,-5.245 0.18,-7.859 0.096,-1.61 0.471,-3.201 0.674,-4.806 0.171,-1.349 0.034,-2.672 -0.648,-3.88 -0.12,-0.212 -0.429,-0.497 -0.607,-0.469 -1.613,0.257 -3.169,0.695 -4.423,1.83 -0.882,0.799 -1.128,1.731 -0.552,2.768 0.446,0.801 1.11,1.477 1.643,2.233 0.22,0.312 0.467,0.678 0.5,1.037 0.196,2.16 0.423,4.324 0.463,6.49 0.036,1.877 -0.097,3.764 -0.272,5.636 -0.288,3.083 -0.664,6.157 -1.026,9.233 -0.021,0.183 -0.215,0.451 -0.376,0.492 -0.425,0.107 -0.876,0.111 -1.372,0.161 -0.114,-1.173 -0.224,-2.308 -0.335,-3.444 -0.317,-3.249 -0.635,-6.498 -0.952,-9.747 -0.313,-3.202 -0.638,-6.402 -0.92,-9.607 -0.034,-0.386 0.112,-0.818 0.273,-1.186 0.56,-1.279 1.294,-2.498 1.714,-3.819 0.444,-1.394 -0.283,-2.501 -1.719,-2.757 -0.921,-0.163 -1.906,-0.155 -2.836,-0.027 -1.291,0.178 -1.879,1.174 -2.21,2.34 v 1.433 c 0.377,1.319 0.749,2.622 0.806,4.026 0.165,4.07 0.432,8.135 0.664,12.202 0.167,2.925 0.375,5.848 0.5,8.775 0.076,1.785 0.462,3.596 -0.46,5.328 -0.072,0.134 -0.188,0.38 -0.094,0.604 0.216,0.513 1.282,0.212 2.356,0.665 0.954,0.403 1.081,1.05 1.741,1.592 C -4.047,0.299 -2.704,0.741 0,0" /></g><g
           transform="translate(31.7218,53.8822)"
           id="g172"><path
             id="path174"
             style="fill:#ff6d2e;fill-opacity:1;fill-rule:nonzero;stroke:none"
             d="m 0,0 v -0.143 c -0.407,-0.431 -0.857,-0.829 -1.21,-1.301 -0.416,-0.557 -0.929,-1.135 -1.081,-1.779 -0.403,-1.711 -0.656,-3.46 -0.93,-5.199 -0.675,-4.275 -0.998,-8.556 -0.38,-12.878 0.146,-1.016 0.335,-1.877 1.291,-2.424 0.278,-0.159 0.488,-0.452 0.698,-0.71 1.037,-1.275 0.917,-2.375 -0.562,-3.083 -1.224,-0.586 -2.604,-0.842 -3.905,-1.276 -0.562,-0.188 -0.843,0.089 -1.097,0.509 -0.717,1.183 -0.731,2.486 -0.424,3.743 0.646,2.639 0.961,5.318 0.844,8.009 -0.185,4.262 -0.551,8.516 -0.856,12.773 -0.05,0.691 -0.184,1.376 -0.279,2.065 -0.071,0.005 -0.142,0.01 -0.214,0.015 -0.656,-0.939 -0.954,-2.012 -1.09,-3.15 -0.357,-2.979 -0.723,-5.958 -1.082,-8.937 -0.361,-3.003 -0.733,-6.005 -1.055,-9.013 -0.037,-0.345 0.162,-0.75 0.343,-1.076 0.529,-0.952 1.225,-1.829 1.632,-2.827 0.504,-1.238 -0.053,-2.185 -1.355,-2.473 -0.757,-0.168 -1.558,-0.18 -2.341,-0.192 -1.494,-0.023 -2.715,0.452 -3.275,1.99 v 1.146 c 0.252,0.884 0.632,1.754 0.73,2.655 0.229,2.131 0.324,4.277 0.474,6.417 0.328,4.684 0.654,9.368 0.985,14.051 0.084,1.185 0.044,2.4 0.306,3.545 0.411,1.788 0.779,3.644 2.231,4.986 h 0.717 C -10.05,4.927 -9.19,4.511 -8.172,4.47 -7.011,4.422 -6.245,3.814 -5.795,2.722 -5.231,1.353 -4.56,1.061 -3.16,1.515 -2.668,1.675 -2.246,1.68 -1.826,1.36 -1.223,0.9 -0.609,0.453 0,0" /></g><g
           transform="translate(44.1154,64.2062)"
           id="g176"><path
             id="path178"
             style="fill:#ff6d2e;fill-opacity:1;fill-rule:nonzero;stroke:none"
             d="m 0,0 c -0.474,-1.652 -0.86,-2.998 -1.29,-4.498 1.066,0.21 1.983,0.225 2.615,1.094 0.202,0.278 0.611,0.443 0.958,0.569 0.831,0.304 0.963,0.679 0.258,1.231 C 1.81,-1.031 0.967,-0.6 0,0" /></g><g
           transform="translate(95.4823,24.8127)"
           id="g180"><path
             id="path182"
             style="fill:#ff6d2e;fill-opacity:1;fill-rule:nonzero;stroke:none"
             d="m 0,0 h -1.591 l -8.635,8.074 v -8.05 h -1.264 v 16.355 h 1.264 V 8.915 l 7.956,7.464 h 1.521 V 16.263 L -8.986,8.541 0,0.094 Z" /></g><g
           transform="translate(101.9212,41.1921)"
           id="g184"><path
             id="path186"
             style="fill:#ff6d2e;fill-opacity:1;fill-rule:nonzero;stroke:none"
             d="M 0,0 11.021,-13.547 V 0 h 1.24 V -16.379 H 11.77 L 0.725,-2.854 v -13.525 h -1.263 l 0,16.379 z" /></g><g
           transform="translate(122.8213,33.0024)"
           id="g188"><path
             id="path190"
             style="fill:#ff6d2e;fill-opacity:1;fill-rule:nonzero;stroke:none"
             d="m 0,0 c 0.023,-3.697 2.363,-7.301 7.019,-7.301 4.681,0 7.044,3.604 7.044,7.301 0,3.791 -2.34,7.278 -7.044,7.278 C 2.316,7.278 -0.024,3.862 0,0 m 15.28,-0.024 c -0.024,-4.304 -2.761,-8.447 -8.261,-8.447 -5.499,0 -8.259,4.165 -8.259,8.495 0,4.398 2.738,8.423 8.259,8.423 5.523,0 8.284,-4.047 8.261,-8.471" /></g><g
           transform="translate(154.6968,41.1921)"
           id="g192"><path
             id="path194"
             style="fill:#ff6d2e;fill-opacity:1;fill-rule:nonzero;stroke:none"
             d="M 0,0 H 0.702 L 5.709,-14.976 10.788,0 h 1.357 L 6.365,-16.427 H 5.008 L 2.41,-8.752 0.351,-2.27 -1.708,-8.705 -4.329,-16.427 H -5.686 L -11.42,0 h 1.335 l 5.054,-14.976 z" /></g><g
           transform="translate(188.892,31.3651)"
           id="g196"><path
             id="path198"
             style="fill:#ff6d2e;fill-opacity:1;fill-rule:nonzero;stroke:none"
             d="m 0,0 -6.388,9.803 v 0.024 h 1.474 l 5.546,-8.61 5.569,8.61 H 7.676 V 9.803 L 1.264,0 V -6.552 H 0 Z" /></g><g
           transform="translate(203.6148,33.0024)"
           id="g200"><path
             id="path202"
             style="fill:#ff6d2e;fill-opacity:1;fill-rule:nonzero;stroke:none"
             d="m 0,0 c 0.023,-3.697 2.363,-7.301 7.019,-7.301 4.681,0 7.044,3.604 7.044,7.301 0,3.791 -2.34,7.278 -7.044,7.278 C 2.316,7.278 -0.024,3.862 0,0 m 15.28,-0.024 c -0.024,-4.304 -2.761,-8.447 -8.261,-8.447 -5.499,0 -8.259,4.165 -8.259,8.495 0,4.398 2.738,8.423 8.259,8.423 5.523,0 8.284,-4.047 8.261,-8.471" /></g><g
           transform="translate(238.6497,41.1921)"
           id="g204"><path
             id="path206"
             style="fill:#ff6d2e;fill-opacity:1;fill-rule:nonzero;stroke:none"
             d="m 0,0 v -10.179 c 0,-8.565 -12.543,-8.587 -12.543,0 V 0 h 1.24 v -10.179 c 0,-7.044 10.062,-7.02 10.062,0 l 0,10.179 z" /></g><g
           transform="translate(247.5924,32.2065)"
           id="g208"><path
             id="path210"
             style="fill:#ff6d2e;fill-opacity:1;fill-rule:nonzero;stroke:none"
             d="M 0,0 H 5.803 C 8.658,0 9.921,1.615 9.945,3.909 9.968,5.827 8.658,7.816 5.943,7.816 H 0 Z M 11.793,-7.394 H 10.132 L 4.469,-1.193 H 0 v -6.201 h -1.264 v 16.38 h 7.207 c 3.558,0 5.359,-2.55 5.382,-5.101 0.024,-2.667 -1.731,-5.007 -5.312,-5.007 z" /></g><g
           transform="translate(277.6204,40.0226)"
           id="g212"><path
             id="path214"
             style="fill:#ff6d2e;fill-opacity:1;fill-rule:nonzero;stroke:none"
             d="m 0,0 v -8.4 h 5.92 c 5.453,0 5.453,8.4 0,8.4 z M 0,-9.548 V -15.21 H -1.264 V 1.169 H 5.92 c 7.113,0 7.113,-10.717 0,-10.717 z" /></g><g
           transform="translate(296.4154,33.0024)"
           id="g216"><path
             id="path218"
             style="fill:#ff6d2e;fill-opacity:1;fill-rule:nonzero;stroke:none"
             d="m 0,0 c 0.024,-3.697 2.363,-7.301 7.019,-7.301 4.681,0 7.044,3.604 7.044,7.301 0,3.791 -2.34,7.278 -7.044,7.278 C 2.316,7.278 -0.024,3.862 0,0 m 15.28,-0.024 c -0.024,-4.304 -2.762,-8.447 -8.261,-8.447 -5.498,0 -8.259,4.165 -8.259,8.495 0,4.398 2.738,8.423 8.259,8.423 5.523,0 8.284,-4.047 8.261,-8.471" /></g><g
           transform="translate(328.2901,41.1921)"
           id="g220"><path
             id="path222"
             style="fill:#ff6d2e;fill-opacity:1;fill-rule:nonzero;stroke:none"
             d="M 0,0 H 0.702 L 5.709,-14.976 10.788,0 h 1.357 L 6.365,-16.427 H 5.008 L 2.41,-8.752 0.351,-2.27 -1.708,-8.705 -4.329,-16.427 H -5.686 L -11.42,0 h 1.335 l 5.054,-14.976 z" /></g><g
           transform="translate(348.093,33.6351)"
           id="g224"><path
             id="path226"
             style="fill:#ff6d2e;fill-opacity:1;fill-rule:nonzero;stroke:none"
             d="M 0,0 H 9.594 V -1.148 H 0 V -7.606 H 10.343 V -8.822 H -1.24 V 7.557 H 10.062 V 6.364 L 0,6.364 Z" /></g><g
           transform="translate(366.724,32.2065)"
           id="g228"><path
             id="path230"
             style="fill:#ff6d2e;fill-opacity:1;fill-rule:nonzero;stroke:none"
             d="M 0,0 H 5.803 C 8.658,0 9.921,1.615 9.945,3.909 9.968,5.827 8.658,7.816 5.943,7.816 H 0 Z M 11.793,-7.394 H 10.132 L 4.469,-1.193 H 0 v -6.201 h -1.264 v 16.38 h 7.207 c 3.558,0 5.359,-2.55 5.382,-5.101 0.024,-2.667 -1.731,-5.007 -5.311,-5.007 z" /></g><g
           transform="translate(77.4873,54.2553)"
           id="g232"><path
             id="path234"
             style="fill:#ff6d2e;fill-opacity:1;fill-rule:nonzero;stroke:none"
             d="m 0,0 c 5.504,0 6.116,3.466 6.116,8.562 v 47.701 c 0,5.097 -0.612,8.561 -6.116,8.561 v 0.613 l 22.321,2.037 V 35.062 c 4.18,4.179 9.785,7.848 16.411,7.848 6.931,0 12.842,-3.976 12.842,-13.963 V 8.562 C 51.574,3.466 52.186,0 57.69,0 V -0.611 H 30.272 V 0 c 4.28,0 5.096,3.466 5.096,8.562 V 30.78 c 0,4.996 -2.242,7.035 -5.402,7.035 -3.058,0 -5.606,-1.732 -7.645,-3.67 V 8.562 C 22.321,3.466 22.934,0 28.437,0 V -0.611 H 0 Z" /></g><g
           transform="translate(156.0683,77.5957)"
           id="g236"><path
             id="path238"
             style="fill:#ff6d2e;fill-opacity:1;fill-rule:nonzero;stroke:none"
             d="m 0,0 h 13.759 c 0,4.178 0.103,19.061 -6.42,19.061 C 1.733,19.061 0,7.645 0,0 m -16.613,-2.854 c 0,12.334 9.478,22.424 24.257,22.424 13.046,0 21.405,-7.95 21.914,-20.385 L 0,-0.815 c 0.102,-13.455 5.3,-21.71 14.575,-21.71 6.625,0 11.213,4.282 14.269,7.949 l 0.51,-0.406 c -3.669,-4.486 -9.581,-10.091 -21.404,-10.091 -16.206,0 -24.563,10.601 -24.563,22.219" /></g><g
           transform="translate(220.9913,59.7583)"
           id="g240"><path
             id="path242"
             style="fill:#ff6d2e;fill-opacity:1;fill-rule:nonzero;stroke:none"
             d="m 0,0 v 14.576 c -1.529,0.408 -3.363,0.815 -4.892,0.815 -5.301,0 -7.542,-3.669 -7.542,-9.785 0,-4.993 1.529,-9.478 5.911,-9.478 2.142,0 4.383,1.121 6.523,3.872 m -29.048,4.791 c 0,8.665 8.052,11.927 17.939,11.927 3.77,0 7.949,-0.511 11.109,-1.327 v 10.702 c 0,5.811 -1.223,10.805 -7.848,10.805 -4.282,0 -6.931,-2.14 -8.663,-4.485 2.751,-1.324 4.485,-4.28 4.485,-7.237 0,-4.178 -3.365,-7.44 -7.747,-7.44 -4.79,0 -7.338,3.976 -7.338,7.645 0,6.726 8.154,12.026 20.18,12.026 10.704,0 23.138,-4.28 23.138,-16.511 V -0.917 c 0,-1.935 1.018,-2.854 2.649,-2.854 2.549,0 4.892,2.55 6.523,4.996 L 25.89,0.919 c -2.854,-4.077 -6.32,-8.053 -13.454,-8.053 -6.32,0 -9.99,3.16 -11.519,7.134 -2.751,-3.771 -7.235,-7.235 -14.982,-7.235 -8.868,0 -14.983,4.484 -14.983,12.026" /></g><g
           transform="translate(279.4936,59.5554)"
           id="g244"><path
             id="path246"
             style="fill:#ff6d2e;fill-opacity:1;fill-rule:nonzero;stroke:none"
             d="m 0,0 v 31.699 c -1.325,2.751 -3.566,4.994 -6.422,4.994 -6.929,0 -8.458,-13.353 -8.458,-20.997 0,-10.702 3.057,-18.448 9.071,-18.448 2.446,0 4.383,1.324 5.809,2.752 m -31.801,15.085 c 0,12.13 7.44,22.525 21.712,22.525 4.789,0 7.949,-1.223 10.089,-2.345 v 15.698 c 0,6.217 -2.649,8.561 -8.154,8.561 v 0.613 l 24.361,2.036 V 3.262 c 0,-5.096 0.612,-8.562 6.115,-8.562 V -5.911 H 0.511 v 5.402 c -2.856,-3.365 -7.237,-6.523 -13.76,-6.523 -11.824,0 -18.552,10.6 -18.552,22.117" /></g><g
           transform="translate(332.1865,66.4863)"
           id="g248"><path
             id="path250"
             style="fill:#ff6d2e;fill-opacity:1;fill-rule:nonzero;stroke:none"
             d="m 0,0 v 19.061 c 0,5.095 -0.612,8.867 -6.117,8.867 v 0.611 l 22.322,2.039 V -1.836 c 0,-4.993 2.243,-7.032 5.401,-7.032 2.958,0 5.505,1.631 7.645,3.669 v 24.26 c 0,5.095 -0.815,8.867 -5.095,8.867 v 0.611 l 21.302,2.039 V -3.363 c 0,-5.097 0.61,-8.868 6.115,-8.868 v -0.611 H 29.76 v 7.236 C 25.48,-10.091 19.671,-13.963 12.842,-13.963 5.911,-13.963 0,-9.99 0,0" /></g><g
           transform="translate(408.4247,90.133)"
           id="g252"><path
             id="path254"
             style="fill:#ff6d2e;fill-opacity:1;fill-rule:nonzero;stroke:none"
             d="m 0,0 v -28.334 c 0,-6.014 3.464,-8.359 6.523,-8.359 6.828,0 8.357,12.537 8.357,20.793 0,11.618 -3.059,18.652 -8.969,18.652 C 3.262,2.752 1.325,1.426 0,0 m -22.322,-52.492 c 5.503,0 6.115,3.773 6.115,8.868 v 39.038 c 0,5.095 -0.612,8.868 -6.115,8.868 v 0.61 L -0.511,6.931 V 0.408 c 2.854,3.363 7.237,6.624 13.76,6.624 11.824,0 18.552,-10.6 18.552,-22.117 0,-12.13 -7.442,-22.525 -21.712,-22.525 -4.791,0 -8.052,1.122 -10.089,2.343 v -9.172 c 0,-5.096 1.834,-8.053 7.134,-8.053 v -0.611 h -29.456 z" /></g></g></g></g></svg>