<?xml version="1.0" encoding="UTF-8" standalone="no"?>
<svg
   xmlns:dc="http://purl.org/dc/elements/1.1/"
   xmlns:cc="http://creativecommons.org/ns#"
   xmlns:rdf="http://www.w3.org/1999/02/22-rdf-syntax-ns#"
   xmlns:svg="http://www.w3.org/2000/svg"
   xmlns="http://www.w3.org/2000/svg"
   viewBox="0 0 330.15866 579.36536"
   height="579.36536"
   width="330.15866"
   xml:space="preserve"
   id="svg2"
   version="1.1"><metadata
     id="metadata8"><rdf:RDF><cc:Work
         rdf:about=""><dc:format>image/svg+xml</dc:format><dc:type
           rdf:resource="http://purl.org/dc/dcmitype/StillImage" /></cc:Work></rdf:RDF></metadata><defs
     id="defs6"><clipPath
       id="clipPath18"
       clipPathUnits="userSpaceOnUse"><path
         id="path16"
         d="M 0,434.524 H 247.619 V 0 H 0 Z" /></clipPath></defs><g
     transform="matrix(1.3333333,0,0,-1.3333333,0,579.36533)"
     id="g10"><g
       id="g12"><g
         clip-path="url(#clipPath18)"
         id="g14"><g
           transform="translate(179.5984,416.6544)"
           id="g20"><path
             id="path22"
             style="fill:#ff6d2e;fill-opacity:1;fill-rule:nonzero;stroke:none"
             d="m 0,0 c -0.75,-0.303 -2.073,-0.971 -2.997,-2.362 -0.861,-1.296 -1.132,-2.588 -1.053,-4.227 0.093,-1.921 0.451,-3.848 0.338,-5.752 -0.093,-1.58 -0.46,-3.243 -1.134,-4.667 -1.165,-2.46 -3.651,-2.655 -5.911,-2.388 -4.158,0.492 -8.264,1.407 -12.415,1.982 -3.225,0.447 -6.484,0.647 -9.729,0.953 h -0.525 c -1.69,-0.112 -3.574,-0.042 -4.506,-1.743 -0.995,-1.815 0.201,-3.4 1.185,-4.817 4.008,-5.779 9.692,-8.529 16.607,-8.948 0.581,-0.035 1.166,-0.011 1.75,-0.005 3.842,0.044 5.645,-1.525 5.387,-5.338 -0.19,-2.815 -0.864,-5.631 -1.609,-8.368 -5.889,-21.634 -11.657,-43.304 -17.874,-64.843 -2.643,-9.158 -6.291,-18.025 -9.441,-27.039 -1.42,-4.065 -2.764,-8.157 -4.096,-12.251 -2.829,-8.699 -8.013,-15.421 -16.231,-19.695 -2.943,-1.531 -5.796,-3.237 -8.66,-4.915 -2.792,-1.635 -4.954,-3.877 -6.179,-6.913 -1.437,-3.561 -2.82,-7.144 -4.23,-10.716 -1.001,-2.538 -2.17,-4.89 -5.019,-5.915 -1.188,-0.428 -1.172,-1.489 -0.332,-2.231 1.078,-0.953 2.231,-2.041 3.548,-2.47 11.486,-3.743 22.061,-2.496 31.222,6.817 3.352,3.407 4.665,7.498 3.512,12.348 -0.999,4.2 -1.763,8.513 -0.714,12.809 0.486,1.992 1.363,3.967 2.433,5.724 2.904,4.768 5.996,9.422 9.034,14.108 2.533,3.907 4.952,7.901 7.716,11.638 1.039,1.404 2.815,2.373 4.425,3.211 1.807,0.941 3.024,2.362 3.505,4.152 1.13,4.204 2.24,8.446 2.875,12.743 1.244,8.407 2.103,16.871 3.254,25.293 0.248,1.817 0.935,3.606 1.633,5.322 1.404,3.451 4.102,5.139 7.8,5.112 4.917,-0.036 9.455,1.017 13.461,4.049 4.859,3.679 6.056,8.14 3.492,13.687 -0.513,1.109 -1.059,2.218 -1.736,3.23 -0.877,1.31 -0.469,2.198 0.75,2.85 1.126,0.602 2.296,1.128 3.472,1.628 4.763,2.023 9.638,3.814 14.272,6.096 3.982,1.961 8.16,2.624 12.449,3.129 1.555,0.184 3.083,0.594 4.622,0.909 1.577,0.324 2.835,0.953 3.802,1.86 1.541,1.446 2.011,3.384 2.292,4.515 0.235,0.946 0.312,1.76 0.338,2.332 0.058,0.762 0.116,1.524 0.173,2.287 -9.086,2.683 -18.209,5.252 -27.248,8.088 -6.52,2.047 -13.263,3.536 -19.227,7.129 -2.973,1.79 -3.203,2.546 -1.644,5.708 1.127,2.286 2.317,4.58 3.089,6.994 0.464,1.451 0.782,3.016 0.241,4.807 -0.73,2.419 -2.71,3.743 -3.51,4.217 C 1.771,0.082 0.885,0.041 0,0" /></g><g
           transform="translate(179.4778,209.5593)"
           id="g24"><path
             id="path26"
             style="fill:#ff6d2e;fill-opacity:1;fill-rule:nonzero;stroke:none"
             d="M 0,0 C -0.355,2.475 -0.85,3.271 -1.212,3.738 -2.48,5.376 -4.621,6.052 -7.09,6.43 c -1.966,0.302 -3.864,1.222 -5.823,1.337 -1.24,0.074 -2.82,-0.502 -3.757,-1.337 -3.48,-3.103 -5.104,-7.357 -6.471,-11.675 -0.44,-1.391 -0.769,-2.929 -0.631,-4.35 0.08,-0.816 1.146,-2.135 1.856,-2.196 5.827,-0.499 10.17,-3.718 14.321,-7.376 0.22,-0.193 0.437,-0.396 0.68,-0.557 0.299,-0.197 0.624,-0.353 1.031,-0.579 1.108,1.391 2.397,3.264 3.538,5.632 1.104,2.292 1.758,4.4 2.158,6.094 C 0.472,-4.871 0.276,-1.922 0,0" /></g><g
           transform="translate(104.5365,141.242)"
           id="g28"><path
             id="path30"
             style="fill:#ff6d2e;fill-opacity:1;fill-rule:nonzero;stroke:none"
             d="m 0,0 c -0.051,5.8 0.298,9.601 0.755,12.254 0.15,0.867 0.491,2.693 -0.377,4.529 -0.519,1.098 -1.435,2.051 -2.864,2.913 -3.26,1.969 -6.087,4.658 -9.08,7.063 -2.125,1.709 -2.676,1.768 -4.187,-0.571 -4.128,-6.392 -7.198,-13.143 -6.222,-21.062 0.318,-2.58 -0.29,-4.802 -2.24,-6.655 -1.438,-1.367 -1.589,-3.67 -0.542,-5.299 1.03,-1.599 2.952,-2.226 4.92,-1.363 2.571,1.126 5.057,2.446 7.598,3.645 2.789,1.317 3.863,0.974 6.126,-1.124 1.162,-1.078 2.921,-2.611 4.071,-2.364 0.415,0.09 0.723,0.256 0.949,0.478 0.856,0.839 0.533,2.165 0.592,4.117 C -0.476,-2.623 -0.373,-1.44 0,0" /></g><g
           transform="translate(60.1171,204.6894)"
           id="g32"><path
             id="path34"
             style="fill:#ff6d2e;fill-opacity:1;fill-rule:nonzero;stroke:none"
             d="m 0,0 c 4.951,-0.276 8.524,-0.652 11.31,-1.079 1.013,-0.155 2.818,-0.449 4.539,0.485 1.033,0.56 1.88,1.5 2.57,2.882 1.452,2.904 2.876,5.822 4.351,8.715 1.342,2.634 -0.068,4.582 -1.613,6.442 -3.984,4.794 -9.178,6.286 -15.173,5.276 -3.467,-0.585 -6.517,-0.294 -8.604,3.02 -0.229,0.364 -1,0.673 -1.427,0.581 -3.488,-0.759 -5.303,-3.863 -4.049,-7.31 0.88,-2.419 2.102,-4.739 3.393,-6.976 C -3.52,9.986 -3.991,8.386 -5.477,6.834 -6.349,5.924 -7.356,5.1 -8.036,4.063 -8.505,3.347 -8.902,2.174 -8.624,1.495 -8.343,0.809 -7.227,0.156 -6.41,0.062 -4.577,-0.149 -2.703,-0.004 -0.845,-0.004 -0.563,-0.003 -0.282,-0.001 0,0" /></g><g
           transform="translate(129.9559,179.9627)"
           id="g36"><path
             id="path38"
             style="fill:#ff6d2e;fill-opacity:1;fill-rule:nonzero;stroke:none"
             d="m 0,0 c 1.058,0 1.657,0.058 2.242,-0.009 4.229,-0.485 4.519,-0.428 6.263,3.462 1.327,2.959 2.984,5.99 2.205,9.368 -1.053,4.566 -2.82,8.88 -6.088,12.381 -0.386,0.414 -1.226,0.614 -1.835,0.577 -4.29,-0.257 -8.576,-0.582 -12.86,-0.928 -1.623,-0.13 -3.241,-0.344 -4.854,-0.573 -0.951,-0.135 -1.984,-0.18 -2.813,-0.597 -3.278,-1.649 -3.423,-2.953 -1.487,-5.355 3.091,-3.836 6.094,-7.867 8.333,-12.226 2.056,-4.006 5.19,-5.379 9.138,-5.971 C -1.025,0.019 -0.278,0.019 0,0" /></g><g
           transform="translate(78.3337,196.2237)"
           id="g40"><path
             id="path42"
             style="fill:#ff6d2e;fill-opacity:1;fill-rule:nonzero;stroke:none"
             d="m 0,0 c 0.535,-0.446 1.083,-1.299 1.734,-1.385 6.85,-0.914 12.564,-4.652 18.694,-7.352 2.036,-0.896 4.04,-1.97 6.173,-2.498 1.174,-0.291 2.84,0.02 3.83,0.71 1.387,0.967 1.12,2.694 0.334,4.065 -2.21,3.857 -3.405,7.945 -3.982,12.385 -0.67,5.156 -3.51,8.85 -8.948,10.066 -2.089,0.467 -4.087,1.401 -6.188,1.738 C 10.487,17.915 8.778,17.722 8.044,16.98 4.843,13.745 2.115,10.159 1.457,5.395 1.226,3.722 0.583,2.105 0,0" /></g><g
           transform="translate(74.7137,170.0811)"
           id="g44"><path
             id="path46"
             style="fill:#ff6d2e;fill-opacity:1;fill-rule:nonzero;stroke:none"
             d="m 0,0 c -0.978,1.374 -1.732,3.01 -2.975,4.073 -3.804,3.251 -8.567,4.616 -13.237,6.037 -1.9,0.578 -3.351,-0.551 -4.023,-2.309 -0.817,-2.139 -1.506,-4.342 -2.059,-6.565 -1.222,-4.913 -3.394,-9.282 -6.871,-12.999 -0.588,-0.627 -1.094,-1.438 -1.342,-2.254 -0.712,-2.35 0.702,-4.05 3.044,-3.368 3.132,0.912 6.579,1.144 8.942,4.05 1.259,1.547 4.104,1.075 6.095,-0.577 3.346,-2.777 7.463,-1.826 8.867,2.211 1.139,3.277 1.026,4.977 2.918,9.989 0.179,0.474 0.336,0.858 0.439,1.106 C -0.135,-0.404 -0.067,-0.202 0,0" /></g><g
           transform="translate(187.4444,318.3635)"
           id="g48"><path
             id="path50"
             style="fill:#ff6d2e;fill-opacity:1;fill-rule:nonzero;stroke:none"
             d="M 0,0 C 0.202,1.861 0.253,3.454 0.25,4.693 0.246,6.251 -0.042,7.277 0.047,8.508 0.23,11.025 -1.25,12.311 -3.2,13.32 c -1.224,0.634 -2.524,1.786 -3.68,1.666 -0.825,-0.087 -1.399,-1.961 -2.204,-2.94 -3.173,-3.86 -6.62,-7.43 -11.001,-9.961 -0.301,-0.175 -0.716,-0.307 -0.857,-0.576 -0.459,-0.877 -1.238,-1.895 -1.075,-2.691 0.124,-0.602 1.484,-1.305 2.323,-1.345 4.387,-0.21 8.651,-0.92 12.726,-2.576 1.597,-0.648 2.992,-0.705 4.12,-0.175 1.54,0.724 2.242,2.597 2.393,2.982 C -0.097,-1.38 -0.013,-0.555 0,0" /></g><g
           transform="translate(156.7109,194.5697)"
           id="g52"><path
             id="path54"
             style="fill:#ff6d2e;fill-opacity:1;fill-rule:nonzero;stroke:none"
             d="m 0,0 c -1.384,-0.785 -2.607,-1.297 -3.613,-2.085 -2.559,-2.002 -4.96,-4.209 -7.546,-6.174 -1.464,-1.112 -1.801,-2.397 -1.529,-4.083 0.99,-6.145 4.871,-10.535 9.024,-14.714 0.364,-0.366 1.95,-0.143 2.426,0.34 1.862,1.89 3.654,3.891 5.186,6.053 1.261,1.781 2.636,2.969 4.9,2.875 1.223,-0.051 2.043,0.361 2.529,1.66 0.803,2.143 1.917,4.169 2.74,6.305 0.214,0.553 0.08,1.673 -0.311,1.955 C 11.183,-5.98 8.513,-4.137 5.725,-2.506 3.979,-1.484 2.002,-0.858 0,0" /></g><g
           transform="translate(77.1956,190.6888)"
           id="g56"><path
             id="path58"
             style="fill:#ff6d2e;fill-opacity:1;fill-rule:nonzero;stroke:none"
             d="m 0,0 c -0.2,2.476 -0.243,4.571 -0.591,6.614 -0.154,0.907 -0.727,2.195 -1.442,2.482 -5.028,2.015 -10.086,4.02 -15.707,3.503 -2.219,-0.203 -3.127,-0.935 -2.269,-2.928 1.863,-4.326 -0.327,-7.24 -2.915,-10.132 -1.355,-1.514 -2.982,-3.113 -2.187,-5.234 0.855,-2.281 3.339,-1.727 5.246,-2.113 2.94,-0.595 5.904,-1.131 8.78,-1.961 2.604,-0.751 4.633,-0.13 6.421,1.762 0.712,0.754 1.396,1.554 2.204,2.193 C -0.417,-4.198 0.645,-2.252 0,0" /></g><g
           transform="translate(135.276,233.0748)"
           id="g60"><path
             id="path62"
             style="fill:#ff6d2e;fill-opacity:1;fill-rule:nonzero;stroke:none"
             d="m 0,0 c 0,-0.445 -0.002,-0.89 0,-1.335 0.017,-2.842 0.775,-3.518 3.345,-2.473 3.544,1.44 6.301,0.292 8.92,-2.054 1.032,-0.923 2.187,-1.759 3.407,-2.408 1.758,-0.935 2.995,-0.44 3.557,1.511 0.465,1.616 0.473,3.358 0.837,5.01 0.502,2.28 0.933,4.614 1.793,6.766 0.964,2.412 0.423,5.077 -0.999,7.235 -3.535,5.364 -8.436,5.12 -13.654,3.758 C 6.354,15.787 5.487,14.84 5.034,14.007 2.644,9.608 -0.245,5.36 0,0" /></g><g
           transform="translate(159.9733,252.8848)"
           id="g64"><path
             id="path66"
             style="fill:#ff6d2e;fill-opacity:1;fill-rule:nonzero;stroke:none"
             d="M 0,0 C 0.218,0.096 1.053,0.193 1.369,0.65 3.047,3.074 4.633,5.565 6.174,8.081 7.257,9.85 6.8,11.643 5.98,13.38 c -0.951,2.01 -1.778,4.098 -2.938,5.981 -0.465,0.755 -1.7,1.527 -2.539,1.481 -5.031,-0.277 -10.05,-0.77 -15.069,-1.241 -0.873,-0.082 -1.775,-0.29 -2.576,-0.641 -2.05,-0.896 -2.491,-2.147 -1.366,-4.052 2.258,-3.827 4.582,-7.615 6.918,-11.395 C -10.469,1.7 -8.87,0.69 -6.653,0.605 -4.579,0.526 -2.512,0.238 0,0" /></g><g
           transform="translate(161.8696,274.3329)"
           id="g68"><path
             id="path70"
             style="fill:#ff6d2e;fill-opacity:1;fill-rule:nonzero;stroke:none"
             d="M 0,0 C 0.683,-0.317 1.361,-0.648 2.051,-0.943 2.396,-1.091 2.734,-1.336 3.127,-1.242 3.649,-1.117 4.336,-0.97 4.736,-0.33 5.051,0.173 5.152,1.524 5.15,2.346 5.143,5.52 5.079,8.651 4.978,11.75 4.962,12.262 4.698,12.614 4.472,12.881 4.329,13.049 4.054,13.031 3.823,12.908 2.147,12.02 0.679,12.057 -0.722,12.444 -0.885,12.489 -1.255,12.239 -1.381,11.966 -2.074,10.469 -2.949,9.104 -3.02,7.211 -3.062,6.087 -3.393,4.747 -3.666,3.499 -4.015,1.903 -3.772,1.143 -3.07,0.922 c 1.019,-0.321 2.036,-0.647 3.053,-0.97 z" /></g><g
           transform="translate(183.5639,307.5191)"
           id="g72"><path
             id="path74"
             style="fill:#ff6d2e;fill-opacity:1;fill-rule:nonzero;stroke:none"
             d="m 0,0 c -5.69,1.263 -11.481,2.563 -17.28,3.826 -2.011,0.438 -2.934,-0.263 -2.611,-2.271 0.89,-5.539 1.898,-11.06 2.968,-16.567 0.404,-2.078 1.51,-3.253 3.974,-2.586 2.779,0.753 5.644,1.188 8.463,1.8 2.613,0.567 4.05,2.279 4.556,4.846 0.429,2.179 0.839,4.172 3.044,5.604 2.006,1.302 1.363,3.782 -0.888,4.634 C 1.535,-0.452 0.817,-0.26 0,0" /></g><g
           transform="translate(32.7702,202.9694)"
           id="g76"><path
             id="path78"
             style="fill:#ff6d2e;fill-opacity:1;fill-rule:nonzero;stroke:none"
             d="m 0,0 c 0.319,-4.688 0.482,-9.269 0.981,-13.813 0.521,-4.744 0.663,-4.743 5.358,-4.633 2.67,0.063 5.349,0.071 8.002,0.334 0.895,0.089 2.134,0.674 2.505,1.396 1.679,3.279 3.377,6.597 4.544,10.076 1.157,3.45 0.189,5.082 -3.372,5.647 C 13.142,-0.218 8.187,0.081 3.258,0.494 2.339,0.571 1.385,0.224 0,0" /></g><g
           transform="translate(97.9261,172.8113)"
           id="g80"><path
             id="path82"
             style="fill:#ff6d2e;fill-opacity:1;fill-rule:nonzero;stroke:none"
             d="m 0,0 c 0.261,-0.026 2.838,-0.249 3.798,1.252 0.908,1.421 0.074,3.682 -0.908,4.653 -1.986,1.964 -4.007,3.891 -6.018,5.828 -2.229,2.146 -4.426,4.328 -6.729,6.392 -0.442,0.397 -1.495,0.663 -1.95,0.413 -4.011,-2.204 -7.396,-5.141 -9.643,-9.189 -0.422,-0.76 -0.586,-1.86 -0.417,-2.713 0.504,-2.541 1.273,-5.028 1.857,-7.556 0.277,-1.2 0.78,-1.615 2.033,-1.227 3.512,1.088 7.041,2.125 10.586,3.098 0.999,0.274 1.895,0.053 2.37,0.028 C -2.872,0.865 -1.143,0.393 0,0" /></g><g
           transform="translate(150.9946,203.0832)"
           id="g84"><path
             id="path86"
             style="fill:#ff6d2e;fill-opacity:1;fill-rule:nonzero;stroke:none"
             d="m 0,0 c 0.213,5.727 0.738,8.665 1.205,10.297 0.425,1.49 0.422,2.171 0.419,3.534 -0.006,3.017 -0.575,3.64 -3.574,3.819 -3.102,0.186 -5.317,2.031 -7.598,3.798 -0.821,0.636 -1.577,1.404 -2.489,1.861 -0.575,0.288 -1.574,0.385 -2.033,0.065 -0.455,-0.317 -0.733,-1.312 -0.62,-1.923 0.166,-0.9 0.564,-1.903 1.188,-2.547 2.054,-2.119 2.191,-4.533 1.145,-7.018 -2.059,-4.889 -1.15,-8.823 2.942,-12.332 1.19,-1.02 1.421,-3.151 2.112,-4.764 0.462,-1.079 0.724,-2.367 1.486,-3.17 1.87,-1.971 4.951,-0.969 5.596,1.681 0.105,0.431 0.243,0.87 0.252,1.308 0.03,1.558 0.012,3.116 0.012,4.675 C 0.029,-0.478 0.014,-0.239 0,0" /></g><g
           transform="translate(164.2292,150.624)"
           id="g88"><path
             id="path90"
             style="fill:#ff6d2e;fill-opacity:1;fill-rule:nonzero;stroke:none"
             d="m 0,0 c -0.869,3.589 -1.644,6.737 -2.389,9.892 -0.307,1.3 -0.559,2.614 -0.823,3.924 -0.474,2.355 -1.384,2.635 -3.377,1.289 -3.109,-2.1 -6.219,-4.228 -9.502,-6.028 -1.848,-1.014 -4.022,-1.473 -6.087,-2.041 -2.476,-0.681 -3.239,-2.303 -1.842,-4.485 1.348,-2.105 2.908,-4.055 2.987,-6.753 0.032,-1.103 0.881,-1.534 1.929,-0.946 3.009,1.687 6.096,1.666 9.465,1.147 2.409,-0.371 5.075,0.107 7.458,0.792 C -1.218,-2.933 -0.702,-1.098 0,0" /></g><g
           transform="translate(179.4749,264.3683)"
           id="g92"><path
             id="path94"
             style="fill:#ff6d2e;fill-opacity:1;fill-rule:nonzero;stroke:none"
             d="m 0,0 c 0.234,0.856 0.624,2.11 1.266,3.559 1.82,4.11 3.149,4.286 3.428,6.602 0.227,1.887 -0.129,3.879 -1.131,6.007 -0.942,2 -0.474,3.882 0.673,5.647 0.224,0.345 0.42,0.708 0.598,1.076 0.589,1.221 1.107,2.677 -0.354,3.471 -0.517,0.28 -2.083,-0.758 -2.919,-1.45 -2.779,-2.302 -5.093,-5.113 -9.395,-5.34 -1.919,-0.101 -2.576,-1.999 -1.913,-4.46 0.858,-3.185 1.924,-6.339 2.559,-9.554 0.433,-2.194 0.191,-4.474 0.418,-6.706 0.167,-1.649 0.454,-3.398 2.936,-3.486 0.67,-0.024 1.25,0.107 1.741,0.391 1.005,0.583 1.349,1.681 1.787,3.056 C -0.148,-0.692 -0.054,-0.275 0,0" /></g><g
           transform="translate(61.2497,123.5757)"
           id="g96"><path
             id="path98"
             style="fill:#ff6d2e;fill-opacity:1;fill-rule:nonzero;stroke:none"
             d="m 0,0 c 0.732,3.035 1.521,5.414 2.108,7.029 0.648,1.781 1.035,3.675 1.923,5.35 1.721,3.248 1.729,5.536 -0.616,8.402 -1.241,1.517 -1.891,3.067 -1.818,5.05 0.042,1.147 -0.249,2.364 -0.647,3.455 -0.631,1.73 -1.988,2.529 -3.856,2.287 -1.81,-0.235 -2.294,-1.542 -2.627,-3.113 -0.766,-3.617 -1.495,-7.255 -2.547,-10.794 -0.642,-2.163 -2.093,-4.084 -2.752,-6.244 -0.204,-0.671 -0.305,-1.195 -0.335,-1.69 0,0 -0.034,-0.588 0.046,-1.203 0.153,-1.166 2.235,-8.333 7.579,-9.023 C -2.824,-0.587 -1.585,-0.622 0,0" /></g><g
           transform="translate(35.0627,181.2659)"
           id="g100"><path
             id="path102"
             style="fill:#ff6d2e;fill-opacity:1;fill-rule:nonzero;stroke:none"
             d="m 0,0 c 0.704,-4.471 1.489,-9.214 2.189,-13.969 0.595,-4.038 1.032,-8.099 1.697,-12.124 0.101,-0.609 0.997,-1.209 1.662,-1.527 0.194,-0.093 1.274,0.826 1.25,1.24 -0.335,5.665 3.833,9.085 6.44,13.291 1.203,1.939 2.302,3.972 3.183,6.073 0.884,2.11 0.091,3.763 -1.865,5.084 -0.709,0.479 -1.353,1.145 -1.829,1.857 C 11.209,2.192 10.392,2.416 7.704,1.669 5.309,1.003 2.839,0.603 0,0" /></g><g
           transform="translate(158.8727,221.1644)"
           id="g104"><path
             id="path106"
             style="fill:#ff6d2e;fill-opacity:1;fill-rule:nonzero;stroke:none"
             d="m 0,0 c 1.538,0.244 3.069,0.633 4.614,0.704 2.337,0.107 4.713,0.212 7.02,-0.083 3.297,-0.42 4.843,0.776 4.146,4.028 -0.966,4.505 -2.009,8.957 -1.359,13.619 0.14,1.004 -0.389,1.584 -1.501,1.012 C 9.536,17.538 6.171,15.759 2.763,14.066 0.507,12.946 -0.688,11.329 -0.849,8.702 -0.978,6.584 -1.718,4.507 -2.118,2.399 -2.43,0.755 -1.883,-0.239 0,0" /></g><g
           transform="translate(33.186,137.5964)"
           id="g108"><path
             id="path110"
             style="fill:#ff6d2e;fill-opacity:1;fill-rule:nonzero;stroke:none"
             d="m 0,0 c 3.832,-1.921 7.683,-3.945 11.643,-5.726 0.538,-0.242 2.17,0.552 2.368,1.166 1.702,5.273 3.256,10.597 4.704,15.947 0.481,1.775 -0.678,2.164 -2.241,1.886 C 12.293,12.53 8.105,11.827 3.7,11.07 2.651,7.93 1.414,4.231 0,0" /></g><g
           transform="translate(159.5437,237.6805)"
           id="g112"><path
             id="path114"
             style="fill:#ff6d2e;fill-opacity:1;fill-rule:nonzero;stroke:none"
             d="m 0,0 c 1.717,0.68 3.075,1.174 4.398,1.751 2.987,1.303 5.971,2.616 8.923,3.997 0.629,0.294 1.459,0.796 1.614,1.361 1.13,4.121 2.112,8.283 3.137,12.416 -4.743,1.252 -8.459,0.4 -10.678,-2.67 C 5.585,14.353 3.132,12.318 1.308,9.824 0.341,8.501 -0.13,6.68 -0.385,5.016 -0.602,3.598 -0.19,2.084 0,0" /></g><g
           transform="translate(33.3319,206.7447)"
           id="g116"><path
             id="path118"
             style="fill:#ff6d2e;fill-opacity:1;fill-rule:nonzero;stroke:none"
             d="m 0,0 c 4.009,0.552 8.011,0.221 11.04,1.78 2.742,1.411 4.477,4.844 6.516,7.491 0.328,0.426 0.128,1.505 -0.167,2.119 -1.342,2.791 -2.806,5.524 -4.313,8.448 C 6.224,15.03 1.012,9.301 0,0" /></g><g
           transform="translate(83.0479,130.4503)"
           id="g120"><path
             id="path122"
             style="fill:#ff6d2e;fill-opacity:1;fill-rule:nonzero;stroke:none"
             d="m 0,0 c -2.623,1.467 -4.468,4.893 -8.588,3.843 -0.771,-0.196 -1.777,0.17 -2.576,0.509 -1.722,0.73 -2.602,-0.129 -3.004,-1.572 -0.912,-3.269 -1.773,-6.558 -2.456,-9.88 -0.171,-0.831 0.172,-1.999 0.699,-2.694 1.226,-1.619 2.707,-3.044 4.195,-4.668 C -7.746,-9.551 -3.951,-4.871 0,0" /></g><g
           transform="translate(62.2794,234.776)"
           id="g124"><path
             id="path126"
             style="fill:#ff6d2e;fill-opacity:1;fill-rule:nonzero;stroke:none"
             d="m 0,0 c -0.027,-1.148 0.069,-3.477 1.524,-4.363 0.512,-0.313 1.091,-0.479 2.175,-0.282 3.712,0.674 7.096,0.514 10.541,-1.288 2.109,-1.104 3.412,0.098 3.677,2.52 0.266,2.423 0.752,4.822 1.046,7.243 0.091,0.741 0.012,1.256 -0.282,1.579 -0.515,0.566 -1.49,0.455 -1.905,0.407 C 6.67,4.651 3.741,4.652 1.174,1.668 0.861,1.304 0.429,0.751 0,0" /></g><g
           transform="translate(105.3357,168.4122)"
           id="g128"><path
             id="path130"
             style="fill:#ff6d2e;fill-opacity:1;fill-rule:nonzero;stroke:none"
             d="m 0,0 c 4.227,0.189 8.149,0.317 12.06,0.595 0.534,0.038 1.434,0.805 1.45,1.26 0.077,2.128 0.035,4.285 -0.264,6.388 -0.087,0.606 -1.285,1.613 -1.787,1.511 -4.047,-0.817 -6.645,1.951 -9.667,3.661 -0.381,0.217 -0.65,0.663 -1.044,0.821 -1.021,0.408 -2.082,0.714 -3.127,1.06 -0.143,-1.258 -0.344,-2.514 -0.396,-3.777 -0.015,-0.381 0.296,-0.872 0.603,-1.154 C 0.501,7.905 0.885,4.906 0.012,1.572 -0.076,1.239 0,0.864 0,0" /></g><g
           transform="translate(134.9569,178.2054)"
           id="g132"><path
             id="path134"
             style="fill:#ff6d2e;fill-opacity:1;fill-rule:nonzero;stroke:none"
             d="m 0,0 c 3.216,-5.773 2.835,-11.874 3.221,-17.969 2.409,0.056 4.482,0.36 6.05,2.319 0.622,0.778 1.518,1.472 2.436,1.847 1.849,0.755 2.192,2.077 1.351,3.567 -1.775,3.147 -3.696,6.22 -5.715,9.216 C 6.947,-0.432 5.854,-0.123 5.047,-0.044 3.506,0.107 1.939,0 0,0" /></g><g
           transform="translate(71.9092,142.916)"
           id="g136"><path
             id="path138"
             style="fill:#ff6d2e;fill-opacity:1;fill-rule:nonzero;stroke:none"
             d="M 0,0 C 2.59,3.882 4.7,7.045 7.053,10.571 4.121,10.908 1.737,11.628 -0.616,9.9 -1.367,9.348 -2.561,9.26 -3.563,9.219 -5.965,9.12 -6.617,8.261 -5.249,6.249 -3.83,4.162 -2.005,2.351 0,0" /></g><g
           transform="translate(80.0267,156.8311)"
           id="g140"><path
             id="path142"
             style="fill:#ff6d2e;fill-opacity:1;fill-rule:nonzero;stroke:none"
             d="m 0,0 c 2.246,5.145 4.351,9.966 6.456,14.787 -0.25,0.148 -0.5,0.295 -0.75,0.442 C 2.737,11.906 -0.622,8.882 -2.669,4.821 -3.672,2.831 -2.335,1.515 0,0" /></g><g
           transform="translate(100.8015,241.4914)"
           id="g144"><path
             id="path146"
             style="fill:#ff6d2e;fill-opacity:1;fill-rule:nonzero;stroke:none"
             d="m 0,0 c -5.946,-0.463 -11.506,-0.895 -17.186,-1.337 -0.034,-2.838 1.029,-3.581 2.782,-3.572 3.38,0.016 6.762,-0.068 10.139,-0.255 C -1.944,-5.294 -0.704,-3.737 0,0" /></g><g
           transform="translate(165.1317,161.1469)"
           id="g148"><path
             id="path150"
             style="fill:#ff6d2e;fill-opacity:1;fill-rule:nonzero;stroke:none"
             d="m 0,0 c 0.5,3.412 1.014,6.822 1.493,10.237 0.226,1.612 -0.713,1.9 -1.872,1.288 -1.945,-1.027 -2.596,-2.93 -2.208,-4.92 0.444,-2.278 1.332,-4.47 2.027,-6.7 C -0.373,-0.063 -0.187,-0.032 0,0" /></g><g
           transform="translate(68.7132,115.1571)"
           id="g152"><path
             id="path154"
             style="fill:#ff6d2e;fill-opacity:1;fill-rule:nonzero;stroke:none"
             d="m 0,0 c -2.78,-1.315 -5.559,-2.63 -8.325,-3.938 2.044,-1.032 3.044,-1.021 4.472,0.184 1.4,1.182 2.716,2.417 4.069,3.628 z" /></g><g
           transform="translate(130.2057,144.2638)"
           id="g156"><path
             id="path158"
             style="fill:#ff6d2e;fill-opacity:1;fill-rule:nonzero;stroke:none"
             d="m 0,0 c 1.024,0.265 1.589,0.474 2.173,0.553 4.222,0.564 4.488,0.695 5.146,5.108 0.502,3.357 1.304,6.871 -0.344,10.128 -2.228,4.404 -5.08,8.37 -9.171,11.13 -0.483,0.326 -1.349,0.319 -1.928,0.13 -4.085,-1.338 -8.149,-2.745 -12.204,-4.172 -1.537,-0.541 -3.047,-1.165 -4.548,-1.803 -0.885,-0.376 -1.873,-0.681 -2.565,-1.315 -2.737,-2.508 -2.533,-3.877 -0.022,-5.847 4.007,-3.146 7.981,-6.513 11.302,-10.408 3.051,-3.579 6.448,-4.197 10.427,-3.813 C -0.997,-0.237 -0.274,-0.05 0,0" /></g><g
           transform="translate(82.0788,225.6105)"
           id="g160"><path
             id="path162"
             style="fill:#ff6d2e;fill-opacity:1;fill-rule:nonzero;stroke:none"
             d="m 0,0 c 1.099,-0.314 2.238,-0.528 3.288,-0.959 1.587,-0.652 3.2,-1.317 4.644,-2.228 2.063,-1.3 3.462,-0.982 4.005,1.397 0.751,3.296 1.435,6.581 3.31,9.481 0.404,0.625 0.231,1.174 -0.686,1.137 C 11.771,8.717 8.982,8.575 6.19,8.503 4.343,8.456 3.048,7.75 2.128,6.052 1.386,4.683 0.252,3.53 -0.667,2.251 -1.383,1.255 -1.327,0.424 0,0" /></g><g
           transform="translate(116.1264,205.8476)"
           id="g164"><path
             id="path166"
             style="fill:#ff6d2e;fill-opacity:1;fill-rule:nonzero;stroke:none"
             d="M 0,0 C 5.804,1.262 11.242,2.445 16.68,3.627 16.567,3.971 16.453,4.314 16.34,4.658 11.245,5.327 6.024,6.578 1.2,5.85 -1.163,5.493 -0.951,3.302 0,0" /></g><g
           transform="translate(145.7639,143.3837)"
           id="g168"><path
             id="path170"
             style="fill:#ff6d2e;fill-opacity:1;fill-rule:nonzero;stroke:none"
             d="m 0,0 c 8.279,0.158 13.928,0.338 15.029,0.555 0.158,0.031 0.837,0.176 1.13,-0.15 0.122,-0.136 0.161,-0.377 0.056,-0.796 -0.147,-0.18 -0.364,-0.338 -0.432,-0.545 -1.818,-5.588 -1.382,-11.803 -4.725,-16.974 -0.153,-0.236 -0.087,-0.618 -0.106,-0.934 -0.173,-2.838 -0.346,-5.677 -0.514,-8.516 -0.734,-12.458 -1.727,-24.908 -2.109,-37.377 -0.266,-8.666 0.076,-17.372 0.594,-26.033 0.318,-5.332 1.561,-10.603 2.234,-15.921 0.566,-4.468 0.111,-8.85 -2.148,-12.852 -0.397,-0.703 -1.421,-1.646 -2.009,-1.553 -5.345,0.851 -10.499,2.302 -14.652,6.062 -2.922,2.645 -3.738,5.734 -1.828,9.169 1.475,2.652 3.678,4.892 5.442,7.396 0.728,1.035 1.547,2.246 1.655,3.437 0.65,7.156 1.401,14.323 1.536,21.498 0.117,6.218 -0.321,12.47 -0.901,18.672 -0.954,10.211 -2.201,20.395 -3.4,30.582 -0.071,0.607 -0.711,1.497 -1.244,1.632 -1.408,0.354 -2.903,0.366 -4.546,0.533 -0.378,-3.886 -0.743,-7.647 -1.11,-11.407 -1.051,-10.764 -2.102,-21.527 -3.153,-32.291 -1.036,-10.606 -2.116,-21.208 -3.05,-31.823 -0.112,-1.279 0.373,-2.71 0.907,-3.929 1.855,-4.238 4.287,-8.275 5.678,-12.65 1.469,-4.62 -0.939,-8.286 -5.697,-9.133 -3.048,-0.543 -6.313,-0.514 -9.392,-0.09 -4.279,0.591 -6.226,3.889 -7.324,7.752 v 4.745 c 1.252,4.372 2.481,8.687 2.67,13.338 0.548,13.481 1.434,26.948 2.202,40.419 0.553,9.69 1.241,19.373 1.655,29.069 0.253,5.914 1.533,11.913 -1.524,17.652 -0.236,0.442 -0.622,1.258 -0.31,1.998 0.716,1.702 4.247,0.702 7.804,2.205 3.16,1.334 3.582,3.478 5.766,5.272 C -13.406,0.99 -8.958,2.455 0,0" /></g><g
           transform="translate(71.1532,114.9643)"
           id="g172"><path
             id="path174"
             style="fill:#ff6d2e;fill-opacity:1;fill-rule:nonzero;stroke:none"
             d="m 0,0 v -0.474 c -1.348,-1.427 -2.84,-2.747 -4.007,-4.309 -1.38,-1.846 -3.078,-3.761 -3.581,-5.894 -1.336,-5.669 -2.174,-11.461 -3.083,-17.223 -2.235,-14.161 -3.306,-28.343 -1.257,-42.658 0.481,-3.365 1.108,-6.217 4.275,-8.03 0.92,-0.527 1.618,-1.499 2.313,-2.353 3.437,-4.222 3.037,-7.868 -1.86,-10.212 -4.056,-1.942 -8.628,-2.788 -12.936,-4.227 -1.864,-0.622 -2.794,0.295 -3.636,1.686 -2.375,3.919 -2.423,8.234 -1.404,12.399 2.138,8.742 3.183,17.616 2.797,26.529 -0.613,14.119 -1.825,28.212 -2.838,42.312 -0.165,2.291 -0.608,4.562 -0.923,6.841 -0.236,0.017 -0.472,0.034 -0.708,0.051 -2.173,-3.11 -3.16,-6.664 -3.611,-10.434 -1.182,-9.871 -2.396,-19.737 -3.583,-29.606 -1.198,-9.949 -2.429,-19.893 -3.497,-29.856 -0.122,-1.142 0.537,-2.484 1.137,-3.565 1.753,-3.154 4.057,-6.06 5.405,-9.365 1.672,-4.101 -0.174,-7.238 -4.486,-8.192 -2.511,-0.556 -5.163,-0.596 -7.755,-0.636 -4.95,-0.076 -8.996,1.498 -10.851,6.593 v 3.796 c 0.834,2.928 2.096,5.81 2.417,8.794 0.762,7.06 1.076,14.169 1.573,21.257 1.086,15.516 2.166,31.032 3.263,46.547 0.277,3.924 0.143,7.951 1.014,11.743 1.36,5.924 2.579,12.07 7.39,16.516 h 2.373 c 2.768,-1.708 5.615,-3.086 8.988,-3.224 3.846,-0.157 6.384,-2.172 7.874,-5.789 1.869,-4.536 4.091,-5.504 8.728,-3.998 1.63,0.53 3.029,0.548 4.42,-0.513 C -4.05,2.981 -2.018,1.5 0,0" /></g><g
           transform="translate(112.2086,149.1638)"
           id="g176"><path
             id="path178"
             style="fill:#ff6d2e;fill-opacity:1;fill-rule:nonzero;stroke:none"
             d="m 0,0 c -1.569,-5.472 -2.848,-9.93 -4.273,-14.901 3.532,0.696 6.569,0.745 8.663,3.626 0.668,0.919 2.022,1.465 3.171,1.885 2.755,1.006 3.193,2.246 0.857,4.076 C 5.995,-3.415 3.202,-1.988 0,0" /></g></g></g></g></svg>