<?xml version="1.0" encoding="UTF-8" standalone="no"?>
<svg
   xmlns:dc="http://purl.org/dc/elements/1.1/"
   xmlns:cc="http://creativecommons.org/ns#"
   xmlns:rdf="http://www.w3.org/1999/02/22-rdf-syntax-ns#"
   xmlns:svg="http://www.w3.org/2000/svg"
   xmlns="http://www.w3.org/2000/svg"
   viewBox="0 0 573.33331 188.09467"
   height="188.09467"
   width="573.33331"
   xml:space="preserve"
   id="svg2"
   version="1.1"><metadata
     id="metadata8"><rdf:RDF><cc:Work
         rdf:about=""><dc:format>image/svg+xml</dc:format><dc:type
           rdf:resource="http://purl.org/dc/dcmitype/StillImage" /></cc:Work></rdf:RDF></metadata><defs
     id="defs6"><clipPath
       id="clipPath18"
       clipPathUnits="userSpaceOnUse"><path
         id="path16"
         d="M 0,141.071 H 430 V 0 H 0 Z" /></clipPath></defs><g
     transform="matrix(1.3333333,0,0,-1.3333333,0,188.09467)"
     id="g10"><g
       id="g12"><g
         clip-path="url(#clipPath18)"
         id="g14"><g
           transform="translate(52.1523,131.3197)"
           id="g20"><path
             id="path22"
             style="fill:#ff6d2e;fill-opacity:1;fill-rule:nonzero;stroke:none"
             d="m 0,0 c -0.199,-0.08 -0.551,-0.258 -0.796,-0.628 -0.229,-0.344 -0.301,-0.687 -0.28,-1.123 0.025,-0.51 0.12,-1.022 0.09,-1.528 -0.025,-0.419 -0.122,-0.861 -0.302,-1.24 -0.309,-0.653 -0.969,-0.705 -1.57,-0.634 -1.105,0.131 -2.196,0.374 -3.298,0.526 -0.857,0.119 -1.723,0.172 -2.585,0.254 H -8.88 c -0.45,-0.03 -0.95,-0.011 -1.198,-0.463 -0.264,-0.483 0.054,-0.904 0.315,-1.28 1.065,-1.536 2.575,-2.266 4.412,-2.378 0.155,-0.009 0.31,-0.002 0.465,-10e-4 1.021,0.012 1.5,-0.405 1.431,-1.418 -0.05,-0.748 -0.229,-1.496 -0.427,-2.223 -1.565,-5.748 -3.097,-11.505 -4.749,-17.228 -0.702,-2.433 -1.671,-4.789 -2.508,-7.183 -0.377,-1.08 -0.734,-2.167 -1.088,-3.255 -0.752,-2.311 -2.129,-4.097 -4.312,-5.233 -0.782,-0.406 -1.54,-0.86 -2.301,-1.305 -0.742,-0.435 -1.316,-1.031 -1.642,-1.837 -0.382,-0.946 -0.749,-1.898 -1.124,-2.847 -0.266,-0.674 -0.576,-1.299 -1.333,-1.572 -0.316,-0.113 -0.312,-0.395 -0.088,-0.592 0.286,-0.253 0.592,-0.542 0.942,-0.657 3.052,-0.994 5.861,-0.663 8.295,1.811 0.891,0.906 1.24,1.993 0.933,3.281 -0.265,1.116 -0.468,2.262 -0.189,3.403 0.129,0.53 0.362,1.054 0.646,1.521 0.772,1.267 1.593,2.503 2.4,3.748 0.673,1.038 1.316,2.099 2.05,3.092 0.276,0.373 0.748,0.631 1.176,0.853 0.48,0.25 0.803,0.628 0.931,1.103 0.3,1.117 0.595,2.244 0.764,3.386 0.33,2.233 0.559,4.482 0.864,6.72 0.066,0.482 0.249,0.958 0.434,1.414 0.373,0.917 1.09,1.365 2.073,1.358 1.306,-0.01 2.511,0.27 3.576,1.076 1.291,0.977 1.609,2.162 0.927,3.636 -0.136,0.294 -0.281,0.589 -0.461,0.858 -0.233,0.348 -0.124,0.584 0.199,0.757 0.3,0.16 0.611,0.3 0.923,0.433 1.265,0.537 2.561,1.013 3.792,1.619 1.058,0.521 2.168,0.697 3.307,0.832 0.413,0.048 0.819,0.157 1.228,0.241 0.419,0.086 0.753,0.253 1.01,0.494 0.41,0.385 0.535,0.899 0.609,1.2 0.062,0.251 0.083,0.467 0.09,0.619 0.015,0.203 0.031,0.405 0.046,0.608 -2.414,0.713 -4.838,1.395 -7.239,2.149 -1.732,0.543 -3.524,0.939 -5.108,1.894 -0.79,0.475 -0.851,0.676 -0.437,1.516 0.299,0.608 0.615,1.217 0.82,1.859 0.124,0.385 0.208,0.801 0.065,1.277 C 1.444,-0.445 0.918,-0.093 0.706,0.033 0.471,0.022 0.235,0.011 0,0" /></g><g
           transform="translate(52.1202,76.2988)"
           id="g24"><path
             id="path26"
             style="fill:#ff6d2e;fill-opacity:1;fill-rule:nonzero;stroke:none"
             d="M 0,0 C -0.094,0.657 -0.226,0.869 -0.322,0.993 -0.659,1.428 -1.228,1.608 -1.884,1.708 -2.406,1.789 -2.91,2.033 -3.431,2.064 -3.76,2.083 -4.18,1.93 -4.429,1.708 -5.353,0.884 -5.785,-0.246 -6.148,-1.394 c -0.117,-0.369 -0.204,-0.778 -0.168,-1.155 0.021,-0.217 0.305,-0.568 0.493,-0.584 1.549,-0.132 2.702,-0.987 3.805,-1.959 0.059,-0.052 0.116,-0.106 0.181,-0.148 0.079,-0.052 0.166,-0.094 0.274,-0.154 0.294,0.369 0.637,0.867 0.94,1.496 0.293,0.609 0.467,1.169 0.573,1.619 C 0.125,-1.294 0.073,-0.511 0,0" /></g><g
           transform="translate(32.2099,58.1484)"
           id="g28"><path
             id="path30"
             style="fill:#ff6d2e;fill-opacity:1;fill-rule:nonzero;stroke:none"
             d="M 0,0 C -0.014,1.541 0.079,2.551 0.201,3.256 0.24,3.486 0.331,3.971 0.1,4.459 -0.038,4.75 -0.281,5.004 -0.66,5.233 -1.526,5.756 -2.278,6.47 -3.073,7.109 -3.637,7.563 -3.784,7.579 -4.185,6.958 -5.282,5.259 -6.098,3.466 -5.838,1.362 -5.754,0.676 -5.915,0.086 -6.433,-0.406 c -0.382,-0.363 -0.423,-0.975 -0.144,-1.408 0.273,-0.425 0.784,-0.591 1.307,-0.362 0.683,0.299 1.343,0.65 2.018,0.968 0.741,0.35 1.027,0.259 1.628,-0.298 0.309,-0.287 0.776,-0.694 1.081,-0.628 0.111,0.023 0.192,0.068 0.253,0.126 0.227,0.223 0.141,0.576 0.157,1.094 C -0.126,-0.697 -0.099,-0.383 0,0" /></g><g
           transform="translate(20.4086,75.005)"
           id="g32"><path
             id="path34"
             style="fill:#ff6d2e;fill-opacity:1;fill-rule:nonzero;stroke:none"
             d="M 0,0 C 1.315,-0.073 2.265,-0.173 3.005,-0.287 3.274,-0.328 3.753,-0.406 4.211,-0.158 4.485,-0.009 4.71,0.241 4.894,0.608 5.279,1.379 5.658,2.155 6.049,2.923 6.406,3.623 6.031,4.141 5.621,4.635 4.563,5.908 3.183,6.305 1.59,6.036 0.669,5.881 -0.142,5.958 -0.696,6.839 -0.757,6.936 -0.962,7.018 -1.075,6.993 -2.002,6.792 -2.484,5.967 -2.151,5.051 -1.917,4.408 -1.592,3.792 -1.25,3.198 -0.935,2.653 -1.06,2.228 -1.455,1.816 -1.687,1.574 -1.954,1.355 -2.135,1.079 -2.259,0.889 -2.365,0.577 -2.291,0.397 -2.217,0.215 -1.92,0.041 -1.703,0.016 -1.216,-0.04 -0.718,-0.001 -0.225,-0.001 -0.15,-0.001 -0.075,0 0,0" /></g><g
           transform="translate(38.9633,68.4357)"
           id="g36"><path
             id="path38"
             style="fill:#ff6d2e;fill-opacity:1;fill-rule:nonzero;stroke:none"
             d="M 0,0 C 0.281,0 0.44,0.015 0.596,-0.002 1.719,-0.131 1.796,-0.116 2.26,0.917 2.612,1.704 3.052,2.509 2.845,3.406 2.566,4.619 2.096,5.765 1.228,6.696 1.125,6.806 0.902,6.859 0.741,6.849 -0.399,6.781 -1.538,6.694 -2.676,6.602 -3.107,6.568 -3.537,6.511 -3.966,6.45 -4.218,6.414 -4.493,6.402 -4.713,6.292 -5.584,5.853 -5.623,5.507 -5.108,4.869 -4.287,3.85 -3.489,2.779 -2.894,1.62 -2.348,0.556 -1.516,0.192 -0.467,0.034 -0.272,0.005 -0.074,0.005 0,0" /></g><g
           transform="translate(25.2484,72.7559)"
           id="g40"><path
             id="path42"
             style="fill:#ff6d2e;fill-opacity:1;fill-rule:nonzero;stroke:none"
             d="m 0,0 c 0.142,-0.119 0.288,-0.345 0.461,-0.368 1.82,-0.243 3.338,-1.236 4.966,-1.953 0.541,-0.238 1.074,-0.524 1.64,-0.664 0.312,-0.077 0.755,0.005 1.018,0.189 0.368,0.257 0.297,0.715 0.089,1.08 C 7.586,-0.692 7.269,0.395 7.116,1.574 6.938,2.944 6.183,3.925 4.739,4.248 4.183,4.373 3.653,4.621 3.094,4.71 2.786,4.76 2.332,4.708 2.137,4.511 1.287,3.652 0.562,2.699 0.387,1.433 0.326,0.989 0.155,0.559 0,0" /></g><g
           transform="translate(24.2866,65.8103)"
           id="g44"><path
             id="path46"
             style="fill:#ff6d2e;fill-opacity:1;fill-rule:nonzero;stroke:none"
             d="M 0,0 C -0.26,0.365 -0.46,0.8 -0.79,1.082 -1.801,1.946 -3.067,2.309 -4.307,2.686 -4.812,2.84 -5.197,2.54 -5.376,2.073 -5.593,1.504 -5.776,0.919 -5.923,0.329 c -0.325,-1.306 -0.902,-2.467 -1.826,-3.454 -0.156,-0.167 -0.29,-0.382 -0.356,-0.599 -0.189,-0.624 0.186,-1.076 0.809,-0.895 0.832,0.243 1.748,0.304 2.375,1.076 0.335,0.411 1.091,0.286 1.62,-0.153 0.889,-0.738 1.983,-0.485 2.355,0.587 0.303,0.871 0.273,1.322 0.776,2.654 0.047,0.126 0.089,0.228 0.116,0.294 C -0.036,-0.107 -0.018,-0.054 0,0" /></g><g
           transform="translate(54.2368,105.2058)"
           id="g48"><path
             id="path50"
             style="fill:#ff6d2e;fill-opacity:1;fill-rule:nonzero;stroke:none"
             d="M 0,0 C 0.054,0.494 0.067,0.918 0.066,1.247 0.065,1.661 -0.011,1.933 0.013,2.26 0.061,2.929 -0.332,3.271 -0.85,3.539 -1.175,3.707 -1.521,4.013 -1.828,3.981 -2.047,3.958 -2.2,3.46 -2.413,3.2 -3.256,2.175 -4.172,1.226 -5.336,0.554 -5.416,0.508 -5.527,0.472 -5.564,0.401 -5.686,0.168 -5.893,-0.103 -5.849,-0.314 c 0.033,-0.16 0.394,-0.347 0.617,-0.357 1.165,-0.056 2.298,-0.245 3.381,-0.685 0.424,-0.172 0.795,-0.187 1.094,-0.046 0.409,0.192 0.596,0.69 0.636,0.792 C -0.026,-0.367 -0.003,-0.147 0,0" /></g><g
           transform="translate(46.0716,72.3164)"
           id="g52"><path
             id="path54"
             style="fill:#ff6d2e;fill-opacity:1;fill-rule:nonzero;stroke:none"
             d="m 0,0 c -0.368,-0.209 -0.693,-0.345 -0.96,-0.554 -0.68,-0.532 -1.318,-1.118 -2.005,-1.64 -0.389,-0.296 -0.478,-0.637 -0.406,-1.085 0.263,-1.633 1.294,-2.799 2.398,-3.909 0.096,-0.097 0.518,-0.038 0.644,0.09 0.495,0.502 0.971,1.034 1.378,1.608 0.335,0.474 0.7,0.789 1.302,0.764 0.325,-0.013 0.543,0.096 0.672,0.441 0.213,0.569 0.509,1.108 0.728,1.675 0.056,0.147 0.021,0.445 -0.083,0.52 C 2.971,-1.589 2.262,-1.099 1.521,-0.666 1.057,-0.394 0.532,-0.228 0,0" /></g><g
           transform="translate(24.946,71.2854)"
           id="g56"><path
             id="path58"
             style="fill:#ff6d2e;fill-opacity:1;fill-rule:nonzero;stroke:none"
             d="M 0,0 C -0.053,0.658 -0.065,1.214 -0.157,1.757 -0.198,1.998 -0.35,2.34 -0.54,2.417 -1.876,2.952 -3.22,3.485 -4.713,3.347 -5.303,3.293 -5.544,3.099 -5.316,2.569 -4.821,1.42 -5.403,0.646 -6.09,-0.123 c -0.36,-0.402 -0.793,-0.826 -0.581,-1.39 0.227,-0.606 0.887,-0.459 1.393,-0.561 0.781,-0.159 1.569,-0.301 2.333,-0.521 0.692,-0.2 1.231,-0.035 1.706,0.468 0.189,0.2 0.371,0.413 0.585,0.582 C -0.111,-1.115 0.171,-0.598 0,0" /></g><g
           transform="translate(40.3768,82.5464)"
           id="g60"><path
             id="path62"
             style="fill:#ff6d2e;fill-opacity:1;fill-rule:nonzero;stroke:none"
             d="m 0,0 c 0,-0.118 -0.001,-0.236 0,-0.355 0.005,-0.755 0.206,-0.934 0.889,-0.657 0.941,0.383 1.674,0.078 2.37,-0.545 0.274,-0.246 0.581,-0.468 0.905,-0.64 0.467,-0.249 0.795,-0.117 0.945,0.401 0.123,0.43 0.125,0.892 0.222,1.331 C 5.465,0.141 5.579,0.761 5.808,1.333 6.064,1.974 5.92,2.682 5.542,3.255 4.603,4.68 3.301,4.615 1.914,4.253 1.688,4.194 1.458,3.943 1.338,3.721 0.702,2.553 -0.065,1.424 0,0" /></g><g
           transform="translate(46.9383,87.8095)"
           id="g64"><path
             id="path66"
             style="fill:#ff6d2e;fill-opacity:1;fill-rule:nonzero;stroke:none"
             d="M 0,0 C 0.058,0.026 0.28,0.051 0.364,0.173 0.809,0.817 1.231,1.479 1.64,2.147 1.928,2.617 1.807,3.093 1.589,3.555 1.336,4.089 1.116,4.644 0.808,5.144 0.685,5.344 0.357,5.549 0.134,5.537 -1.203,5.464 -2.536,5.333 -3.87,5.208 -4.102,5.186 -4.342,5.131 -4.554,5.037 -5.099,4.799 -5.216,4.467 -4.917,3.961 -4.317,2.944 -3.7,1.937 -3.079,0.933 -2.782,0.452 -2.357,0.183 -1.768,0.161 -1.216,0.14 -0.667,0.063 0,0" /></g><g
           transform="translate(47.4421,93.5078)"
           id="g68"><path
             id="path70"
             style="fill:#ff6d2e;fill-opacity:1;fill-rule:nonzero;stroke:none"
             d="M 0,0 C 0.181,-0.084 0.362,-0.172 0.545,-0.251 0.637,-0.29 0.726,-0.355 0.831,-0.33 0.969,-0.297 1.152,-0.258 1.258,-0.088 1.342,0.046 1.369,0.405 1.368,0.623 1.366,1.467 1.349,2.298 1.323,3.122 1.318,3.258 1.248,3.351 1.188,3.422 1.15,3.467 1.077,3.462 1.016,3.429 0.571,3.194 0.18,3.203 -0.192,3.306 -0.235,3.318 -0.333,3.252 -0.367,3.179 -0.551,2.781 -0.783,2.419 -0.802,1.916 -0.813,1.617 -0.901,1.261 -0.974,0.93 -1.067,0.506 -1.002,0.304 -0.816,0.245 -0.545,0.16 -0.275,0.073 -0.004,-0.013 Z" /></g><g
           transform="translate(53.2058,102.3247)"
           id="g72"><path
             id="path74"
             style="fill:#ff6d2e;fill-opacity:1;fill-rule:nonzero;stroke:none"
             d="M 0,0 C -1.512,0.335 -3.05,0.681 -4.591,1.016 -5.125,1.133 -5.37,0.947 -5.285,0.413 c 0.237,-1.471 0.505,-2.938 0.789,-4.401 0.107,-0.552 0.401,-0.865 1.056,-0.687 0.738,0.2 1.499,0.315 2.248,0.478 0.694,0.15 1.076,0.605 1.211,1.287 0.114,0.579 0.223,1.109 0.808,1.489 C 1.36,-1.075 1.19,-0.416 0.592,-0.19 0.408,-0.12 0.217,-0.069 0,0" /></g><g
           transform="translate(13.1431,74.5481)"
           id="g76"><path
             id="path78"
             style="fill:#ff6d2e;fill-opacity:1;fill-rule:nonzero;stroke:none"
             d="m 0,0 c 0.085,-1.246 0.128,-2.463 0.261,-3.67 0.138,-1.26 0.176,-1.26 1.423,-1.231 0.71,0.017 1.421,0.019 2.126,0.089 0.238,0.024 0.567,0.179 0.666,0.371 0.446,0.871 0.897,1.752 1.207,2.677 0.307,0.916 0.05,1.35 -0.896,1.5 C 3.491,-0.058 2.175,0.022 0.866,0.131 0.622,0.152 0.368,0.059 0,0" /></g><g
           transform="translate(30.4537,66.5357)"
           id="g80"><path
             id="path82"
             style="fill:#ff6d2e;fill-opacity:1;fill-rule:nonzero;stroke:none"
             d="M 0,0 C 0.069,-0.007 0.754,-0.066 1.009,0.333 1.25,0.71 1.029,1.311 0.768,1.569 0.24,2.091 -0.297,2.603 -0.831,3.117 -1.423,3.687 -2.007,4.267 -2.619,4.816 -2.736,4.921 -3.016,4.991 -3.137,4.925 -4.203,4.34 -5.102,3.559 -5.699,2.484 -5.811,2.282 -5.855,1.99 -5.81,1.763 c 0.134,-0.675 0.339,-1.336 0.494,-2.007 0.073,-0.319 0.207,-0.43 0.54,-0.326 0.933,0.289 1.871,0.564 2.812,0.823 0.266,0.072 0.504,0.014 0.63,0.007 C -0.763,0.23 -0.304,0.104 0,0" /></g><g
           transform="translate(44.5529,74.5783)"
           id="g84"><path
             id="path86"
             style="fill:#ff6d2e;fill-opacity:1;fill-rule:nonzero;stroke:none"
             d="M 0,0 C 0.056,1.522 0.196,2.302 0.32,2.736 0.433,3.132 0.432,3.313 0.431,3.675 0.43,4.476 0.279,4.642 -0.518,4.689 -1.342,4.739 -1.931,5.229 -2.537,5.698 -2.755,5.867 -2.956,6.071 -3.198,6.193 -3.351,6.269 -3.616,6.295 -3.738,6.21 -3.859,6.126 -3.933,5.861 -3.903,5.699 -3.859,5.46 -3.753,5.193 -3.587,5.022 -3.041,4.459 -3.005,3.818 -3.283,3.158 -3.83,1.859 -3.588,0.814 -2.501,-0.118 c 0.316,-0.271 0.377,-0.838 0.561,-1.266 0.122,-0.287 0.192,-0.629 0.395,-0.842 0.496,-0.524 1.315,-0.258 1.486,0.446 0.028,0.115 0.065,0.231 0.067,0.348 0.008,0.414 0.003,0.828 0.003,1.242 C 0.008,-0.127 0.004,-0.063 0,0" /></g><g
           transform="translate(48.069,60.641)"
           id="g88"><path
             id="path90"
             style="fill:#ff6d2e;fill-opacity:1;fill-rule:nonzero;stroke:none"
             d="M 0,0 C -0.231,0.954 -0.437,1.79 -0.635,2.628 -0.716,2.974 -0.783,3.323 -0.853,3.671 -0.979,4.296 -1.221,4.371 -1.751,4.013 -2.577,3.455 -3.403,2.89 -4.275,2.411 -4.766,2.142 -5.343,2.02 -5.892,1.869 -6.55,1.688 -6.753,1.257 -6.381,0.678 c 0.358,-0.56 0.772,-1.077 0.793,-1.795 0.009,-0.293 0.234,-0.407 0.512,-0.251 0.8,0.449 1.62,0.443 2.515,0.305 0.64,-0.098 1.348,0.029 1.981,0.21 C -0.324,-0.779 -0.187,-0.292 0,0" /></g><g
           transform="translate(52.1195,90.8604)"
           id="g92"><path
             id="path94"
             style="fill:#ff6d2e;fill-opacity:1;fill-rule:nonzero;stroke:none"
             d="M 0,0 C 0.062,0.227 0.166,0.561 0.336,0.945 0.82,2.038 1.173,2.084 1.247,2.7 1.307,3.201 1.213,3.73 0.947,4.296 0.696,4.827 0.821,5.327 1.125,5.796 1.185,5.887 1.237,5.984 1.284,6.082 1.441,6.406 1.578,6.793 1.19,7.004 1.053,7.078 0.637,6.803 0.415,6.619 -0.324,6.007 -0.938,5.26 -2.081,5.2 -2.591,5.173 -2.766,4.669 -2.59,4.015 c 0.228,-0.846 0.512,-1.684 0.68,-2.538 0.115,-0.583 0.051,-1.189 0.111,-1.782 0.045,-0.438 0.121,-0.903 0.78,-0.926 0.179,-0.006 0.333,0.028 0.463,0.104 0.267,0.155 0.358,0.446 0.475,0.812 C -0.039,-0.184 -0.014,-0.073 0,0" /></g><g
           transform="translate(20.7095,53.4548)"
           id="g96"><path
             id="path98"
             style="fill:#ff6d2e;fill-opacity:1;fill-rule:nonzero;stroke:none"
             d="M 0,0 C 0.194,0.806 0.404,1.438 0.56,1.867 0.732,2.341 0.835,2.844 1.071,3.289 1.528,4.152 1.53,4.76 0.907,5.521 0.578,5.924 0.405,6.336 0.424,6.863 0.435,7.167 0.358,7.491 0.252,7.781 0.085,8.24 -0.276,8.453 -0.772,8.388 -1.253,8.326 -1.382,7.979 -1.47,7.561 -1.673,6.6 -1.867,5.634 -2.147,4.693 -2.317,4.119 -2.703,3.608 -2.878,3.034 -2.932,2.856 -2.959,2.717 -2.967,2.585 c 0,0 -0.009,-0.156 0.012,-0.319 0.041,-0.31 0.594,-2.214 2.014,-2.397 C -0.75,-0.156 -0.421,-0.165 0,0" /></g><g
           transform="translate(13.7522,68.7819)"
           id="g100"><path
             id="path102"
             style="fill:#ff6d2e;fill-opacity:1;fill-rule:nonzero;stroke:none"
             d="m 0,0 c 0.187,-1.188 0.395,-2.448 0.582,-3.711 0.158,-1.073 0.274,-2.152 0.45,-3.221 0.027,-0.162 0.265,-0.321 0.442,-0.406 0.052,-0.025 0.339,0.219 0.332,0.329 -0.089,1.506 1.018,2.414 1.711,3.531 0.32,0.516 0.612,1.056 0.846,1.614 0.235,0.56 0.024,1 -0.496,1.351 C 3.679,-0.386 3.508,-0.209 3.381,-0.02 2.978,0.582 2.761,0.642 2.047,0.443 1.41,0.266 0.754,0.16 0,0" /></g><g
           transform="translate(46.6459,79.3821)"
           id="g104"><path
             id="path106"
             style="fill:#ff6d2e;fill-opacity:1;fill-rule:nonzero;stroke:none"
             d="M 0,0 C 0.409,0.065 0.815,0.168 1.226,0.187 1.847,0.215 2.478,0.243 3.091,0.165 3.967,0.053 4.378,0.371 4.192,1.235 3.936,2.432 3.659,3.615 3.831,4.854 3.869,5.12 3.728,5.274 3.433,5.122 2.533,4.66 1.639,4.187 0.734,3.737 0.135,3.44 -0.183,3.01 -0.226,2.312 -0.26,1.749 -0.456,1.197 -0.563,0.637 -0.646,0.201 -0.5,-0.064 0,0" /></g><g
           transform="translate(13.2536,57.1798)"
           id="g108"><path
             id="path110"
             style="fill:#ff6d2e;fill-opacity:1;fill-rule:nonzero;stroke:none"
             d="M 0,0 C 1.018,-0.51 2.041,-1.048 3.093,-1.521 3.236,-1.586 3.67,-1.375 3.722,-1.212 4.174,0.189 4.587,1.604 4.972,3.025 5.1,3.497 4.792,3.6 4.377,3.526 3.266,3.329 2.153,3.142 0.983,2.941 0.704,2.107 0.376,1.124 0,0" /></g><g
           transform="translate(46.8242,83.7701)"
           id="g112"><path
             id="path114"
             style="fill:#ff6d2e;fill-opacity:1;fill-rule:nonzero;stroke:none"
             d="m 0,0 c 0.456,0.181 0.817,0.312 1.168,0.465 0.794,0.346 1.587,0.695 2.371,1.062 0.167,0.078 0.388,0.211 0.429,0.362 0.3,1.095 0.561,2.2 0.833,3.298 C 3.541,5.52 2.554,5.294 1.964,4.478 1.484,3.813 0.832,3.273 0.348,2.61 0.091,2.259 -0.035,1.775 -0.102,1.333 -0.16,0.956 -0.05,0.554 0,0" /></g><g
           transform="translate(13.2924,75.5511)"
           id="g116"><path
             id="path118"
             style="fill:#ff6d2e;fill-opacity:1;fill-rule:nonzero;stroke:none"
             d="M 0,0 C 1.065,0.147 2.128,0.059 2.933,0.473 3.662,0.848 4.122,1.76 4.664,2.463 4.751,2.576 4.698,2.863 4.62,3.026 4.263,3.768 3.874,4.494 3.474,5.271 1.654,3.993 0.269,2.471 0,0" /></g><g
           transform="translate(26.5008,55.2813)"
           id="g120"><path
             id="path122"
             style="fill:#ff6d2e;fill-opacity:1;fill-rule:nonzero;stroke:none"
             d="M 0,0 C -0.697,0.39 -1.187,1.3 -2.282,1.021 -2.487,0.969 -2.754,1.066 -2.966,1.156 -3.423,1.35 -3.657,1.122 -3.764,0.739 -4.006,-0.13 -4.235,-1.004 -4.417,-1.886 c -0.045,-0.221 0.046,-0.531 0.186,-0.716 0.326,-0.43 0.719,-0.809 1.115,-1.24 C -2.058,-2.537 -1.05,-1.294 0,0" /></g><g
           transform="translate(20.9831,82.9984)"
           id="g124"><path
             id="path126"
             style="fill:#ff6d2e;fill-opacity:1;fill-rule:nonzero;stroke:none"
             d="m 0,0 c -0.007,-0.305 0.018,-0.924 0.405,-1.159 0.136,-0.083 0.29,-0.127 0.578,-0.075 0.986,0.179 1.885,0.137 2.8,-0.342 C 4.344,-1.87 4.69,-1.55 4.76,-0.907 4.831,-0.263 4.96,0.374 5.038,1.018 5.062,1.214 5.041,1.351 4.963,1.437 4.826,1.588 4.567,1.558 4.457,1.545 1.772,1.236 0.994,1.236 0.312,0.443 0.229,0.346 0.114,0.2 0,0" /></g><g
           transform="translate(32.4223,65.3669)"
           id="g128"><path
             id="path130"
             style="fill:#ff6d2e;fill-opacity:1;fill-rule:nonzero;stroke:none"
             d="M 0,0 C 1.123,0.05 2.165,0.084 3.204,0.158 3.346,0.168 3.585,0.372 3.589,0.493 3.61,1.058 3.599,1.631 3.519,2.19 3.496,2.351 3.178,2.618 3.044,2.592 1.969,2.374 1.279,3.11 0.476,3.564 0.375,3.622 0.303,3.74 0.199,3.782 -0.072,3.89 -0.354,3.972 -0.632,4.064 -0.67,3.73 -0.723,3.396 -0.737,3.06 -0.741,2.959 -0.659,2.829 -0.577,2.754 0.133,2.1 0.235,1.303 0.003,0.418 -0.02,0.329 0,0.229 0,0" /></g><g
           transform="translate(40.292,67.9688)"
           id="g132"><path
             id="path134"
             style="fill:#ff6d2e;fill-opacity:1;fill-rule:nonzero;stroke:none"
             d="m 0,0 c 0.854,-1.534 0.753,-3.155 0.856,-4.774 0.64,0.015 1.19,0.096 1.607,0.616 0.165,0.207 0.403,0.391 0.647,0.491 0.491,0.2 0.583,0.552 0.359,0.947 -0.471,0.837 -0.982,1.653 -1.518,2.449 -0.105,0.156 -0.396,0.238 -0.61,0.259 C 0.931,0.028 0.515,0 0,0" /></g><g
           transform="translate(23.5415,58.5931)"
           id="g136"><path
             id="path138"
             style="fill:#ff6d2e;fill-opacity:1;fill-rule:nonzero;stroke:none"
             d="M 0,0 C 0.688,1.031 1.249,1.872 1.874,2.809 1.095,2.898 0.462,3.089 -0.164,2.63 -0.363,2.484 -0.68,2.46 -0.947,2.449 -1.585,2.423 -1.758,2.195 -1.395,1.66 -1.018,1.106 -0.533,0.625 0,0" /></g><g
           transform="translate(25.6982,62.2901)"
           id="g140"><path
             id="path142"
             style="fill:#ff6d2e;fill-opacity:1;fill-rule:nonzero;stroke:none"
             d="M 0,0 C 0.597,1.367 1.156,2.648 1.715,3.929 1.649,3.968 1.582,4.007 1.516,4.046 0.727,3.163 -0.165,2.36 -0.709,1.281 -0.976,0.752 -0.62,0.403 0,0" /></g><g
           transform="translate(31.2176,84.7825)"
           id="g144"><path
             id="path146"
             style="fill:#ff6d2e;fill-opacity:1;fill-rule:nonzero;stroke:none"
             d="m 0,0 c -1.58,-0.123 -3.057,-0.238 -4.566,-0.355 -0.009,-0.754 0.273,-0.951 0.739,-0.949 0.898,0.004 1.797,-0.018 2.694,-0.068 C -0.517,-1.406 -0.187,-0.993 0,0" /></g><g
           transform="translate(48.3088,63.4367)"
           id="g148"><path
             id="path150"
             style="fill:#ff6d2e;fill-opacity:1;fill-rule:nonzero;stroke:none"
             d="M 0,0 C 0.133,0.907 0.269,1.813 0.397,2.72 0.457,3.148 0.207,3.225 -0.101,3.062 -0.617,2.789 -0.791,2.283 -0.687,1.755 -0.569,1.15 -0.333,0.567 -0.149,-0.025 -0.099,-0.017 -0.05,-0.008 0,0" /></g><g
           transform="translate(22.6924,51.2182)"
           id="g152"><path
             id="path154"
             style="fill:#ff6d2e;fill-opacity:1;fill-rule:nonzero;stroke:none"
             d="m 0,0 c -0.738,-0.349 -1.477,-0.699 -2.212,-1.046 0.543,-0.274 0.809,-0.272 1.188,0.049 0.372,0.314 0.722,0.642 1.081,0.964 z" /></g><g
           transform="translate(39.0297,58.9512)"
           id="g156"><path
             id="path158"
             style="fill:#ff6d2e;fill-opacity:1;fill-rule:nonzero;stroke:none"
             d="M 0,0 C 0.272,0.07 0.422,0.126 0.577,0.147 1.699,0.297 1.77,0.331 1.945,1.504 2.078,2.396 2.291,3.33 1.853,4.195 1.261,5.365 0.503,6.419 -0.583,7.152 -0.712,7.238 -0.942,7.237 -1.096,7.186 -2.181,6.831 -3.261,6.457 -4.338,6.078 -4.746,5.934 -5.148,5.768 -5.546,5.599 -5.781,5.499 -6.044,5.418 -6.228,5.249 -6.955,4.583 -6.901,4.22 -6.234,3.696 -5.169,2.86 -4.113,1.966 -3.231,0.931 -2.42,-0.02 -1.518,-0.184 -0.461,-0.082 -0.265,-0.063 -0.073,-0.013 0,0" /></g><g
           transform="translate(26.2434,80.5633)"
           id="g160"><path
             id="path162"
             style="fill:#ff6d2e;fill-opacity:1;fill-rule:nonzero;stroke:none"
             d="m 0,0 c 0.292,-0.083 0.594,-0.14 0.873,-0.255 0.422,-0.173 0.851,-0.35 1.234,-0.592 0.549,-0.345 0.92,-0.261 1.064,0.371 0.2,0.876 0.382,1.749 0.88,2.519 C 4.158,2.209 4.112,2.355 3.869,2.346 3.127,2.316 2.386,2.278 1.645,2.259 1.154,2.247 0.81,2.059 0.565,1.608 0.368,1.244 0.067,0.938 -0.177,0.598 -0.367,0.333 -0.353,0.113 0,0" /></g><g
           transform="translate(35.2891,75.3127)"
           id="g164"><path
             id="path166"
             style="fill:#ff6d2e;fill-opacity:1;fill-rule:nonzero;stroke:none"
             d="M 0,0 C 1.542,0.335 2.987,0.649 4.431,0.964 4.401,1.055 4.371,1.146 4.341,1.238 2.988,1.415 1.601,1.748 0.319,1.554 -0.309,1.459 -0.253,0.877 0,0" /></g><g
           transform="translate(43.1632,58.7174)"
           id="g168"><path
             id="path170"
             style="fill:#ff6d2e;fill-opacity:1;fill-rule:nonzero;stroke:none"
             d="M 0,0 C 2.2,0.042 3.7,0.09 3.993,0.147 4.035,0.156 4.215,0.194 4.293,0.108 4.326,0.071 4.336,0.008 4.308,-0.104 4.269,-0.152 4.211,-0.194 4.193,-0.249 3.71,-1.733 3.826,-3.385 2.938,-4.758 2.897,-4.821 2.915,-4.923 2.91,-5.006 2.864,-5.76 2.818,-6.515 2.773,-7.269 c -0.195,-3.31 -0.459,-6.617 -0.56,-9.93 -0.071,-2.303 0.02,-4.616 0.158,-6.917 0.084,-1.416 0.414,-2.817 0.593,-4.23 0.151,-1.187 0.03,-2.351 -0.57,-3.414 -0.106,-0.187 -0.378,-0.437 -0.534,-0.413 -1.42,0.226 -2.789,0.612 -3.893,1.611 -0.776,0.703 -0.993,1.523 -0.486,2.436 0.392,0.705 0.977,1.3 1.446,1.965 0.194,0.275 0.411,0.597 0.44,0.913 0.173,1.901 0.372,3.805 0.408,5.712 0.031,1.652 -0.085,3.313 -0.239,4.96 -0.254,2.713 -0.585,5.419 -0.904,8.125 -0.019,0.162 -0.189,0.398 -0.33,0.434 -0.374,0.094 -0.771,0.097 -1.208,0.141 -0.101,-1.032 -0.197,-2.031 -0.295,-3.03 -0.279,-2.86 -0.558,-5.719 -0.838,-8.579 -0.275,-2.818 -0.562,-5.635 -0.81,-8.455 -0.03,-0.34 0.099,-0.72 0.241,-1.044 0.493,-1.126 1.139,-2.198 1.509,-3.36 0.39,-1.228 -0.25,-2.202 -1.514,-2.427 -0.81,-0.144 -1.677,-0.137 -2.495,-0.024 -1.137,0.157 -1.654,1.033 -1.946,2.06 v 1.26 c 0.333,1.162 0.659,2.308 0.709,3.544 0.146,3.581 0.381,7.159 0.585,10.738 0.147,2.575 0.33,5.147 0.44,7.723 0.067,1.572 0.407,3.165 -0.405,4.69 -0.063,0.118 -0.165,0.334 -0.082,0.531 0.19,0.452 1.128,0.187 2.073,0.586 0.84,0.354 0.952,0.924 1.532,1.4 C -3.562,0.263 -2.38,0.652 0,0" /></g><g
           transform="translate(23.3407,51.167)"
           id="g172"><path
             id="path174"
             style="fill:#ff6d2e;fill-opacity:1;fill-rule:nonzero;stroke:none"
             d="m 0,0 v -0.126 c -0.358,-0.379 -0.755,-0.73 -1.065,-1.145 -0.366,-0.49 -0.817,-0.999 -0.951,-1.566 -0.355,-1.506 -0.578,-3.045 -0.819,-4.576 -0.594,-3.762 -0.878,-7.53 -0.334,-11.333 0.128,-0.894 0.294,-1.652 1.136,-2.133 0.244,-0.14 0.43,-0.399 0.614,-0.625 0.913,-1.122 0.807,-2.091 -0.494,-2.713 -1.078,-0.516 -2.292,-0.741 -3.437,-1.123 -0.495,-0.166 -0.742,0.078 -0.966,0.447 -0.631,1.042 -0.643,2.188 -0.373,3.295 0.568,2.322 0.846,4.68 0.743,7.048 -0.163,3.751 -0.485,7.495 -0.754,11.241 -0.043,0.609 -0.161,1.212 -0.245,1.818 -0.063,0.004 -0.125,0.009 -0.188,0.013 -0.577,-0.826 -0.839,-1.77 -0.959,-2.772 -0.314,-2.622 -0.637,-5.243 -0.952,-7.866 -0.318,-2.643 -0.646,-5.285 -0.929,-7.932 -0.033,-0.303 0.142,-0.66 0.302,-0.947 0.465,-0.838 1.078,-1.61 1.436,-2.488 0.444,-1.089 -0.047,-1.923 -1.192,-2.176 -0.667,-0.148 -1.372,-0.159 -2.061,-0.169 -1.314,-0.02 -2.39,0.398 -2.882,1.751 v 1.009 c 0.221,0.778 0.556,1.544 0.642,2.336 0.202,1.876 0.286,3.765 0.418,5.648 0.288,4.122 0.575,8.244 0.867,12.366 0.073,1.043 0.038,2.113 0.269,3.12 0.361,1.574 0.685,3.207 1.964,4.388 h 0.63 C -8.845,4.336 -8.088,3.97 -7.192,3.934 -6.17,3.892 -5.496,3.357 -5.1,2.396 -4.604,1.19 -4.013,0.933 -2.781,1.333 -2.348,1.474 -1.977,1.479 -1.607,1.197 -1.076,0.792 -0.536,0.398 0,0" /></g><g
           transform="translate(34.2482,60.2531)"
           id="g176"><path
             id="path178"
             style="fill:#ff6d2e;fill-opacity:1;fill-rule:nonzero;stroke:none"
             d="m 0,0 c -0.417,-1.454 -0.757,-2.638 -1.135,-3.959 0.938,0.185 1.745,0.198 2.301,0.963 0.178,0.245 0.538,0.39 0.843,0.501 0.732,0.268 0.848,0.597 0.228,1.083 C 1.593,-0.907 0.851,-0.528 0,0" /></g><g
           transform="translate(63.4848,26.6968)"
           id="g180"><path
             id="path182"
             style="fill:#ff6d2e;fill-opacity:1;fill-rule:nonzero;stroke:none"
             d="m 0,0 c 5.425,0 6.028,3.417 6.028,8.439 v 47.018 c 0,5.024 -0.603,8.439 -6.028,8.439 V 64.5 l 22.002,2.008 V 34.56 c 4.119,4.119 9.644,7.736 16.175,7.736 6.832,0 12.659,-3.919 12.659,-13.764 V 8.439 C 50.836,3.417 51.439,0 56.864,0 V -0.602 H 29.839 V 0 c 4.219,0 5.022,3.417 5.022,8.439 V 30.34 c 0,4.924 -2.209,6.933 -5.324,6.933 -3.014,0 -5.526,-1.707 -7.535,-3.616 V 8.439 C 22.002,3.417 22.605,0 28.03,0 V -0.602 H 0 Z" /></g><g
           transform="translate(140.9408,49.703)"
           id="g184"><path
             id="path186"
             style="fill:#ff6d2e;fill-opacity:1;fill-rule:nonzero;stroke:none"
             d="m 0,0 h 13.562 c 0,4.119 0.101,18.788 -6.328,18.788 C 1.708,18.788 0,7.535 0,0 m -16.375,-2.813 c 0,12.158 9.342,22.102 23.909,22.102 12.86,0 21.099,-7.835 21.601,-20.093 L 0,-0.804 c 0.101,-13.261 5.224,-21.399 14.366,-21.399 6.531,0 11.052,4.221 14.065,7.836 l 0.502,-0.4 c -3.616,-4.422 -9.443,-9.947 -21.097,-9.947 -15.974,0 -24.211,10.449 -24.211,21.901" /></g><g
           transform="translate(204.9343,32.121)"
           id="g188"><path
             id="path190"
             style="fill:#ff6d2e;fill-opacity:1;fill-rule:nonzero;stroke:none"
             d="m 0,0 v 14.367 c -1.507,0.402 -3.315,0.804 -4.822,0.804 -5.225,0 -7.434,-3.617 -7.434,-9.645 0,-4.922 1.508,-9.343 5.826,-9.343 2.111,0 4.321,1.106 6.43,3.817 m -28.632,4.722 c 0,8.541 7.937,11.756 17.682,11.756 3.716,0 7.835,-0.503 10.95,-1.307 v 10.548 c 0,5.728 -1.206,10.651 -7.735,10.651 -4.221,0 -6.832,-2.11 -8.54,-4.421 2.712,-1.305 4.421,-4.219 4.421,-7.133 0,-4.119 -3.317,-7.334 -7.635,-7.334 -4.723,0 -7.234,3.919 -7.234,7.535 0,6.63 8.037,11.855 19.891,11.855 10.551,0 22.807,-4.219 22.807,-16.275 V -0.904 c 0,-1.907 1.003,-2.813 2.611,-2.813 2.513,0 4.822,2.513 6.43,4.924 l 0.503,-0.301 c -2.813,-4.019 -6.23,-7.938 -13.261,-7.938 -6.23,0 -9.847,3.115 -11.354,7.032 -2.711,-3.717 -7.132,-7.132 -14.767,-7.132 -8.741,0 -14.769,4.421 -14.769,11.854" /></g><g
           transform="translate(262.599,31.921)"
           id="g192"><path
             id="path194"
             style="fill:#ff6d2e;fill-opacity:1;fill-rule:nonzero;stroke:none"
             d="m 0,0 v 31.245 c -1.306,2.712 -3.515,4.923 -6.33,4.923 -6.83,0 -8.337,-13.162 -8.337,-20.697 0,-10.549 3.013,-18.184 8.941,-18.184 2.411,0 4.32,1.306 5.726,2.713 m -31.345,14.869 c 0,11.956 7.333,22.202 21.4,22.202 4.721,0 7.836,-1.205 9.945,-2.311 v 15.473 c 0,6.128 -2.611,8.439 -8.037,8.439 v 0.604 l 24.012,2.007 V 3.215 c 0,-5.022 0.603,-8.439 6.028,-8.439 V -5.826 H 0.504 v 5.324 c -2.815,-3.317 -7.134,-6.43 -13.564,-6.43 -11.654,0 -18.285,10.449 -18.285,21.801" /></g><g
           transform="translate(314.5375,38.7527)"
           id="g196"><path
             id="path198"
             style="fill:#ff6d2e;fill-opacity:1;fill-rule:nonzero;stroke:none"
             d="m 0,0 v 18.788 c 0,5.022 -0.604,8.741 -6.03,8.741 v 0.601 l 22.003,2.01 V -1.809 c 0,-4.923 2.211,-6.932 5.324,-6.932 2.915,0 5.426,1.607 7.535,3.617 v 23.912 c 0,5.022 -0.803,8.741 -5.022,8.741 v 0.601 l 20.997,2.01 V -3.315 c 0,-5.024 0.602,-8.741 6.028,-8.741 v -0.602 H 29.334 v 7.132 C 25.116,-9.947 19.389,-13.763 12.658,-13.763 5.826,-13.763 0,-9.847 0,0" /></g><g
           transform="translate(389.6842,62.0608)"
           id="g200"><path
             id="path202"
             style="fill:#ff6d2e;fill-opacity:1;fill-rule:nonzero;stroke:none"
             d="m 0,0 v -27.929 c 0,-5.928 3.415,-8.239 6.43,-8.239 6.73,0 8.237,12.358 8.237,20.495 0,11.452 -3.015,18.386 -8.841,18.386 C 3.215,2.713 1.306,1.406 0,0 m -22.003,-51.74 c 5.425,0 6.028,3.718 6.028,8.741 v 38.478 c 0,5.023 -0.603,8.742 -6.028,8.742 v 0.601 l 21.499,2.01 v -6.43 c 2.813,3.315 7.134,6.53 13.564,6.53 11.654,0 18.285,-10.449 18.285,-21.801 0,-11.956 -7.335,-22.202 -21.4,-22.202 -4.723,0 -7.938,1.105 -9.945,2.309 v -9.041 c 0,-5.023 1.807,-7.937 7.032,-7.937 v -0.602 h -29.035 z" /></g></g></g></g></svg>