<?xml version="1.0" encoding="UTF-8" standalone="no"?>
<svg
   xmlns:dc="http://purl.org/dc/elements/1.1/"
   xmlns:cc="http://creativecommons.org/ns#"
   xmlns:rdf="http://www.w3.org/1999/02/22-rdf-syntax-ns#"
   xmlns:svg="http://www.w3.org/2000/svg"
   xmlns="http://www.w3.org/2000/svg"
   viewBox="0 0 207.11067 343.11066"
   height="343.11066"
   width="207.11067"
   xml:space="preserve"
   id="svg2"
   version="1.1"><metadata
     id="metadata8"><rdf:RDF><cc:Work
         rdf:about=""><dc:format>image/svg+xml</dc:format><dc:type
           rdf:resource="http://purl.org/dc/dcmitype/StillImage" /></cc:Work></rdf:RDF></metadata><defs
     id="defs6"><clipPath
       id="clipPath18"
       clipPathUnits="userSpaceOnUse"><path
         id="path16"
         d="M 0,257.333 H 155.333 V 0 H 0 Z" /></clipPath></defs><g
     transform="matrix(1.3333333,0,0,-1.3333333,0,343.11067)"
     id="g10"><g
       id="g12"><g
         clip-path="url(#clipPath18)"
         id="g14"><g
           transform="translate(115.983,239.8505)"
           id="g20"><path
             id="path22"
             style="fill:#ffffff;fill-opacity:1;fill-rule:nonzero;stroke:none"
             d="m 0,0 c -0.361,-0.146 -0.997,-0.467 -1.441,-1.136 -0.414,-0.623 -0.545,-1.244 -0.507,-2.033 0.045,-0.923 0.217,-1.85 0.163,-2.765 -0.045,-0.76 -0.221,-1.56 -0.545,-2.245 -0.561,-1.182 -1.756,-1.276 -2.843,-1.148 -1.999,0.237 -3.974,0.677 -5.97,0.953 -1.55,0.215 -3.118,0.311 -4.678,0.459 l -0.252,-0.001 c -0.813,-0.053 -1.719,-0.02 -2.167,-0.837 -0.479,-0.874 0.097,-1.636 0.569,-2.317 1.928,-2.779 4.661,-4.101 7.986,-4.303 0.28,-0.017 0.561,-0.005 0.842,-0.002 1.847,0.021 2.714,-0.733 2.59,-2.567 -0.091,-1.354 -0.415,-2.708 -0.773,-4.024 -2.832,-10.403 -5.606,-20.823 -8.595,-31.181 -1.272,-4.404 -3.026,-8.668 -4.54,-13.002 -0.683,-1.955 -1.329,-3.923 -1.97,-5.892 -1.36,-4.183 -3.853,-7.415 -7.805,-9.47 -1.415,-0.736 -2.787,-1.557 -4.164,-2.363 -1.343,-0.787 -2.382,-1.865 -2.971,-3.325 -0.692,-1.712 -1.357,-3.435 -2.035,-5.153 -0.481,-1.22 -1.043,-2.351 -2.413,-2.844 -0.571,-0.206 -0.564,-0.716 -0.16,-1.073 0.519,-0.458 1.073,-0.981 1.706,-1.188 5.523,-1.8 10.609,-1.2 15.014,3.278 1.612,1.638 2.243,3.606 1.689,5.938 -0.481,2.02 -0.848,4.094 -0.344,6.16 0.234,0.958 0.656,1.907 1.17,2.752 1.397,2.293 2.884,4.531 4.345,6.784 1.218,1.879 2.381,3.8 3.71,5.597 0.499,0.674 1.353,1.141 2.128,1.544 0.869,0.452 1.454,1.136 1.685,1.996 0.544,2.022 1.077,4.061 1.383,6.128 0.598,4.043 1.011,8.113 1.564,12.162 0.12,0.874 0.45,1.735 0.786,2.56 0.675,1.659 1.972,2.471 3.751,2.458 2.364,-0.018 4.546,0.489 6.472,1.947 2.337,1.769 2.913,3.914 1.68,6.582 -0.247,0.533 -0.509,1.066 -0.835,1.553 -0.422,0.63 -0.226,1.057 0.361,1.37 0.541,0.29 1.104,0.543 1.669,0.783 2.29,0.973 4.635,1.834 6.863,2.931 1.915,0.943 3.924,1.262 5.986,1.505 0.748,0.088 1.483,0.286 2.223,0.437 0.758,0.156 1.363,0.458 1.828,0.895 0.741,0.695 0.968,1.627 1.102,2.171 0.113,0.455 0.15,0.846 0.163,1.121 0.028,0.367 0.056,0.733 0.083,1.1 -4.369,1.29 -8.756,2.525 -13.102,3.889 -3.136,0.984 -6.378,1.7 -9.246,3.428 -1.43,0.861 -1.54,1.224 -0.791,2.745 0.542,1.099 1.114,2.202 1.486,3.364 0.223,0.697 0.376,1.45 0.116,2.311 -0.352,1.163 -1.304,1.8 -1.689,2.027 C 0.852,0.04 0.426,0.02 0,0" /></g><g
           transform="translate(115.9249,140.2649)"
           id="g24"><path
             id="path26"
             style="fill:#ffffff;fill-opacity:1;fill-rule:nonzero;stroke:none"
             d="M 0,0 C -0.171,1.19 -0.409,1.573 -0.583,1.797 -1.192,2.585 -2.222,2.91 -3.409,3.092 -4.355,3.237 -5.267,3.679 -6.21,3.735 -6.806,3.77 -7.566,3.494 -8.016,3.092 -9.689,1.6 -10.471,-0.446 -11.128,-2.522 c -0.212,-0.669 -0.369,-1.409 -0.303,-2.092 0.038,-0.392 0.551,-1.027 0.892,-1.056 2.803,-0.24 4.891,-1.788 6.887,-3.547 0.106,-0.093 0.21,-0.19 0.327,-0.267 0.143,-0.095 0.3,-0.171 0.496,-0.279 0.533,0.669 1.152,1.569 1.701,2.708 0.531,1.102 0.845,2.116 1.037,2.931 C 0.227,-2.342 0.133,-0.924 0,0" /></g><g
           transform="translate(79.888,107.4133)"
           id="g28"><path
             id="path30"
             style="fill:#ffffff;fill-opacity:1;fill-rule:nonzero;stroke:none"
             d="M 0,0 C -0.025,2.789 0.143,4.617 0.363,5.893 0.435,6.31 0.599,7.188 0.182,8.07 c -0.25,0.528 -0.69,0.987 -1.377,1.401 -1.568,0.947 -2.928,2.24 -4.367,3.397 -1.022,0.821 -1.286,0.85 -2.013,-0.275 -1.985,-3.074 -3.461,-6.32 -2.992,-10.128 0.153,-1.241 -0.14,-2.309 -1.077,-3.2 -0.692,-0.658 -0.765,-1.765 -0.261,-2.548 0.495,-0.769 1.42,-1.071 2.366,-0.656 1.237,0.542 2.432,1.176 3.653,1.753 1.342,0.633 1.858,0.468 2.946,-0.541 0.559,-0.518 1.405,-1.255 1.958,-1.136 0.2,0.043 0.348,0.123 0.456,0.229 0.412,0.404 0.257,1.042 0.285,1.98 C -0.229,-1.262 -0.179,-0.693 0,0" /></g><g
           transform="translate(58.5281,137.9231)"
           id="g32"><path
             id="path34"
             style="fill:#ffffff;fill-opacity:1;fill-rule:nonzero;stroke:none"
             d="m 0,0 c 2.381,-0.133 4.099,-0.314 5.439,-0.519 0.487,-0.074 1.355,-0.216 2.182,0.233 0.497,0.27 0.904,0.722 1.236,1.386 0.698,1.397 1.383,2.8 2.092,4.191 0.646,1.267 -0.032,2.204 -0.775,3.098 C 8.258,10.694 5.76,11.412 2.878,10.926 1.21,10.645 -0.256,10.785 -1.26,12.378 -1.37,12.553 -1.741,12.702 -1.946,12.657 -3.624,12.293 -4.496,10.8 -3.893,9.142 -3.47,7.979 -2.882,6.863 -2.262,5.788 -1.693,4.802 -1.919,4.033 -2.634,3.286 -3.053,2.849 -3.537,2.453 -3.864,1.954 -4.09,1.61 -4.281,1.045 -4.147,0.719 -4.012,0.389 -3.475,0.075 -3.083,0.03 -2.201,-0.072 -1.3,-0.002 -0.406,-0.002 -0.271,-0.001 -0.135,-0.001 0,0" /></g><g
           transform="translate(92.1114,126.0328)"
           id="g36"><path
             id="path38"
             style="fill:#ffffff;fill-opacity:1;fill-rule:nonzero;stroke:none"
             d="M 0,0 C 0.509,0 0.797,0.028 1.078,-0.004 3.112,-0.238 3.251,-0.21 4.09,1.66 4.728,3.083 5.525,4.541 5.15,6.165 4.644,8.361 3.794,10.435 2.222,12.119 2.037,12.318 1.633,12.414 1.34,12.396 -0.723,12.273 -2.784,12.116 -4.844,11.95 -5.624,11.887 -6.402,11.784 -7.178,11.675 -7.635,11.61 -8.132,11.588 -8.531,11.388 -10.107,10.594 -10.177,9.967 -9.246,8.812 -7.759,6.968 -6.315,5.03 -5.239,2.933 -4.25,1.007 -2.743,0.347 -0.844,0.062 -0.493,0.009 -0.134,0.009 0,0" /></g><g
           transform="translate(67.2879,133.8522)"
           id="g40"><path
             id="path42"
             style="fill:#ffffff;fill-opacity:1;fill-rule:nonzero;stroke:none"
             d="m 0,0 c 0.257,-0.215 0.521,-0.624 0.834,-0.666 3.294,-0.439 6.041,-2.237 8.989,-3.535 0.979,-0.431 1.943,-0.948 2.969,-1.202 0.564,-0.14 1.365,0.01 1.841,0.342 0.667,0.465 0.539,1.295 0.161,1.955 -1.063,1.854 -1.637,3.82 -1.915,5.955 C 12.557,5.328 11.191,7.105 8.577,7.69 7.572,7.914 6.611,8.363 5.6,8.525 5.043,8.615 4.221,8.522 3.868,8.165 2.329,6.609 1.017,4.885 0.701,2.594 0.59,1.79 0.28,1.012 0,0" /></g><g
           transform="translate(65.5472,121.2811)"
           id="g44"><path
             id="path46"
             style="fill:#ffffff;fill-opacity:1;fill-rule:nonzero;stroke:none"
             d="M 0,0 C -0.47,0.661 -0.833,1.447 -1.431,1.958 -3.26,3.522 -5.55,4.178 -7.796,4.862 -8.709,5.14 -9.407,4.597 -9.73,3.751 c -0.393,-1.028 -0.724,-2.087 -0.99,-3.156 -0.588,-2.363 -1.632,-4.464 -3.305,-6.251 -0.282,-0.302 -0.526,-0.692 -0.645,-1.084 -0.342,-1.13 0.338,-1.948 1.464,-1.62 1.506,0.439 3.163,0.55 4.3,1.947 0.605,0.745 1.973,0.518 2.931,-0.277 1.609,-1.335 3.589,-0.878 4.263,1.063 0.548,1.576 0.494,2.393 1.404,4.804 0.086,0.228 0.161,0.412 0.211,0.532 C -0.065,-0.194 -0.032,-0.097 0,0" /></g><g
           transform="translate(119.7558,192.5854)"
           id="g48"><path
             id="path50"
             style="fill:#ffffff;fill-opacity:1;fill-rule:nonzero;stroke:none"
             d="M 0,0 C 0.097,0.895 0.122,1.661 0.12,2.257 0.118,3.006 -0.02,3.499 0.023,4.091 0.11,5.302 -0.601,5.92 -1.539,6.405 -2.128,6.71 -2.752,7.264 -3.309,7.206 -3.705,7.165 -3.981,6.263 -4.368,5.792 -5.894,3.936 -7.552,2.22 -9.658,1.002 -9.803,0.919 -10.003,0.855 -10.07,0.726 c -0.221,-0.422 -0.596,-0.912 -0.517,-1.294 0.059,-0.29 0.713,-0.628 1.117,-0.647 2.109,-0.101 4.16,-0.443 6.12,-1.239 0.767,-0.312 1.438,-0.339 1.98,-0.084 0.741,0.348 1.079,1.249 1.151,1.434 C -0.047,-0.663 -0.006,-0.267 0,0" /></g><g
           transform="translate(104.9771,133.0569)"
           id="g52"><path
             id="path54"
             style="fill:#ffffff;fill-opacity:1;fill-rule:nonzero;stroke:none"
             d="m 0,0 c -0.666,-0.378 -1.253,-0.624 -1.737,-1.002 -1.231,-0.963 -2.386,-2.025 -3.629,-2.97 -0.704,-0.534 -0.866,-1.152 -0.735,-1.963 0.476,-2.955 2.342,-5.066 4.339,-7.075 0.175,-0.176 0.938,-0.069 1.167,0.163 0.895,0.909 1.757,1.871 2.493,2.911 0.607,0.856 1.268,1.427 2.357,1.382 0.588,-0.024 0.982,0.174 1.216,0.798 0.386,1.031 0.922,2.005 1.318,3.033 0.102,0.265 0.038,0.804 -0.15,0.939 C 5.378,-2.876 4.093,-1.989 2.753,-1.205 1.913,-0.714 0.963,-0.413 0,0" /></g><g
           transform="translate(66.7407,131.1907)"
           id="g56"><path
             id="path58"
             style="fill:#ffffff;fill-opacity:1;fill-rule:nonzero;stroke:none"
             d="m 0,0 c -0.096,1.191 -0.117,2.198 -0.284,3.18 -0.074,0.437 -0.35,1.056 -0.693,1.194 -2.418,0.969 -4.85,1.933 -7.554,1.685 -1.067,-0.098 -1.503,-0.45 -1.091,-1.409 0.896,-2.08 -0.157,-3.481 -1.401,-4.872 -0.652,-0.728 -1.434,-1.496 -1.052,-2.516 0.411,-1.097 1.605,-0.831 2.522,-1.017 1.414,-0.286 2.839,-0.543 4.223,-0.942 1.252,-0.362 2.227,-0.063 3.087,0.847 0.343,0.362 0.671,0.747 1.06,1.054 C -0.201,-2.018 0.31,-1.083 0,0" /></g><g
           transform="translate(94.6697,151.5728)"
           id="g60"><path
             id="path62"
             style="fill:#ffffff;fill-opacity:1;fill-rule:nonzero;stroke:none"
             d="m 0,0 c 0,-0.214 -0.001,-0.428 0,-0.642 0.008,-1.367 0.372,-1.691 1.608,-1.189 1.705,0.692 3.031,0.14 4.29,-0.988 0.496,-0.444 1.052,-0.846 1.638,-1.158 0.845,-0.449 1.441,-0.211 1.711,0.727 0.223,0.777 0.227,1.614 0.402,2.409 0.242,1.096 0.449,2.219 0.862,3.254 0.464,1.159 0.204,2.441 -0.48,3.479 C 8.331,8.471 5.974,8.354 3.465,7.698 3.056,7.592 2.639,7.136 2.421,6.736 1.271,4.62 -0.118,2.578 0,0" /></g><g
           transform="translate(106.5459,161.0988)"
           id="g64"><path
             id="path66"
             style="fill:#ffffff;fill-opacity:1;fill-rule:nonzero;stroke:none"
             d="M 0,0 C 0.105,0.046 0.506,0.093 0.658,0.312 1.465,1.478 2.228,2.676 2.969,3.886 3.49,4.737 3.27,5.599 2.875,6.434 2.418,7.401 2.02,8.405 1.463,9.31 1.239,9.673 0.646,10.044 0.242,10.022 -2.177,9.889 -4.591,9.652 -7.004,9.425 -7.424,9.386 -7.858,9.286 -8.243,9.117 -9.229,8.686 -9.441,8.085 -8.9,7.169 -7.814,5.329 -6.697,3.507 -5.573,1.689 -5.034,0.818 -4.266,0.332 -3.199,0.291 -2.202,0.253 -1.208,0.114 0,0" /></g><g
           transform="translate(107.4577,171.4125)"
           id="g68"><path
             id="path70"
             style="fill:#ffffff;fill-opacity:1;fill-rule:nonzero;stroke:none"
             d="m 0,0 c 0.328,-0.152 0.654,-0.312 0.986,-0.454 0.166,-0.07 0.329,-0.188 0.518,-0.143 0.251,0.06 0.581,0.131 0.773,0.438 0.152,0.242 0.2,0.892 0.2,1.287 C 2.473,2.654 2.442,4.16 2.394,5.65 2.386,5.896 2.259,6.066 2.15,6.194 2.082,6.275 1.95,6.266 1.838,6.207 1.033,5.78 0.327,5.798 -0.347,5.984 -0.426,6.006 -0.603,5.885 -0.664,5.754 -0.997,5.034 -1.418,4.378 -1.452,3.467 -1.472,2.927 -1.631,2.283 -1.763,1.682 -1.931,0.915 -1.814,0.549 -1.476,0.443 c 0.49,-0.154 0.979,-0.311 1.468,-0.466 z" /></g><g
           transform="translate(117.8898,187.3707)"
           id="g72"><path
             id="path74"
             style="fill:#ffffff;fill-opacity:1;fill-rule:nonzero;stroke:none"
             d="M 0,0 C -2.736,0.607 -5.521,1.232 -8.309,1.84 -9.276,2.05 -9.72,1.713 -9.565,0.748 c 0.428,-2.664 0.913,-5.319 1.427,-7.967 0.194,-0.999 0.727,-1.564 1.911,-1.243 1.337,0.362 2.714,0.571 4.07,0.865 1.256,0.273 1.948,1.096 2.191,2.331 0.206,1.047 0.403,2.006 1.464,2.694 0.964,0.626 0.655,1.819 -0.427,2.229 C 0.738,-0.218 0.393,-0.125 0,0" /></g><g
           transform="translate(45.3779,137.0961)"
           id="g76"><path
             id="path78"
             style="fill:#ffffff;fill-opacity:1;fill-rule:nonzero;stroke:none"
             d="m 0,0 c 0.153,-2.255 0.232,-4.457 0.472,-6.642 0.25,-2.282 0.319,-2.281 2.576,-2.228 1.284,0.03 2.573,0.034 3.848,0.161 0.43,0.042 1.027,0.323 1.205,0.671 0.807,1.577 1.624,3.172 2.185,4.845 0.556,1.659 0.09,2.444 -1.622,2.716 C 6.319,-0.105 3.937,0.039 1.567,0.237 1.125,0.274 0.666,0.107 0,0" /></g><g
           transform="translate(76.7093,122.5939)"
           id="g80"><path
             id="path82"
             style="fill:#ffffff;fill-opacity:1;fill-rule:nonzero;stroke:none"
             d="M 0,0 C 0.125,-0.012 1.365,-0.12 1.826,0.602 2.263,1.285 1.862,2.373 1.39,2.84 0.435,3.784 -0.537,4.711 -1.504,5.642 -2.576,6.674 -3.633,7.723 -4.74,8.716 -4.953,8.907 -5.459,9.034 -5.677,8.914 -7.607,7.855 -9.234,6.442 -10.315,4.495 c -0.203,-0.365 -0.282,-0.894 -0.2,-1.304 0.242,-1.222 0.612,-2.418 0.893,-3.633 0.133,-0.577 0.375,-0.777 0.978,-0.59 1.688,0.523 3.385,1.021 5.09,1.489 0.48,0.132 0.911,0.026 1.14,0.014 C -1.381,0.416 -0.55,0.189 0,0" /></g><g
           transform="translate(102.2283,137.1507)"
           id="g84"><path
             id="path86"
             style="fill:#ffffff;fill-opacity:1;fill-rule:nonzero;stroke:none"
             d="m 0,0 c 0.102,2.754 0.355,4.167 0.579,4.952 0.205,0.716 0.203,1.044 0.202,1.699 -0.003,1.45 -0.277,1.75 -1.719,1.836 -1.492,0.09 -2.556,0.977 -3.653,1.827 -0.395,0.306 -0.759,0.675 -1.197,0.895 -0.277,0.138 -0.757,0.185 -0.978,0.031 -0.219,-0.153 -0.353,-0.631 -0.298,-0.925 0.08,-0.433 0.271,-0.915 0.571,-1.225 0.988,-1.019 1.054,-2.179 0.551,-3.374 -0.99,-2.351 -0.553,-4.243 1.415,-5.93 0.572,-0.491 0.683,-1.516 1.015,-2.291 0.222,-0.519 0.348,-1.138 0.715,-1.525 0.899,-0.947 2.381,-0.466 2.691,0.808 0.05,0.208 0.117,0.419 0.121,0.63 0.015,0.749 0.006,1.498 0.006,2.248 C 0.014,-0.23 0.007,-0.115 0,0" /></g><g
           transform="translate(108.5924,111.9248)"
           id="g88"><path
             id="path90"
             style="fill:#ffffff;fill-opacity:1;fill-rule:nonzero;stroke:none"
             d="M 0,0 C -0.418,1.726 -0.79,3.24 -1.149,4.757 -1.297,5.382 -1.418,6.014 -1.544,6.644 -1.773,7.776 -2.21,7.911 -3.168,7.263 -4.663,6.254 -6.159,5.23 -7.738,4.365 -8.626,3.877 -9.671,3.656 -10.665,3.383 c -1.19,-0.327 -1.557,-1.107 -0.885,-2.156 0.648,-1.013 1.398,-1.95 1.436,-3.248 0.016,-0.53 0.424,-0.737 0.927,-0.455 1.448,0.812 2.932,0.802 4.552,0.552 1.158,-0.178 2.44,0.052 3.586,0.381 C -0.586,-1.41 -0.338,-0.528 0,0" /></g><g
           transform="translate(115.9235,166.6208)"
           id="g92"><path
             id="path94"
             style="fill:#ffffff;fill-opacity:1;fill-rule:nonzero;stroke:none"
             d="M 0,0 C 0.112,0.412 0.3,1.015 0.609,1.711 1.484,3.688 2.123,3.772 2.257,4.886 2.366,5.793 2.195,6.751 1.713,7.775 1.261,8.737 1.485,9.642 2.037,10.49 c 0.108,0.166 0.202,0.341 0.287,0.518 0.284,0.587 0.533,1.287 -0.17,1.669 C 1.906,12.811 1.153,12.312 0.751,11.979 -0.586,10.872 -1.699,9.521 -3.767,9.412 -4.69,9.363 -5.006,8.45 -4.687,7.267 c 0.412,-1.532 0.925,-3.048 1.23,-4.594 0.209,-1.055 0.092,-2.152 0.202,-3.225 0.08,-0.793 0.218,-1.634 1.411,-1.676 0.323,-0.012 0.602,0.051 0.837,0.188 0.484,0.28 0.649,0.808 0.86,1.469 C -0.071,-0.333 -0.026,-0.132 0,0" /></g><g
           transform="translate(59.0728,98.9181)"
           id="g96"><path
             id="path98"
             style="fill:#ffffff;fill-opacity:1;fill-rule:nonzero;stroke:none"
             d="m 0,0 c 0.352,1.46 0.731,2.603 1.014,3.38 0.311,0.856 0.498,1.767 0.924,2.573 0.828,1.561 0.832,2.662 -0.296,4.04 -0.597,0.729 -0.909,1.475 -0.874,2.428 0.02,0.552 -0.12,1.137 -0.311,1.662 -0.304,0.831 -0.956,1.216 -1.855,1.099 C -2.268,15.069 -2.501,14.441 -2.66,13.686 -3.029,11.946 -3.38,10.197 -3.885,8.495 -4.194,7.455 -4.892,6.531 -5.209,5.492 -5.307,5.17 -5.355,4.918 -5.37,4.68 c 0,0 -0.016,-0.283 0.022,-0.579 C -5.274,3.54 -4.273,0.094 -1.703,-0.238 -1.358,-0.282 -0.762,-0.299 0,0" /></g><g
           transform="translate(46.4803,126.6595)"
           id="g100"><path
             id="path102"
             style="fill:#ffffff;fill-opacity:1;fill-rule:nonzero;stroke:none"
             d="m 0,0 c 0.339,-2.15 0.716,-4.431 1.053,-6.717 0.286,-1.942 0.496,-3.895 0.816,-5.83 0.048,-0.293 0.479,-0.582 0.799,-0.735 0.093,-0.044 0.613,0.398 0.601,0.597 -0.161,2.724 1.843,4.368 3.097,6.391 0.578,0.932 1.107,1.91 1.53,2.92 0.425,1.015 0.044,1.81 -0.897,2.445 -0.34,0.23 -0.65,0.55 -0.879,0.893 C 5.39,1.054 4.997,1.162 3.705,0.802 2.553,0.482 1.365,0.29 0,0" /></g><g
           transform="translate(106.0166,145.8455)"
           id="g104"><path
             id="path106"
             style="fill:#ffffff;fill-opacity:1;fill-rule:nonzero;stroke:none"
             d="M 0,0 C 0.74,0.117 1.476,0.305 2.219,0.339 3.343,0.39 4.485,0.441 5.595,0.299 7.18,0.096 7.923,0.672 7.588,2.236 7.124,4.402 6.622,6.543 6.935,8.785 7.002,9.267 6.747,9.546 6.213,9.271 4.586,8.434 2.967,7.578 1.328,6.764 0.244,6.225 -0.331,5.448 -0.408,4.185 -0.47,3.166 -0.826,2.167 -1.019,1.153 -1.169,0.363 -0.906,-0.115 0,0" /></g><g
           transform="translate(45.5778,105.6602)"
           id="g108"><path
             id="path110"
             style="fill:#ffffff;fill-opacity:1;fill-rule:nonzero;stroke:none"
             d="M 0,0 C 1.843,-0.924 3.694,-1.897 5.599,-2.754 5.858,-2.87 6.642,-2.488 6.737,-2.193 7.556,0.343 8.303,2.903 8.999,5.476 9.231,6.329 8.674,6.516 7.922,6.383 5.911,6.025 3.897,5.687 1.779,5.323 1.275,3.813 0.68,2.035 0,0" /></g><g
           transform="translate(106.3393,153.7875)"
           id="g112"><path
             id="path114"
             style="fill:#ffffff;fill-opacity:1;fill-rule:nonzero;stroke:none"
             d="M 0,0 C 0.826,0.327 1.479,0.565 2.115,0.842 3.551,1.468 4.986,2.1 6.406,2.764 6.708,2.905 7.107,3.147 7.182,3.419 7.725,5.4 8.197,7.401 8.69,9.389 6.409,9.991 4.623,9.581 3.555,8.105 2.686,6.902 1.506,5.923 0.629,4.724 0.164,4.088 -0.063,3.212 -0.185,2.412 -0.29,1.73 -0.091,1.002 0,0" /></g><g
           transform="translate(45.6479,138.9115)"
           id="g116"><path
             id="path118"
             style="fill:#ffffff;fill-opacity:1;fill-rule:nonzero;stroke:none"
             d="M 0,0 C 1.928,0.265 3.852,0.106 5.309,0.856 6.627,1.535 7.461,3.185 8.442,4.458 8.6,4.663 8.504,5.182 8.362,5.477 7.716,6.819 7.013,8.134 6.288,9.539 2.993,7.228 0.487,4.473 0,0" /></g><g
           transform="translate(69.5548,102.2239)"
           id="g120"><path
             id="path122"
             style="fill:#ffffff;fill-opacity:1;fill-rule:nonzero;stroke:none"
             d="M 0,0 C -1.261,0.706 -2.148,2.353 -4.13,1.848 -4.501,1.754 -4.984,1.93 -5.368,2.093 -6.196,2.444 -6.62,2.03 -6.813,1.337 c -0.439,-1.572 -0.853,-3.154 -1.181,-4.751 -0.082,-0.4 0.083,-0.961 0.336,-1.296 0.59,-0.778 1.302,-1.464 2.018,-2.245 C -3.725,-4.593 -1.9,-2.342 0,0" /></g><g
           transform="translate(59.5679,152.3908)"
           id="g124"><path
             id="path126"
             style="fill:#ffffff;fill-opacity:1;fill-rule:nonzero;stroke:none"
             d="m 0,0 c -0.013,-0.552 0.033,-1.672 0.733,-2.098 0.246,-0.15 0.524,-0.23 1.046,-0.136 1.785,0.324 3.412,0.248 5.068,-0.619 1.015,-0.531 1.641,0.047 1.769,1.212 0.128,1.165 0.361,2.319 0.503,3.483 C 9.162,2.198 9.125,2.446 8.983,2.601 8.736,2.873 8.267,2.82 8.067,2.797 3.207,2.236 1.799,2.237 0.564,0.802 0.414,0.627 0.206,0.361 0,0" /></g><g
           transform="translate(80.2723,120.4785)"
           id="g128"><path
             id="path130"
             style="fill:#ffffff;fill-opacity:1;fill-rule:nonzero;stroke:none"
             d="M 0,0 C 2.033,0.091 3.919,0.153 5.799,0.286 6.056,0.304 6.489,0.673 6.497,0.892 6.533,1.915 6.514,2.952 6.369,3.964 6.328,4.255 5.752,4.739 5.51,4.691 3.564,4.298 2.315,5.628 0.862,6.451 0.678,6.555 0.549,6.77 0.359,6.845 c -0.49,0.197 -1,0.344 -1.503,0.511 C -1.213,6.75 -1.309,6.146 -1.334,5.539 -1.342,5.356 -1.192,5.12 -1.045,4.984 0.241,3.801 0.426,2.359 0.006,0.756 -0.036,0.596 0,0.415 0,0" /></g><g
           transform="translate(94.5162,125.1878)"
           id="g132"><path
             id="path134"
             style="fill:#ffffff;fill-opacity:1;fill-rule:nonzero;stroke:none"
             d="m 0,0 c 1.546,-2.776 1.363,-5.71 1.549,-8.641 1.159,0.027 2.155,0.173 2.909,1.116 0.299,0.373 0.73,0.707 1.171,0.888 0.89,0.363 1.054,0.998 0.65,1.715 C 5.426,-3.409 4.502,-1.931 3.531,-0.49 3.34,-0.208 2.815,-0.059 2.427,-0.021 1.686,0.051 0.932,0 0,0" /></g><g
           transform="translate(64.1986,108.2182)"
           id="g136"><path
             id="path138"
             style="fill:#ffffff;fill-opacity:1;fill-rule:nonzero;stroke:none"
             d="M 0,0 C 1.245,1.867 2.26,3.388 3.392,5.083 1.982,5.245 0.835,5.591 -0.296,4.761 -0.658,4.495 -1.232,4.453 -1.713,4.433 -2.868,4.385 -3.182,3.972 -2.524,3.005 -1.842,2.001 -0.964,1.13 0,0" /></g><g
           transform="translate(68.102,114.9096)"
           id="g140"><path
             id="path142"
             style="fill:#ffffff;fill-opacity:1;fill-rule:nonzero;stroke:none"
             d="M 0,0 C 1.08,2.474 2.092,4.793 3.105,7.111 2.984,7.182 2.864,7.252 2.744,7.323 1.316,5.725 -0.299,4.271 -1.283,2.318 -1.766,1.361 -1.123,0.729 0,0" /></g><g
           transform="translate(78.092,155.6201)"
           id="g144"><path
             id="path146"
             style="fill:#ffffff;fill-opacity:1;fill-rule:nonzero;stroke:none"
             d="m 0,0 c -2.859,-0.222 -5.533,-0.431 -8.264,-0.643 -0.017,-1.365 0.494,-1.722 1.338,-1.718 1.625,0.008 3.251,-0.032 4.875,-0.122 C -0.935,-2.545 -0.338,-1.797 0,0" /></g><g
           transform="translate(109.0264,116.9849)"
           id="g148"><path
             id="path150"
             style="fill:#ffffff;fill-opacity:1;fill-rule:nonzero;stroke:none"
             d="M 0,0 C 0.24,1.641 0.488,3.281 0.718,4.923 0.826,5.698 0.375,5.836 -0.182,5.542 -1.118,5.048 -1.431,4.133 -1.244,3.176 -1.03,2.081 -0.604,1.027 -0.269,-0.046 -0.18,-0.03 -0.09,-0.015 0,0" /></g><g
           transform="translate(62.6617,94.8698)"
           id="g152"><path
             id="path154"
             style="fill:#ffffff;fill-opacity:1;fill-rule:nonzero;stroke:none"
             d="m 0,0 c -1.337,-0.632 -2.673,-1.265 -4.003,-1.894 0.983,-0.496 1.464,-0.491 2.15,0.089 0.673,0.568 1.306,1.162 1.957,1.745 z" /></g><g
           transform="translate(92.2315,108.8664)"
           id="g156"><path
             id="path158"
             style="fill:#ffffff;fill-opacity:1;fill-rule:nonzero;stroke:none"
             d="M 0,0 C 0.492,0.127 0.764,0.228 1.045,0.266 3.075,0.537 3.203,0.6 3.52,2.722 3.761,4.337 4.147,6.026 3.354,7.593 c -1.071,2.117 -2.443,4.024 -4.41,5.351 -0.232,0.157 -0.648,0.154 -0.927,0.063 -1.965,-0.644 -3.919,-1.32 -5.869,-2.006 -0.739,-0.26 -1.465,-0.561 -2.187,-0.867 -0.425,-0.181 -0.9,-0.328 -1.233,-0.633 -1.316,-1.206 -1.218,-1.864 -0.011,-2.811 1.927,-1.513 3.838,-3.132 5.435,-5.005 1.467,-1.721 3.101,-2.018 5.014,-1.833 C -0.48,-0.114 -0.132,-0.024 0,0" /></g><g
           transform="translate(69.0888,147.9834)"
           id="g160"><path
             id="path162"
             style="fill:#ffffff;fill-opacity:1;fill-rule:nonzero;stroke:none"
             d="M 0,0 C 0.528,-0.151 1.076,-0.254 1.581,-0.461 2.344,-0.775 3.12,-1.095 3.814,-1.532 4.806,-2.157 5.479,-2.005 5.74,-0.861 6.101,0.724 6.43,2.304 7.332,3.698 7.526,3.999 7.443,4.263 7.002,4.245 5.66,4.192 4.319,4.123 2.977,4.089 2.088,4.066 1.466,3.727 1.023,2.91 0.667,2.252 0.121,1.698 -0.321,1.083 -0.665,0.603 -0.638,0.204 0,0" /></g><g
           transform="translate(85.4612,138.4801)"
           id="g164"><path
             id="path166"
             style="fill:#ffffff;fill-opacity:1;fill-rule:nonzero;stroke:none"
             d="M 0,0 C 2.791,0.607 5.406,1.176 8.021,1.744 7.966,1.909 7.912,2.075 7.857,2.24 5.407,2.561 2.897,3.163 0.577,2.813 -0.559,2.642 -0.457,1.588 0,0" /></g><g
           transform="translate(99.713,108.4431)"
           id="g168"><path
             id="path170"
             style="fill:#ffffff;fill-opacity:1;fill-rule:nonzero;stroke:none"
             d="M 0,0 C 3.981,0.076 6.697,0.162 7.227,0.267 7.303,0.282 7.629,0.351 7.77,0.195 7.829,0.129 7.848,0.014 7.797,-0.188 7.726,-0.275 7.622,-0.351 7.59,-0.45 6.715,-3.137 6.925,-6.126 5.317,-8.612 5.244,-8.726 5.276,-8.91 5.267,-9.061 5.183,-10.426 5.1,-11.791 5.019,-13.156 4.666,-19.147 4.189,-25.134 4.005,-31.13 c -0.128,-4.167 0.037,-8.354 0.286,-12.519 0.153,-2.564 0.751,-5.098 1.074,-7.656 0.272,-2.148 0.054,-4.255 -1.033,-6.179 -0.191,-0.338 -0.683,-0.792 -0.966,-0.747 -2.57,0.409 -5.048,1.107 -7.046,2.915 -1.405,1.272 -1.797,2.757 -0.879,4.409 0.71,1.275 1.769,2.352 2.617,3.556 0.35,0.498 0.744,1.08 0.796,1.653 0.313,3.441 0.674,6.888 0.739,10.338 0.056,2.99 -0.155,5.996 -0.433,8.978 -0.459,4.911 -1.059,9.808 -1.635,14.707 -0.035,0.291 -0.343,0.72 -0.599,0.784 -0.677,0.171 -1.396,0.176 -2.186,0.256 -0.182,-1.868 -0.357,-3.677 -0.534,-5.485 -0.505,-5.176 -1.01,-10.351 -1.516,-15.527 -0.498,-5.1 -1.017,-10.199 -1.466,-15.303 -0.054,-0.615 0.179,-1.303 0.436,-1.889 0.892,-2.038 2.061,-3.98 2.73,-6.083 0.707,-2.222 -0.451,-3.985 -2.739,-4.392 -1.466,-0.261 -3.036,-0.247 -4.516,-0.043 -2.058,0.284 -2.994,1.87 -3.522,3.727 v 2.282 c 0.602,2.102 1.193,4.177 1.284,6.414 0.263,6.482 0.689,12.958 1.058,19.436 0.266,4.659 0.597,9.316 0.796,13.978 0.122,2.844 0.737,5.729 -0.733,8.489 -0.113,0.212 -0.299,0.604 -0.149,0.96 0.344,0.819 2.042,0.338 3.753,1.061 1.52,0.641 1.722,1.672 2.773,2.535 C -6.446,0.476 -4.308,1.18 0,0" /></g><g
           transform="translate(63.835,94.7771)"
           id="g172"><path
             id="path174"
             style="fill:#ffffff;fill-opacity:1;fill-rule:nonzero;stroke:none"
             d="m 0,0 v -0.228 c -0.648,-0.686 -1.366,-1.321 -1.927,-2.072 -0.663,-0.888 -1.48,-1.808 -1.722,-2.834 -0.642,-2.726 -1.045,-5.511 -1.483,-8.282 -1.074,-6.81 -1.589,-13.63 -0.604,-20.513 0.232,-1.618 0.533,-2.99 2.056,-3.862 0.442,-0.253 0.778,-0.721 1.112,-1.131 1.653,-2.03 1.46,-3.783 -0.894,-4.911 -1.951,-0.933 -4.149,-1.34 -6.221,-2.032 -0.896,-0.299 -1.343,0.142 -1.748,0.81 -1.142,1.885 -1.165,3.96 -0.675,5.963 1.028,4.203 1.53,8.471 1.344,12.757 -0.294,6.789 -0.877,13.566 -1.364,20.346 -0.079,1.102 -0.293,2.194 -0.444,3.29 -0.113,0.008 -0.227,0.016 -0.34,0.025 -1.045,-1.496 -1.52,-3.205 -1.737,-5.018 -0.568,-4.746 -1.152,-9.491 -1.723,-14.237 -0.576,-4.784 -1.168,-9.566 -1.681,-14.356 -0.059,-0.549 0.258,-1.195 0.547,-1.715 0.842,-1.516 1.95,-2.914 2.598,-4.503 0.804,-1.972 -0.083,-3.481 -2.157,-3.939 -1.207,-0.268 -2.483,-0.287 -3.729,-0.306 -2.38,-0.037 -4.326,0.72 -5.218,3.17 v 1.826 c 0.401,1.408 1.008,2.794 1.163,4.228 0.366,3.395 0.517,6.814 0.756,10.222 0.522,7.461 1.042,14.923 1.569,22.383 0.133,1.887 0.069,3.824 0.488,5.647 0.654,2.849 1.24,5.804 3.553,7.942 h 1.141 c 1.331,-0.821 2.7,-1.484 4.323,-1.55 1.849,-0.076 3.069,-1.045 3.786,-2.784 0.898,-2.181 1.967,-2.647 4.197,-1.922 0.784,0.254 1.456,0.263 2.125,-0.247 C -1.948,1.433 -0.97,0.721 0,0" /></g><g
           transform="translate(83.5773,111.2226)"
           id="g176"><path
             id="path178"
             style="fill:#ffffff;fill-opacity:1;fill-rule:nonzero;stroke:none"
             d="m 0,0 c -0.755,-2.631 -1.369,-4.775 -2.055,-7.166 1.699,0.335 3.159,0.359 4.166,1.744 0.321,0.442 0.972,0.705 1.525,0.907 1.325,0.483 1.535,1.08 0.412,1.96 C 2.883,-1.642 1.54,-0.956 0,0" /></g><g
           transform="translate(14.847,23.0375)"
           id="g180"><path
             id="path182"
             style="fill:#ffffff;fill-opacity:1;fill-rule:nonzero;stroke:none"
             d="m 0,0 c 1.794,0 1.993,1.13 1.993,2.79 v 15.547 c 0,1.662 -0.199,2.791 -1.993,2.791 v 0.2 l 7.275,0.663 V 11.428 c 1.362,1.362 3.189,2.557 5.349,2.557 2.259,0 4.185,-1.295 4.185,-4.551 V 2.79 C 16.809,1.13 17.009,0 18.802,0 V -0.199 H 9.866 V 0 c 1.395,0 1.661,1.13 1.661,2.79 v 7.242 c 0,1.628 -0.73,2.293 -1.76,2.293 -0.997,0 -1.828,-0.565 -2.492,-1.196 V 2.79 C 7.275,1.13 7.475,0 9.268,0 V -0.199 H 0 Z" /></g><g
           transform="translate(40.4585,30.6447)"
           id="g184"><path
             id="path186"
             style="fill:#ffffff;fill-opacity:1;fill-rule:nonzero;stroke:none"
             d="m 0,0 h 4.485 c 0,1.362 0.033,6.212 -2.093,6.212 C 0.565,6.212 0,2.492 0,0 m -5.415,-0.93 c 0,4.02 3.09,7.308 7.906,7.308 4.252,0 6.977,-2.591 7.143,-6.644 H 0 c 0.033,-4.385 1.727,-7.075 4.75,-7.075 2.16,0 3.655,1.395 4.651,2.59 L 9.567,-4.883 C 8.371,-6.345 6.445,-8.172 2.591,-8.172 c -5.282,0 -8.006,3.455 -8.006,7.242" /></g><g
           transform="translate(61.6185,24.831)"
           id="g188"><path
             id="path190"
             style="fill:#ffffff;fill-opacity:1;fill-rule:nonzero;stroke:none"
             d="m 0,0 v 4.751 c -0.498,0.132 -1.096,0.265 -1.595,0.265 -1.727,0 -2.458,-1.196 -2.458,-3.189 0,-1.627 0.499,-3.089 1.927,-3.089 0.698,0 1.429,0.366 2.126,1.262 m -9.468,1.561 c 0,2.825 2.625,3.888 5.847,3.888 1.229,0 2.591,-0.167 3.621,-0.433 v 3.488 c 0,1.894 -0.399,3.522 -2.558,3.522 -1.395,0 -2.259,-0.698 -2.823,-1.462 0.896,-0.431 1.461,-1.395 1.461,-2.359 0,-1.361 -1.096,-2.424 -2.524,-2.424 -1.562,0 -2.392,1.295 -2.392,2.491 0,2.192 2.657,3.92 6.577,3.92 3.489,0 7.541,-1.395 7.541,-5.381 v -7.11 c 0,-0.631 0.332,-0.93 0.864,-0.93 0.831,0 1.594,0.831 2.126,1.628 l 0.166,-0.1 c -0.93,-1.328 -2.06,-2.624 -4.385,-2.624 -2.06,0 -3.256,1.03 -3.754,2.325 -0.897,-1.229 -2.358,-2.358 -4.883,-2.358 -2.89,0 -4.884,1.462 -4.884,3.919" /></g><g
           transform="translate(80.6858,24.7649)"
           id="g192"><path
             id="path194"
             style="fill:#ffffff;fill-opacity:1;fill-rule:nonzero;stroke:none"
             d="m 0,0 v 10.332 c -0.432,0.896 -1.162,1.627 -2.093,1.627 -2.258,0 -2.757,-4.352 -2.757,-6.843 0,-3.488 0.996,-6.013 2.957,-6.013 0.797,0 1.428,0.432 1.893,0.897 m -10.365,4.917 c 0,3.953 2.425,7.341 7.077,7.341 1.561,0 2.591,-0.399 3.288,-0.764 v 5.116 c 0,2.026 -0.863,2.79 -2.658,2.79 v 0.2 l 7.94,0.664 V 1.063 c 0,-1.661 0.2,-2.79 1.993,-2.79 V -1.926 H 0.167 v 1.76 c -0.931,-1.097 -2.359,-2.126 -4.485,-2.126 -3.854,0 -6.047,3.455 -6.047,7.209" /></g><g
           transform="translate(97.8598,27.0239)"
           id="g196"><path
             id="path198"
             style="fill:#ffffff;fill-opacity:1;fill-rule:nonzero;stroke:none"
             d="M 0,0 V 6.212 C 0,7.873 -0.2,9.103 -1.994,9.103 V 9.302 L 5.281,9.966 V -0.598 c 0,-1.628 0.732,-2.292 1.761,-2.292 0.964,0 1.794,0.531 2.492,1.196 v 7.906 c 0,1.661 -0.266,2.891 -1.661,2.891 v 0.199 l 6.943,0.664 V -1.096 c 0,-1.661 0.199,-2.89 1.993,-2.89 V -4.185 H 9.7 v 2.358 C 8.305,-3.289 6.411,-4.551 4.185,-4.551 1.926,-4.551 0,-3.256 0,0" /></g><g
           transform="translate(122.7076,34.7309)"
           id="g200"><path
             id="path202"
             style="fill:#ffffff;fill-opacity:1;fill-rule:nonzero;stroke:none"
             d="m 0,0 v -9.235 c 0,-1.96 1.129,-2.724 2.126,-2.724 2.225,0 2.724,4.086 2.724,6.777 0,3.786 -0.997,6.079 -2.924,6.079 C 1.063,0.897 0.432,0.465 0,0 m -7.275,-17.108 c 1.793,0 1.993,1.229 1.993,2.89 v 12.723 c 0,1.661 -0.2,2.891 -1.993,2.891 v 0.199 l 7.108,0.664 V 0.133 c 0.931,1.096 2.359,2.159 4.485,2.159 3.854,0 6.047,-3.455 6.047,-7.209 0,-3.953 -2.426,-7.341 -7.077,-7.341 -1.561,0 -2.624,0.366 -3.288,0.764 v -2.99 c 0,-1.661 0.598,-2.624 2.325,-2.624 v -0.199 h -9.6 z" /></g></g></g></g></svg>